COMMENT @(#)78	1.1  src/bos/usr/lpp/jls/fonts/Kanji17.bdf, fontKJI, bos411, 9428A410j 2/24/94 10:08:58
COMMENT
COMMENT   COMPONENT_NAME: fontKJI
COMMENT
COMMENT   FUNCTIONS: none
COMMENT
COMMENT   ORIGINS: 27
COMMENT
COMMENT   IBM CONFIDENTIAL -- (IBM Confidential Restricted when
COMMENT   combined with the aggregated modules for this product)
COMMENT                    SOURCE MATERIALS
COMMENT
COMMENT   (C) COPYRIGHT International Business Machines Corp. 1989
COMMENT   All Rights Reserved
COMMENT   US Government Users Restricted Rights - Use, duplication or
COMMENT   disclosure restricted by GSA ADP Schedule Contract with IBM Corp.
COMMENT
STARTFONT 2.1
FONT -IBM_AIX-Mincho-Medium-R-Normal--27-170-100-100-M-260-JISX0208.1983-0
SIZE 170 100 100
FONTBOUNDINGBOX 26 27 0 0
STARTPROPERTIES 27
FONTNAME_REGISTRY "-"
FOUNDRY "IBM_AIX"
FAMILY_NAME "Mincho"
WEIGHT_NAME "Medium"
SLANT "R"
SETWIDTH_NAME "Normal"
ADD_STYLE_NAME ""
PIXEL_SIZE 27
POINT_SIZE 170
RESOLUTION_X 100
RESOLUTION_Y 100
SPACING "M"
AVERAGE_WIDTH 260
CHARSET_REGISTRY "JISX0208.1983"
CHARSET_ENCODING "0"
CAP_HEIGHT 27
CHARSET_COLLECTIONS ""
COPYRIGHT "Copyright 1989 by IBM."
_IBM_AIX_CODESET "AIXstdNLS"
_IBM_AIX_SINGLEBYTE_CODEPAGE_SHIFTS ""
WEIGHT 20050
RESOLUTION 138
X_HEIGHT 26
QUAD_WIDTH 26
FONT_DESCENT 1
FONT_ASCENT 26
DEFAULT_CHAR 8481
ENDPROPERTIES
CHARS 6879
STARTCHAR 2121
ENCODING 8481
SWIDTH	-8531 0
DWIDTH	26 0
BBX 26	27 0 -1
BITMAP
00000000
00000000
00000000
00000000
00000000
00000000
00000000
00000000
00000000
00000000
00000000
00000000
00000000
00000000
00000000
00000000
00000000
00000000
00000000
00000000
00000000
00000000
00000000
00000000
00000000
00000000
00000000
ENDCHAR
STARTCHAR 2122
ENCODING 8482
SWIDTH	-8531 0
DWIDTH	26 0
BBX 26	27 0 -1
BITMAP
00000000
00000000
00000000
00000000
00000000
00000000
00000000
00000000
00000000
00000000
00000000
00000000
00000000
00000000
00000000
00000000
00000000
00000000
30000000
0c000000
06000000
03000000
03800000
01800000
01800000
00000000
00000000
ENDCHAR
STARTCHAR 2123
ENCODING 8483
SWIDTH	-8531 0
DWIDTH	26 0
BBX 26	27 0 -1
BITMAP
00000000
00000000
00000000
00000000
00000000
00000000
00000000
00000000
00000000
00000000
00000000
00000000
00000000
00000000
00000000
00000000
00000000
07800000
08400000
10200000
10200000
10200000
10200000
08400000
07800000
00000000
00000000
ENDCHAR
STARTCHAR 2124
ENCODING 8484
SWIDTH	-8531 0
DWIDTH	26 0
BBX 26	27 0 -1
BITMAP
00000000
00000000
00000000
00000000
00000000
00000000
00000000
00000000
00000000
00000000
00000000
00000000
00000000
00000000
00000000
00000000
00000000
00000000
03000000
07800000
07800000
03800000
01800000
03000000
06000000
00000000
00000000
ENDCHAR
STARTCHAR 2125
ENCODING 8485
SWIDTH	-8531 0
DWIDTH	26 0
BBX 26	27 0 -1
BITMAP
00000000
00000000
00000000
00000000
00000000
00000000
00000000
00000000
00000000
00000000
00000000
00000000
00000000
00000000
00000000
00000000
00000000
00000000
00000000
03000000
07800000
07800000
03000000
00000000
00000000
00000000
00000000
ENDCHAR
STARTCHAR 2126
ENCODING 8486
SWIDTH	-8531 0
DWIDTH	26 0
BBX 26	27 0 -1
BITMAP
00000000
00000000
00000000
00000000
00000000
00000000
00000000
00000000
00000000
00000000
000c0000
001e0000
003f0000
003f0000
001e0000
000c0000
00000000
00000000
00000000
00000000
00000000
00000000
00000000
00000000
00000000
00000000
00000000
ENDCHAR
STARTCHAR 2127
ENCODING 8487
SWIDTH	-8531 0
DWIDTH	26 0
BBX 26	27 0 -1
BITMAP
00000000
00000000
00000000
00000000
00000000
00000000
00000000
000c0000
001e0000
001e0000
000c0000
00000000
00000000
00000000
00000000
000c0000
001e0000
001e0000
000c0000
00000000
00000000
00000000
00000000
00000000
00000000
00000000
00000000
ENDCHAR
STARTCHAR 2128
ENCODING 8488
SWIDTH	-8531 0
DWIDTH	26 0
BBX 26	27 0 -1
BITMAP
00000000
00000000
00000000
00000000
00000000
00000000
00000000
000c0000
001e0000
001e0000
000c0000
00000000
00000000
00000000
00000000
000c0000
001e0000
001e0000
000e0000
00060000
000c0000
00180000
00000000
00000000
00000000
00000000
00000000
ENDCHAR
STARTCHAR 2129
ENCODING 8489
SWIDTH	-8531 0
DWIDTH	26 0
BBX 26	27 0 -1
BITMAP
00000000
00000000
003e0000
00e38000
0180c000
03006000
03806000
03806000
01006000
0000c000
00018000
00030000
00060000
00040000
000c0000
00080000
00080000
00080000
00000000
00000000
00080000
001c0000
001c0000
00080000
00000000
00000000
00000000
ENDCHAR
STARTCHAR 212a
ENCODING 8490
SWIDTH	-8531 0
DWIDTH	26 0
BBX 26	27 0 -1
BITMAP
00000000
00000000
001c0000
001c0000
003e0000
003e0000
003e0000
003e0000
003e0000
003e0000
001c0000
001c0000
001c0000
001c0000
001c0000
00080000
00080000
00080000
00000000
00000000
00080000
001c0000
001c0000
00080000
00000000
00000000
00000000
ENDCHAR
STARTCHAR 212b
ENCODING 8491
SWIDTH	-8531 0
DWIDTH	26 0
BBX 26	27 0 -1
BITMAP
00000000
00000000
03000000
30c00000
0c600000
06700000
07300000
03000000
00000000
00000000
00000000
00000000
00000000
00000000
00000000
00000000
00000000
00000000
00000000
00000000
00000000
00000000
00000000
00000000
00000000
00000000
00000000
ENDCHAR
STARTCHAR 212c
ENCODING 8492
SWIDTH	-8531 0
DWIDTH	26 0
BBX 26	27 0 -1
BITMAP
00000000
07800000
08400000
10200000
10200000
10200000
10200000
08400000
07800000
00000000
00000000
00000000
00000000
00000000
00000000
00000000
00000000
00000000
00000000
00000000
00000000
00000000
00000000
00000000
00000000
00000000
00000000
ENDCHAR
STARTCHAR 212d
ENCODING 8493
SWIDTH	-8531 0
DWIDTH	26 0
BBX 26	27 0 -1
BITMAP
00000000
00030000
00078000
001c0000
00700000
00000000
00000000
00000000
00000000
00000000
00000000
00000000
00000000
00000000
00000000
00000000
00000000
00000000
00000000
00000000
00000000
00000000
00000000
00000000
00000000
00000000
00000000
ENDCHAR
STARTCHAR 212e
ENCODING 8494
SWIDTH	-8531 0
DWIDTH	26 0
BBX 26	27 0 -1
BITMAP
00000000
00300000
00780000
001e0000
00038000
00000000
00000000
00000000
00000000
00000000
00000000
00000000
00000000
00000000
00000000
00000000
00000000
00000000
00000000
00000000
00000000
00000000
00000000
00000000
00000000
00000000
00000000
ENDCHAR
STARTCHAR 212f
ENCODING 8495
SWIDTH	-8531 0
DWIDTH	26 0
BBX 26	27 0 -1
BITMAP
00000000
00000000
01806000
03c0f000
03c0f000
01806000
00000000
00000000
00000000
00000000
00000000
00000000
00000000
00000000
00000000
00000000
00000000
00000000
00000000
00000000
00000000
00000000
00000000
00000000
00000000
00000000
00000000
ENDCHAR
STARTCHAR 2130
ENCODING 8496
SWIDTH	-8531 0
DWIDTH	26 0
BBX 26	27 0 -1
BITMAP
00000000
00000000
000c0000
001e0000
00330000
00618000
00c0c000
00804000
00000000
00000000
00000000
00000000
00000000
00000000
00000000
00000000
00000000
00000000
00000000
00000000
00000000
00000000
00000000
00000000
00000000
00000000
00000000
ENDCHAR
STARTCHAR 2131
ENCODING 8497
SWIDTH	-8531 0
DWIDTH	26 0
BBX 26	27 0 -1
BITMAP
00000000
7fffff80
00000000
00000000
00000000
00000000
00000000
00000000
00000000
00000000
00000000
00000000
00000000
00000000
00000000
00000000
00000000
00000000
00000000
00000000
00000000
00000000
00000000
00000000
00000000
00000000
00000000
ENDCHAR
STARTCHAR 2132
ENCODING 8498
SWIDTH	-8531 0
DWIDTH	26 0
BBX 26	27 0 -1
BITMAP
00000000
00000000
00000000
00000000
00000000
00000000
00000000
00000000
00000000
00000000
00000000
00000000
00000000
00000000
00000000
00000000
00000000
00000000
00000000
00000000
00000000
00000000
00000000
00000000
7fffff80
00000000
00000000
ENDCHAR
STARTCHAR 2133
ENCODING 8499
SWIDTH	-8531 0
DWIDTH	26 0
BBX 26	27 0 -1
BITMAP
00000000
00000000
00000000
00000000
00000000
00000000
00000000
01800000
00600000
00300000
00180000
000c0000
000e0000
00060000
00070000
00038000
00038000
00030000
00000000
00000000
00000000
00000000
00000000
00000000
00000000
00000000
00000000
ENDCHAR
STARTCHAR 2134
ENCODING 8500
SWIDTH	-8531 0
DWIDTH	26 0
BBX 26	27 0 -1
BITMAP
00000000
00000000
00000000
00000000
0000c000
00006000
00063000
06030000
01818000
00c00000
00600000
00300000
00380000
00180000
001c0000
000e0000
000e0000
000c0000
00000000
00000000
00000000
00000000
00000000
00000000
00000000
00000000
00000000
ENDCHAR
STARTCHAR 2135
ENCODING 8501
SWIDTH	-8531 0
DWIDTH	26 0
BBX 26	27 0 -1
BITMAP
00000000
00000000
00000000
00000000
00000000
00000000
00000000
00000000
00800000
00400000
00600000
00300000
00180000
000c0000
00070000
0001c000
0000e000
0007e000
003c0000
00000000
00000000
00000000
00000000
00000000
00000000
00000000
00000000
ENDCHAR
STARTCHAR 2136
ENCODING 8502
SWIDTH	-8531 0
DWIDTH	26 0
BBX 26	27 0 -1
BITMAP
00000000
00000000
00000000
00000000
00000000
00000000
00000000
0000c000
01006000
00833000
00c18000
0060c000
00300000
00180000
000e0000
00038000
0001c000
000fc000
00780000
00000000
00000000
00000000
00000000
00000000
00000000
00000000
00000000
ENDCHAR
STARTCHAR 2137
ENCODING 8503
SWIDTH	-8531 0
DWIDTH	26 0
BBX 26	27 0 -1
BITMAP
00000000
00000000
00000000
00000000
00000000
00000000
00000000
0060c000
0070e000
0060c000
0060c000
0060c000
00c18000
00c18000
00810000
01830000
01020000
02040000
04080000
00000000
00000000
00000000
00000000
00000000
00000000
00000000
00000000
ENDCHAR
STARTCHAR 2138
ENCODING 8504
SWIDTH	-8531 0
DWIDTH	26 0
BBX 26	27 0 -1
BITMAP
00000000
000e0000
000c0000
001c0000
001a0000
003b0000
00718000
00e0c000
01806000
03003000
06001800
0c000e00
10006780
67fff300
000c0000
000c0000
000c0000
000c0000
000c0000
000c0000
000c0200
000c0700
7fffff80
00000000
00000000
00000000
00000000
ENDCHAR
STARTCHAR 2139
ENCODING 8505
SWIDTH	-8531 0
DWIDTH	26 0
BBX 26	27 0 -1
BITMAP
00000000
00000000
00000000
00000000
00300000
00180000
00180000
00301000
0020f800
007f9c00
00603800
00c03000
00806000
01806000
0300c000
02318000
040a0000
08060000
00030000
00018000
0001c000
0000c000
00000000
00000000
00000000
00000000
00000000
ENDCHAR
STARTCHAR 213a
ENCODING 8506
SWIDTH	-8531 0
DWIDTH	26 0
BBX 26	27 0 -1
BITMAP
00000000
00000000
00000000
00000000
00006000
00003000
00003000
00003000
00006000
0030e000
00ccc000
01078000
02030000
02060000
04070000
040d8000
0419c000
0c30c000
0c60e000
0dc0c000
1f000000
0c000000
00000000
00000000
00000000
00000000
00000000
ENDCHAR
STARTCHAR 213b
ENCODING 8507
SWIDTH	-8531 0
DWIDTH	26 0
BBX 26	27 0 -1
BITMAP
00000000
00000000
00000000
00000000
00000000
00000000
007f8000
03c0f000
0e001c00
18000600
10000200
30000300
20000100
20000100
30000300
10000200
18000600
0e001c00
03c0f000
007f8000
00000000
00000000
00000000
00000000
00000000
00000000
00000000
ENDCHAR
STARTCHAR 213c
ENCODING 8508
SWIDTH	-8531 0
DWIDTH	26 0
BBX 26	27 0 -1
BITMAP
00000000
00000000
00000000
00000000
00000000
00000000
00000000
00000000
00000000
00000000
30003c00
1ffffe00
0f000300
00000000
00000000
00000000
00000000
00000000
00000000
00000000
00000000
00000000
00000000
00000000
00000000
00000000
00000000
ENDCHAR
STARTCHAR 213d
ENCODING 8509
SWIDTH	-8531 0
DWIDTH	26 0
BBX 26	27 0 -1
BITMAP
00000000
00000000
00000000
00000000
00000000
00000000
00000000
00000000
00000000
00000000
00000000
00000000
07fff800
07fff800
00000000
00000000
00000000
00000000
00000000
00000000
00000000
00000000
00000000
00000000
00000000
00000000
00000000
ENDCHAR
STARTCHAR 213e
ENCODING 8510
SWIDTH	-8531 0
DWIDTH	26 0
BBX 26	27 0 -1
BITMAP
00000000
00000000
00000000
00000000
00000000
00000000
00000000
00000000
00000000
00000000
00000000
00000000
007f8000
007f8000
00000000
00000000
00000000
00000000
00000000
00000000
00000000
00000000
00000000
00000000
00000000
00000000
00000000
ENDCHAR
STARTCHAR 213f
ENCODING 8511
SWIDTH	-8531 0
DWIDTH	26 0
BBX 26	27 0 -1
BITMAP
00000000
00000180
00000300
00000600
00000c00
00001800
00003000
00006000
0000c000
00018000
00030000
00060000
000c0000
00180000
00300000
00600000
00c00000
01800000
03000000
06000000
0c000000
18000000
30000000
60000000
40000000
00000000
00000000
ENDCHAR
STARTCHAR 2140
ENCODING 8512
SWIDTH	-8531 0
DWIDTH	26 0
BBX 26	27 0 -1
BITMAP
00000000
60000000
30000000
18000000
0c000000
06000000
03000000
01800000
00c00000
00600000
00300000
00180000
000c0000
00060000
00030000
00018000
0000c000
00006000
00003000
00001800
00000c00
00000600
00000300
00000180
00000080
00000000
00000000
ENDCHAR
STARTCHAR 2141
ENCODING 8513
SWIDTH	-8531 0
DWIDTH	26 0
BBX 26	27 0 -1
BITMAP
00000000
00000000
00000000
00000000
00000000
00000000
00000000
00000000
00000000
00000000
07c00000
1ff00000
303c0180
600f0300
0003fe00
0000f800
00000000
00000000
00000000
00000000
00000000
00000000
00000000
00000000
00000000
00000000
00000000
ENDCHAR
STARTCHAR 2142
ENCODING 8514
SWIDTH	-8531 0
DWIDTH	26 0
BBX 26	27 0 -1
BITMAP
00000000
00330000
00330000
00330000
00330000
00330000
00330000
00330000
00330000
00330000
00330000
00330000
00330000
00330000
00330000
00330000
00330000
00330000
00330000
00330000
00330000
00330000
00330000
00330000
00330000
00000000
00000000
ENDCHAR
STARTCHAR 2143
ENCODING 8515
SWIDTH	-8531 0
DWIDTH	26 0
BBX 26	27 0 -1
BITMAP
00000000
000c0000
000c0000
000c0000
000c0000
000c0000
000c0000
000c0000
000c0000
000c0000
000c0000
000c0000
000c0000
000c0000
000c0000
000c0000
000c0000
000c0000
000c0000
000c0000
000c0000
000c0000
000c0000
000c0000
000c0000
00000000
00000000
ENDCHAR
STARTCHAR 2144
ENCODING 8516
SWIDTH	-8531 0
DWIDTH	26 0
BBX 26	27 0 -1
BITMAP
00000000
00000000
00000000
00000000
00000000
00000000
00000000
00000000
00000000
00000000
180c0600
3c1e0f00
180c0600
00000000
00000000
00000000
00000000
00000000
00000000
00000000
00000000
00000000
00000000
00000000
00000000
00000000
00000000
ENDCHAR
STARTCHAR 2145
ENCODING 8517
SWIDTH	-8531 0
DWIDTH	26 0
BBX 26	27 0 -1
BITMAP
00000000
00000000
00000000
00000000
00000000
00000000
00000000
00000000
00000000
00000000
01806000
03c0f000
01806000
00000000
00000000
00000000
00000000
00000000
00000000
00000000
00000000
00000000
00000000
00000000
00000000
00000000
00000000
ENDCHAR
STARTCHAR 2146
ENCODING 8518
SWIDTH	-8531 0
DWIDTH	26 0
BBX 26	27 0 -1
BITMAP
00000000
00000600
00001800
00003000
00006000
00007800
00007c00
00007c00
00003800
00000000
00000000
00000000
00000000
00000000
00000000
00000000
00000000
00000000
00000000
00000000
00000000
00000000
00000000
00000000
00000000
00000000
00000000
ENDCHAR
STARTCHAR 2147
ENCODING 8519
SWIDTH	-8531 0
DWIDTH	26 0
BBX 26	27 0 -1
BITMAP
00000000
07000000
0f800000
0f800000
07800000
01800000
03000000
06000000
18000000
00000000
00000000
00000000
00000000
00000000
00000000
00000000
00000000
00000000
00000000
00000000
00000000
00000000
00000000
00000000
00000000
00000000
00000000
ENDCHAR
STARTCHAR 2148
ENCODING 8520
SWIDTH	-8531 0
DWIDTH	26 0
BBX 26	27 0 -1
BITMAP
00000000
0000c300
00018600
00030c00
00071c00
00079e00
00079e00
00030c00
00000000
00000000
00000000
00000000
00000000
00000000
00000000
00000000
00000000
00000000
00000000
00000000
00000000
00000000
00000000
00000000
00000000
00000000
00000000
ENDCHAR
STARTCHAR 2149
ENCODING 8521
SWIDTH	-8531 0
DWIDTH	26 0
BBX 26	27 0 -1
BITMAP
00000000
0c300000
1e780000
1e780000
0e380000
0c300000
18600000
30c00000
00000000
00000000
00000000
00000000
00000000
00000000
00000000
00000000
00000000
00000000
00000000
00000000
00000000
00000000
00000000
00000000
00000000
00000000
00000000
ENDCHAR
STARTCHAR 214a
ENCODING 8522
SWIDTH	-8531 0
DWIDTH	26 0
BBX 26	27 0 -1
BITMAP
00000000
00000100
00000200
00000400
00000c00
00000800
00001800
00001800
00003000
00003000
00003000
00003000
00003000
00003000
00003000
00003000
00003000
00003000
00001800
00001800
00000800
00000c00
00000400
00000200
00000100
00000000
00000000
ENDCHAR
STARTCHAR 214b
ENCODING 8523
SWIDTH	-8531 0
DWIDTH	26 0
BBX 26	27 0 -1
BITMAP
00000000
20000000
10000000
08000000
0c000000
04000000
06000000
06000000
03000000
03000000
03000000
03000000
03000000
03000000
03000000
03000000
03000000
03000000
06000000
06000000
04000000
0c000000
08000000
10000000
20000000
00000000
00000000
ENDCHAR
STARTCHAR 214c
ENCODING 8524
SWIDTH	-8531 0
DWIDTH	26 0
BBX 26	27 0 -1
BITMAP
00000000
00000e00
00003800
0000e000
00008000
00008000
00008000
00008000
00008000
00008000
00008000
00008000
00008000
00008000
00008000
00008000
00008000
00008000
00008000
00008000
00008000
00008000
0000e000
00003800
00000e00
00000000
00000000
ENDCHAR
STARTCHAR 214d
ENCODING 8525
SWIDTH	-8531 0
DWIDTH	26 0
BBX 26	27 0 -1
BITMAP
00000000
1c000000
07000000
01c00000
00400000
00400000
00400000
00400000
00400000
00400000
00400000
00400000
00400000
00400000
00400000
00400000
00400000
00400000
00400000
00400000
00400000
00400000
01c00000
07000000
1c000000
00000000
00000000
ENDCHAR
STARTCHAR 214e
ENCODING 8526
SWIDTH	-8531 0
DWIDTH	26 0
BBX 26	27 0 -1
BITMAP
00000000
00007e00
00004000
00004000
00004000
00004000
00004000
00004000
00004000
00004000
00004000
00004000
00004000
00004000
00004000
00004000
00004000
00004000
00004000
00004000
00004000
00004000
00004000
00004000
00007e00
00000000
00000000
ENDCHAR
STARTCHAR 214f
ENCODING 8527
SWIDTH	-8531 0
DWIDTH	26 0
BBX 26	27 0 -1
BITMAP
00000000
1f800000
00800000
00800000
00800000
00800000
00800000
00800000
00800000
00800000
00800000
00800000
00800000
00800000
00800000
00800000
00800000
00800000
00800000
00800000
00800000
00800000
00800000
00800000
1f800000
00000000
00000000
ENDCHAR
STARTCHAR 2150
ENCODING 8528
SWIDTH	-8531 0
DWIDTH	26 0
BBX 26	27 0 -1
BITMAP
00000000
00000f00
00001800
00003000
00003000
00003000
00003000
00003000
00003000
00003000
00003000
00006000
0000c000
0000c000
00006000
00003000
00003000
00003000
00003000
00003000
00003000
00003000
00003000
00001800
00000f00
00000000
00000000
ENDCHAR
STARTCHAR 2151
ENCODING 8529
SWIDTH	-8531 0
DWIDTH	26 0
BBX 26	27 0 -1
BITMAP
00000000
3c000000
06000000
03000000
03000000
03000000
03000000
03000000
03000000
03000000
03000000
01800000
00c00000
00c00000
01800000
03000000
03000000
03000000
03000000
03000000
03000000
03000000
03000000
06000000
3c000000
00000000
00000000
ENDCHAR
STARTCHAR 2152
ENCODING 8530
SWIDTH	-8531 0
DWIDTH	26 0
BBX 26	27 0 -1
BITMAP
00000000
00000200
00000600
00000400
00000c00
00000800
00001800
00001000
00003000
00002000
00006000
00004000
00008000
00008000
00004000
00006000
00002000
00003000
00001000
00001800
00000800
00000c00
00000400
00000600
00000200
00000000
00000000
ENDCHAR
STARTCHAR 2153
ENCODING 8531
SWIDTH	-8531 0
DWIDTH	26 0
BBX 26	27 0 -1
BITMAP
00000000
10000000
18000000
08000000
0c000000
04000000
06000000
02000000
03000000
01000000
01800000
00800000
00400000
00400000
00800000
01800000
01000000
03000000
02000000
06000000
04000000
0c000000
08000000
18000000
10000000
00000000
00000000
ENDCHAR
STARTCHAR 2154
ENCODING 8532
SWIDTH	-8531 0
DWIDTH	26 0
BBX 26	27 0 -1
BITMAP
00000000
00002200
00006600
00004400
0000cc00
00008800
00019800
00011000
00033000
00022000
00066000
00044000
00088000
00088000
00044000
00066000
00022000
00033000
00011000
00019800
00008800
0000cc00
00004400
00006600
00002200
00000000
00000000
ENDCHAR
STARTCHAR 2155
ENCODING 8533
SWIDTH	-8531 0
DWIDTH	26 0
BBX 26	27 0 -1
BITMAP
00000000
11000000
19800000
08800000
0cc00000
04400000
06600000
02200000
03300000
01100000
01980000
00880000
00440000
00440000
00880000
01980000
01100000
03300000
02200000
06600000
04400000
0cc00000
08800000
19800000
11000000
00000000
00000000
ENDCHAR
STARTCHAR 2156
ENCODING 8534
SWIDTH	-8531 0
DWIDTH	26 0
BBX 26	27 0 -1
BITMAP
00000000
0003fe00
00020000
00020000
00020000
00020000
00020000
00020000
00020000
00020000
00020000
00020000
00020000
00020000
00020000
00020000
00000000
00000000
00000000
00000000
00000000
00000000
00000000
00000000
00000000
00000000
00000000
ENDCHAR
STARTCHAR 2157
ENCODING 8535
SWIDTH	-8531 0
DWIDTH	26 0
BBX 26	27 0 -1
BITMAP
00000000
00000000
00000000
00000000
00000000
00000000
00000000
00000000
00000000
00000000
00100000
00100000
00100000
00100000
00100000
00100000
00100000
00100000
00100000
00100000
00100000
00100000
00100000
00100000
1ff00000
00000000
00000000
ENDCHAR
STARTCHAR 2158
ENCODING 8536
SWIDTH	-8531 0
DWIDTH	26 0
BBX 26	27 0 -1
BITMAP
00000000
0003fe00
00020200
00020200
00027e00
00024000
00024000
00024000
00024000
00024000
00024000
00024000
00024000
00024000
00024000
00024000
00024000
0003c000
00000000
00000000
00000000
00000000
00000000
00000000
00000000
00000000
00000000
ENDCHAR
STARTCHAR 2159
ENCODING 8537
SWIDTH	-8531 0
DWIDTH	26 0
BBX 26	27 0 -1
BITMAP
00000000
00000000
00000000
00000000
00000000
00000000
00000000
00000000
00f00000
00900000
00900000
00900000
00900000
00900000
00900000
00900000
00900000
00900000
00900000
00900000
00900000
1f900000
10100000
10100000
1ff00000
00000000
00000000
ENDCHAR
STARTCHAR 215a
ENCODING 8538
SWIDTH	-8531 0
DWIDTH	26 0
BBX 26	27 0 -1
BITMAP
00000000
0001fe00
0001fc00
0001f800
0001f000
0001e000
0001e000
0001c000
0001c000
0001c000
00018000
00018000
00018000
00018000
00018000
00018000
0001c000
0001c000
0001c000
0001e000
0001e000
0001f000
0001f800
0001fc00
0001fe00
00000000
00000000
ENDCHAR
STARTCHAR 215b
ENCODING 8539
SWIDTH	-8531 0
DWIDTH	26 0
BBX 26	27 0 -1
BITMAP
00000000
1fe00000
0fe00000
07e00000
03e00000
01e00000
01e00000
00e00000
00e00000
00e00000
00600000
00600000
00600000
00600000
00600000
00600000
00e00000
00e00000
00e00000
01e00000
01e00000
03e00000
07e00000
0fe00000
1fe00000
00000000
00000000
ENDCHAR
STARTCHAR 215c
ENCODING 8540
SWIDTH	-8531 0
DWIDTH	26 0
BBX 26	27 0 -1
BITMAP
00000000
00000000
00000000
00000000
000c0000
000c0000
000c0000
000c0000
000c0000
000c0000
000c0000
000c0000
0ffffc00
0ffffc00
000c0000
000c0000
000c0000
000c0000
000c0000
000c0000
000c0000
000c0000
00000000
00000000
00000000
00000000
00000000
ENDCHAR
STARTCHAR 215d
ENCODING 8541
SWIDTH	-8531 0
DWIDTH	26 0
BBX 26	27 0 -1
BITMAP
00000000
00000000
00000000
00000000
00000000
00000000
00000000
00000000
00000000
00000000
00000000
00000000
0ffffc00
0ffffc00
00000000
00000000
00000000
00000000
00000000
00000000
00000000
00000000
00000000
00000000
00000000
00000000
00000000
ENDCHAR
STARTCHAR 215e
ENCODING 8542
SWIDTH	-8531 0
DWIDTH	26 0
BBX 26	27 0 -1
BITMAP
00000000
00000000
00000000
000c0000
000c0000
000c0000
000c0000
000c0000
000c0000
000c0000
000c0000
0ffffc00
0ffffc00
000c0000
000c0000
000c0000
000c0000
000c0000
000c0000
000c0000
00000000
0ffffc00
0ffffc00
00000000
00000000
00000000
00000000
ENDCHAR
STARTCHAR 215f
ENCODING 8543
SWIDTH	-8531 0
DWIDTH	26 0
BBX 26	27 0 -1
BITMAP
00000000
00000000
00000000
00000000
00000000
06001800
03003000
01806000
00c0c000
00618000
00330000
001e0000
000c0000
001e0000
00330000
00618000
00c0c000
01806000
03003000
06001800
00000000
00000000
00000000
00000000
00000000
00000000
00000000
ENDCHAR
STARTCHAR 2160
ENCODING 8544
SWIDTH	-8531 0
DWIDTH	26 0
BBX 26	27 0 -1
BITMAP
00000000
00000000
00000000
00000000
000c0000
001e0000
001e0000
000c0000
00000000
00000000
00000000
00000000
1ffffe00
1ffffe00
00000000
00000000
00000000
00000000
000c0000
001e0000
001e0000
000c0000
00000000
00000000
00000000
00000000
00000000
ENDCHAR
STARTCHAR 2161
ENCODING 8545
SWIDTH	-8531 0
DWIDTH	26 0
BBX 26	27 0 -1
BITMAP
00000000
00000000
00000000
00000000
00000000
00000000
00000000
00000000
00000000
0ffffc00
0ffffc00
00000000
00000000
00000000
00000000
0ffffc00
0ffffc00
00000000
00000000
00000000
00000000
00000000
00000000
00000000
00000000
00000000
00000000
ENDCHAR
STARTCHAR 2162
ENCODING 8546
SWIDTH	-8531 0
DWIDTH	26 0
BBX 26	27 0 -1
BITMAP
00000000
00000000
00004000
00004000
0000c000
00008000
00018000
00010000
00030000
0ffffc00
0ffffc00
00040000
000c0000
00080000
00180000
0ffffc00
0ffffc00
00200000
00600000
00400000
00c00000
00800000
01800000
01000000
00000000
00000000
00000000
ENDCHAR
STARTCHAR 2163
ENCODING 8547
SWIDTH	-8531 0
DWIDTH	26 0
BBX 26	27 0 -1
BITMAP
00000000
00000000
00000000
00000000
00000c00
00003800
0000e000
00038000
000e0000
00380000
00e00000
03800000
0e000000
18000000
0e000000
03800000
00e00000
00380000
000e0000
00038000
0000e000
00003800
00000c00
00000000
00000000
00000000
00000000
ENDCHAR
STARTCHAR 2164
ENCODING 8548
SWIDTH	-8531 0
DWIDTH	26 0
BBX 26	27 0 -1
BITMAP
00000000
00000000
00000000
00000000
18000000
0e000000
03800000
00e00000
00380000
000e0000
00038000
0000e000
00003800
00000c00
00003800
0000e000
00038000
000e0000
00380000
00e00000
03800000
0e000000
18000000
00000000
00000000
00000000
00000000
ENDCHAR
STARTCHAR 2165
ENCODING 8549
SWIDTH	-8531 0
DWIDTH	26 0
BBX 26	27 0 -1
BITMAP
00000000
00000000
00000000
00000c00
00007800
0003c000
001e0000
00f00000
07800000
1c000000
07800000
00f00000
001e0000
0003c000
00007800
00000c00
00000000
0ffffc00
0ffffc00
00000000
00000000
0ffffc00
0ffffc00
00000000
00000000
00000000
00000000
ENDCHAR
STARTCHAR 2166
ENCODING 8550
SWIDTH	-8531 0
DWIDTH	26 0
BBX 26	27 0 -1
BITMAP
00000000
00000000
00000000
0c000000
07800000
00f00000
001e0000
0003c000
00007800
00000e00
00007800
0003c000
001e0000
00f00000
07800000
0c000000
00000000
0ffffc00
0ffffc00
00000000
00000000
0ffffc00
0ffffc00
00000000
00000000
00000000
00000000
ENDCHAR
STARTCHAR 2167
ENCODING 8551
SWIDTH	-8531 0
DWIDTH	26 0
BBX 26	27 0 -1
BITMAP
00000000
00000000
00000000
00000000
00000000
00000000
00000000
00000000
07807800
08408400
10210200
20120100
200c0100
200c0100
20120100
10210200
08408400
07807800
00000000
00000000
00000000
00000000
00000000
00000000
00000000
00000000
00000000
ENDCHAR
STARTCHAR 2168
ENCODING 8552
SWIDTH	-8531 0
DWIDTH	26 0
BBX 26	27 0 -1
BITMAP
00000000
00000000
00000000
00000000
000c0000
001e0000
001e0000
000c0000
00000000
00000000
00000000
00000000
00000000
00000000
00000000
00000000
00000000
0c000c00
1e001e00
1e001e00
0c000c00
00000000
00000000
00000000
00000000
00000000
00000000
ENDCHAR
STARTCHAR 2169
ENCODING 8553
SWIDTH	-8531 0
DWIDTH	26 0
BBX 26	27 0 -1
BITMAP
00000000
00000000
000c0000
001e0000
003f0000
006d8000
00ccc000
018c6000
030c3000
060c1800
0c0c0c00
000c0000
000c0000
000c0000
001e0000
007f8000
00e1c000
00c0c000
01806000
01806000
01806000
00c0c000
00e1c000
007f8000
001e0000
00000000
00000000
ENDCHAR
STARTCHAR 216a
ENCODING 8554
SWIDTH	-8531 0
DWIDTH	26 0
BBX 26	27 0 -1
BITMAP
00000000
00000000
001e0000
007f8000
00e1c000
00c0c000
01806000
01806000
01806000
01806000
00c0c000
00e1c000
007f8000
001e0000
000c0000
000c0000
1ffffe00
1ffffe00
000c0000
000c0000
000c0000
000c0000
000c0000
000c0000
000c0000
00000000
00000000
ENDCHAR
STARTCHAR 216b
ENCODING 8555
SWIDTH	-8531 0
DWIDTH	26 0
BBX 26	27 0 -1
BITMAP
00000000
00000000
0f000000
10800000
10800000
10800000
10800000
0f000000
00000000
00000000
00000000
00000000
00000000
00000000
00000000
00000000
00000000
00000000
00000000
00000000
00000000
00000000
00000000
00000000
00000000
00000000
00000000
ENDCHAR
STARTCHAR 216c
ENCODING 8556
SWIDTH	-8531 0
DWIDTH	26 0
BBX 26	27 0 -1
BITMAP
00000000
00000000
0c000000
0c000000
0c000000
18000000
18000000
10000000
20000000
00000000
00000000
00000000
00000000
00000000
00000000
00000000
00000000
00000000
00000000
00000000
00000000
00000000
00000000
00000000
00000000
00000000
00000000
ENDCHAR
STARTCHAR 216d
ENCODING 8557
SWIDTH	-8531 0
DWIDTH	26 0
BBX 26	27 0 -1
BITMAP
00000000
00000000
19800000
19800000
19800000
33000000
33000000
22000000
44000000
00000000
00000000
00000000
00000000
00000000
00000000
00000000
00000000
00000000
00000000
00000000
00000000
00000000
00000000
00000000
00000000
00000000
00000000
ENDCHAR
STARTCHAR 216e
ENCODING 8558
SWIDTH	-8531 0
DWIDTH	26 0
BBX 26	27 0 -1
BITMAP
00000000
00000000
0f000000
10800000
1083c000
108c3200
10981a00
0f300e00
00600600
00600600
00e00200
00c00200
00c00000
00c00000
00c00000
00c00000
00c00000
00e00000
00600200
00600200
00300400
00180800
000c3000
0003c000
00000000
00000000
00000000
ENDCHAR
STARTCHAR 216f
ENCODING 8559
SWIDTH	-8531 0
DWIDTH	26 0
BBX 26	27 0 -1
BITMAP
00000000
00000000
00000000
1f807e00
06000800
03001000
01802000
00c04000
00608000
00310000
001e0000
000c0000
0ffffc00
000c0000
000c0000
000c0000
0ffffc00
000c0000
000c0000
000c0000
000c0000
000c0000
007f8000
00000000
00000000
00000000
00000000
ENDCHAR
STARTCHAR 2170
ENCODING 8560
SWIDTH	-8531 0
DWIDTH	26 0
BBX 26	27 0 -1
BITMAP
00000000
000c0000
000c0000
007f8000
00ccc000
018c6000
018ce000
018ce000
018c4000
01cc0000
00ec0000
007e0000
001f8000
000dc000
000ce000
000c7000
010c3000
038c3000
038c3000
030c6000
018c6000
00ccc000
007f8000
000c0000
000c0000
00000000
00000000
ENDCHAR
STARTCHAR 2171
ENCODING 8561
SWIDTH	-8531 0
DWIDTH	26 0
BBX 26	27 0 -1
BITMAP
00000000
00004000
00004000
00004000
001fe000
00319000
00611800
00c13800
01833800
01821000
03020000
03060000
03040000
03040000
030c0000
03080000
03080000
03182000
01902000
01b04000
00e18000
007e0000
00400000
00c00000
00800000
00000000
00000000
ENDCHAR
STARTCHAR 2172
ENCODING 8562
SWIDTH	-8531 0
DWIDTH	26 0
BBX 26	27 0 -1
BITMAP
00000000
00000000
00000000
000fc000
00386000
00607000
0060f000
00e0f000
00c06000
00c00000
00c00000
0fff0000
00c00000
00e00000
00600000
00600000
07e00000
0c700400
18780400
186c0800
18671800
0c63f000
07c0e000
00000000
00000000
00000000
00000000
ENDCHAR
STARTCHAR 2173
ENCODING 8563
SWIDTH	-8531 0
DWIDTH	26 0
BBX 26	27 0 -1
BITMAP
00000000
00000180
07c00300
0c600600
18300c00
30301800
30303000
60306000
6030c000
60618000
60630000
60c60000
318c7c00
1f18c600
00318300
00630300
00c30300
01860300
03060300
06060600
0c060600
18060c00
30031800
6001f000
40000000
00000000
00000000
ENDCHAR
STARTCHAR 2174
ENCODING 8564
SWIDTH	-8531 0
DWIDTH	26 0
BBX 26	27 0 -1
BITMAP
00000000
00000000
0000c000
00c0c000
00c0c000
00c0c000
00c0c000
00c0fc00
00ffc000
0fc0c000
00c0c000
00c0c000
00c0c000
00c0c000
00c0c000
00c0c000
00c0fc00
00ffc000
0fc0c000
00c0c000
00c0c000
00c0c000
00c0c000
00c00000
00000000
00000000
00000000
ENDCHAR
STARTCHAR 2175
ENCODING 8565
SWIDTH	-8531 0
DWIDTH	26 0
BBX 26	27 0 -1
BITMAP
00000000
00000000
00000000
00f80000
018c0000
03060000
03060000
03060000
03060000
019c0000
00f00000
01c00000
03600000
0730f800
06382000
0e1c2000
0c0c6000
0c064000
0e07c000
06038000
0701c000
03c6e000
00fc3c00
00000000
00000000
00000000
00000000
ENDCHAR
STARTCHAR 2176
ENCODING 8566
SWIDTH	-8531 0
DWIDTH	26 0
BBX 26	27 0 -1
BITMAP
00000000
00000000
00000000
00000000
00080000
001c0000
001c0000
061c3000
071c7000
0788f000
0388e000
00410000
00000000
00000000
00410000
0388e000
0788f000
071c7000
061c3000
001c0000
001c0000
00080000
00000000
00000000
00000000
00000000
00000000
ENDCHAR
STARTCHAR 2177
ENCODING 8567
SWIDTH	-8531 0
DWIDTH	26 0
BBX 26	27 0 -1
BITMAP
00000000
00000000
00000000
007f8000
01c0e000
03003000
06001800
0c1ec800
0871cc00
18c0c400
10c0c400
1180c400
11818400
11818400
11818c00
11838800
18c59800
0878f000
0c000000
06000800
03003000
01c0e000
007f8000
00000000
00000000
00000000
00000000
ENDCHAR
STARTCHAR 2178
ENCODING 8568
SWIDTH	-8531 0
DWIDTH	26 0
BBX 26	27 0 -1
BITMAP
00000000
00000000
001e0000
00210000
00418000
00438000
00430000
00600000
00380000
001c0000
00670000
00838000
0080c000
00c04000
00704000
00388000
000f0000
00070000
00018000
00008000
00208000
00708000
00708000
00310000
001e0000
00000000
00000000
ENDCHAR
STARTCHAR 2179
ENCODING 8569
SWIDTH	-8531 0
DWIDTH	26 0
BBX 26	27 0 -1
BITMAP
00000000
00080000
00080000
00080000
001c0000
00140000
00360000
00220000
00220000
00630000
7fe1ff80
30000300
1c000e00
06001800
03807000
00c0c000
01804000
01886000
011c2000
01362000
0363a000
03c0f000
03007000
06003000
04001000
00000000
00000000
ENDCHAR
STARTCHAR 217a
ENCODING 8570
SWIDTH	-8531 0
DWIDTH	26 0
BBX 26	27 0 -1
BITMAP
00000000
00080000
00080000
00080000
001c0000
001c0000
003e0000
003e0000
003e0000
007f0000
7fffff80
3fffff00
1ffffe00
07fff800
03fff000
00ffc000
01ffc000
01ffe000
01ffe000
01f7e000
03e3e000
03c0f000
03007000
06003000
04001000
00000000
00000000
ENDCHAR
STARTCHAR 217b
ENCODING 8571
SWIDTH	-8531 0
DWIDTH	26 0
BBX 26	27 0 -1
BITMAP
00000000
00000000
00000000
003f0000
00e1c000
03807000
06001800
04000800
0c000c00
08000400
18000600
10000200
10000200
10000200
10000200
18000600
08000400
0c000c00
04000800
06001800
03807000
00e1c000
003f0000
00000000
00000000
00000000
00000000
ENDCHAR
STARTCHAR 217c
ENCODING 8572
SWIDTH	-8531 0
DWIDTH	26 0
BBX 26	27 0 -1
BITMAP
00000000
00000000
00000000
003f0000
00ffc000
03fff000
07fff800
07fff800
0ffffc00
0ffffc00
1ffffe00
1ffffe00
1ffffe00
1ffffe00
1ffffe00
1ffffe00
0ffffc00
0ffffc00
0ffff800
07fff800
03fff000
00ffc000
003f0000
00000000
00000000
00000000
00000000
ENDCHAR
STARTCHAR 217d
ENCODING 8573
SWIDTH	-8531 0
DWIDTH	26 0
BBX 26	27 0 -1
BITMAP
00000000
00000000
00000000
003f0000
00e1c000
03807000
061e1800
04618800
0cc0cc00
09806400
19002600
12001200
12001200
12001200
12001200
19002600
09806400
0cc0cc00
04618800
061e1800
03807000
00e1c000
003f0000
00000000
00000000
00000000
00000000
ENDCHAR
STARTCHAR 217e
ENCODING 8574
SWIDTH	-8531 0
DWIDTH	26 0
BBX 26	27 0 -1
BITMAP
00000000
00040000
000e0000
001b0000
00318000
0060c000
00c06000
01803000
03001800
06000c00
0c000600
18000300
30000180
18000300
0c000600
06000c00
03001800
01803000
00c06000
0060c000
00318000
001b0000
000e0000
00040000
00000000
00000000
00000000
ENDCHAR
STARTCHAR 2221
ENCODING 8737
SWIDTH	-8531 0
DWIDTH	26 0
BBX 26	27 0 -1
BITMAP
00000000
00040000
000e0000
001f0000
003f8000
007fc000
00ffe000
01fff000
03fff800
07fffc00
0ffffe00
1fffff00
3fffff80
1fffff00
0ffffe00
07fffc00
03fff800
01fff000
00ffe000
007fc000
003f8000
001f0000
000e0000
00040000
00000000
00000000
00000000
ENDCHAR
STARTCHAR 2222
ENCODING 8738
SWIDTH	-8531 0
DWIDTH	26 0
BBX 26	27 0 -1
BITMAP
00000000
00000000
00000000
1ffffe00
10000200
10000200
10000200
10000200
10000200
10000200
10000200
10000200
10000200
10000200
10000200
10000200
10000200
10000200
10000200
10000200
10000200
10000200
1ffffe00
00000000
00000000
00000000
00000000
ENDCHAR
STARTCHAR 2223
ENCODING 8739
SWIDTH	-8531 0
DWIDTH	26 0
BBX 26	27 0 -1
BITMAP
00000000
00000000
00000000
1ffffe00
1ffffe00
1ffffe00
1ffffe00
1ffffe00
1ffffe00
1ffffe00
1ffffe00
1ffffe00
1ffffe00
1ffffe00
1ffffe00
1ffffe00
1ffffe00
1ffffe00
1ffffe00
1ffffe00
1ffffe00
1ffffe00
1ffffe00
00000000
00000000
00000000
00000000
ENDCHAR
STARTCHAR 2224
ENCODING 8740
SWIDTH	-8531 0
DWIDTH	26 0
BBX 26	27 0 -1
BITMAP
00000000
00000000
00080000
001c0000
00360000
00220000
00630000
00410000
00c18000
0180c000
01004000
03006000
02002000
06003000
0c001800
08000800
18000c00
10000400
30000600
20000200
7fffff00
00000000
00000000
00000000
00000000
00000000
00000000
ENDCHAR
STARTCHAR 2225
ENCODING 8741
SWIDTH	-8531 0
DWIDTH	26 0
BBX 26	27 0 -1
BITMAP
00000000
00000000
00080000
001c0000
003e0000
003e0000
007f0000
007f0000
00ff8000
01ffc000
01ffc000
03ffe000
03ffe000
07fff000
0ffff800
0ffff800
1ffffc00
1ffffc00
3ffffe00
3ffffe00
7fffff00
00000000
00000000
00000000
00000000
00000000
00000000
ENDCHAR
STARTCHAR 2226
ENCODING 8742
SWIDTH	-8531 0
DWIDTH	26 0
BBX 26	27 0 -1
BITMAP
00000000
00000000
00000000
00000000
00000000
7fffff00
20000200
30000600
10000400
18000c00
08000800
0c001800
06003000
02002000
03006000
01004000
0180c000
00c18000
00410000
00630000
00220000
00360000
001c0000
00080000
00000000
00000000
00000000
ENDCHAR
STARTCHAR 2227
ENCODING 8743
SWIDTH	-8531 0
DWIDTH	26 0
BBX 26	27 0 -1
BITMAP
00000000
00000000
00000000
00000000
00000000
7fffff00
3ffffe00
3ffffe00
1ffffc00
1ffffc00
0ffff800
0ffff800
07fff000
03ffe000
03ffe000
01ffc000
01ffc000
00ff8000
007f0000
007f0000
003e0000
003e0000
001c0000
00080000
00000000
00000000
00000000
ENDCHAR
STARTCHAR 2228
ENCODING 8744
SWIDTH	-8531 0
DWIDTH	26 0
BBX 26	27 0 -1
BITMAP
00000000
00000000
00000000
00000000
00000000
0c0c0c00
061e1800
031e3000
018c6000
00c0c000
00618000
06331800
0f1e3c00
0f0c3c00
061e1800
00330000
00618000
00c0c000
018c6000
031e3000
061e1800
0c0c0c00
00000000
00000000
00000000
00000000
00000000
ENDCHAR
STARTCHAR 2229
ENCODING 8745
SWIDTH	-8531 0
DWIDTH	26 0
BBX 26	27 0 -1
BITMAP
00000000
00000000
00000000
1ffffe00
1ffffe00
00000000
00000000
00000000
00000000
1ffffe00
1ffffe00
000c0000
000c0000
000c0000
000c0000
000c0000
000c0000
000c0000
000c0000
000c0000
000c0000
000c0000
000c0000
000c0000
000c0000
00000000
00000000
ENDCHAR
STARTCHAR 222a
ENCODING 8746
SWIDTH	-8531 0
DWIDTH	26 0
BBX 26	27 0 -1
BITMAP
00000000
00000000
00000000
00000000
00010000
00018000
0000c000
00006000
00003000
00001800
00000c00
00000600
3fffff00
3fffff00
00000600
00000c00
00001800
00003000
00006000
0000c000
00018000
00010000
00000000
00000000
00000000
00000000
00000000
ENDCHAR
STARTCHAR 222b
ENCODING 8747
SWIDTH	-8531 0
DWIDTH	26 0
BBX 26	27 0 -1
BITMAP
00000000
00000000
00000000
00000000
00200000
00600000
00c00000
01800000
03000000
06000000
0c000000
18000000
3fffff00
3fffff00
18000000
0c000000
06000000
03000000
01800000
00c00000
00600000
00200000
00000000
00000000
00000000
00000000
00000000
ENDCHAR
STARTCHAR 222c
ENCODING 8748
SWIDTH	-8531 0
DWIDTH	26 0
BBX 26	27 0 -1
BITMAP
00000000
00000000
000c0000
001e0000
003f0000
006d8000
00ccc000
018c6000
030c3000
060c1800
0c0c0c00
000c0000
000c0000
000c0000
000c0000
000c0000
000c0000
000c0000
000c0000
000c0000
000c0000
000c0000
000c0000
000c0000
00000000
00000000
00000000
ENDCHAR
STARTCHAR 222d
ENCODING 8749
SWIDTH	-8531 0
DWIDTH	26 0
BBX 26	27 0 -1
BITMAP
00000000
00000000
000c0000
000c0000
000c0000
000c0000
000c0000
000c0000
000c0000
000c0000
000c0000
000c0000
000c0000
000c0000
000c0000
0c0c0c00
060c1800
030c3000
018c6000
00ccc000
006d8000
003f0000
001e0000
000c0000
00000000
00000000
00000000
ENDCHAR
STARTCHAR 222e
ENCODING 8750
SWIDTH	-8531 0
DWIDTH	26 0
BBX 26	27 0 -1
BITMAP
00000000
00000000
00000000
00000000
00000000
00000000
3fffff00
3fffff00
3fffff00
3fffff00
3fffff00
00000000
00000000
00000000
00000000
3fffff00
3fffff00
3fffff00
3fffff00
3fffff00
00000000
00000000
00000000
00000000
00000000
00000000
00000000
ENDCHAR
STARTCHAR 223a
ENCODING 8762
SWIDTH	-8531 0
DWIDTH	26 0
BBX 26	27 0 -1
BITMAP
00000000
00000000
00000000
00000000
00000000
003ff800
00c00000
01000000
02000000
02000000
04000000
04000000
07fff800
04000000
04000000
02000000
02000000
01000000
00c00000
003ff800
00000000
00000000
00000000
00000000
00000000
00000000
00000000
ENDCHAR
STARTCHAR 223b
ENCODING 8763
SWIDTH	-8531 0
DWIDTH	26 0
BBX 26	27 0 -1
BITMAP
00000000
00000000
00000000
00000000
00000000
07ff0000
0000c000
00002000
00001000
00001000
00000800
00000800
07fff800
00000800
00000800
00001000
00001000
00002000
0000c000
07ff0000
00000000
00000000
00000000
00000000
00000000
00000000
00000000
ENDCHAR
STARTCHAR 223c
ENCODING 8764
SWIDTH	-8531 0
DWIDTH	26 0
BBX 26	27 0 -1
BITMAP
00000000
00000000
00000000
00000000
00fffc00
03000000
04000000
04000000
08000000
08000000
08000000
08000000
08000000
04000000
04000000
03000000
00fffc00
00000000
00000000
00000000
0ffffc00
00000000
00000000
00000000
00000000
00000000
00000000
ENDCHAR
STARTCHAR 223d
ENCODING 8765
SWIDTH	-8531 0
DWIDTH	26 0
BBX 26	27 0 -1
BITMAP
00000000
00000000
00000000
00000000
0fffc000
00003000
00000800
00000800
00000400
00000400
00000400
00000400
00000400
00000800
00000800
00003000
0fffc000
00000000
00000000
00000000
0ffffc00
00000000
00000000
00000000
00000000
00000000
00000000
ENDCHAR
STARTCHAR 223e
ENCODING 8766
SWIDTH	-8531 0
DWIDTH	26 0
BBX 26	27 0 -1
BITMAP
00000000
00000000
00000000
00000000
00000000
007ffc00
01800000
02000000
04000000
04000000
08000000
08000000
08000000
08000000
08000000
08000000
04000000
04000000
02000000
01800000
007ffc00
00000000
00000000
00000000
00000000
00000000
00000000
ENDCHAR
STARTCHAR 223f
ENCODING 8767
SWIDTH	-8531 0
DWIDTH	26 0
BBX 26	27 0 -1
BITMAP
00000000
00000000
00000000
00000000
00000000
0fff8000
00006000
00001000
00000800
00000800
00000400
00000400
00000400
00000400
00000400
00000400
00000800
00000800
00001000
00006000
0fff8000
00000000
00000000
00000000
00000000
00000000
00000000
ENDCHAR
STARTCHAR 2240
ENCODING 8768
SWIDTH	-8531 0
DWIDTH	26 0
BBX 26	27 0 -1
BITMAP
00000000
00000000
00000000
00000000
04000800
04000800
04000800
04000800
04000800
04000800
04000800
04000800
04000800
04000800
04000800
04000800
04000800
02001000
02001000
01002000
00c0c000
003f0000
00000000
00000000
00000000
00000000
00000000
ENDCHAR
STARTCHAR 2241
ENCODING 8769
SWIDTH	-8531 0
DWIDTH	26 0
BBX 26	27 0 -1
BITMAP
00000000
00000000
00000000
00000000
003f0000
00c0c000
01002000
02001000
02001000
04000800
04000800
04000800
04000800
04000800
04000800
04000800
04000800
04000800
04000800
04000800
04000800
04000800
00000000
00000000
00000000
00000000
00000000
ENDCHAR
STARTCHAR 224a
ENCODING 8778
SWIDTH	-8531 0
DWIDTH	26 0
BBX 26	27 0 -1
BITMAP
00000000
00000000
00000000
00000000
00080000
00080000
00140000
00140000
00220000
00220000
00410000
00410000
00808000
00808000
01004000
01004000
02002000
02002000
04001000
04001000
08000800
08000800
00000000
00000000
00000000
00000000
00000000
ENDCHAR
STARTCHAR 224b
ENCODING 8779
SWIDTH	-8531 0
DWIDTH	26 0
BBX 26	27 0 -1
BITMAP
00000000
00000000
00000000
00000000
08000800
08000800
04001000
04001000
02002000
02002000
01004000
01004000
00808000
00808000
00410000
00410000
00220000
00220000
00140000
00140000
00080000
00080000
00000000
00000000
00000000
00000000
00000000
ENDCHAR
STARTCHAR 224c
ENCODING 8780
SWIDTH	-8531 0
DWIDTH	26 0
BBX 26	27 0 -1
BITMAP
00000000
00000000
00000000
3ffffe00
3ffffe00
00000600
00000600
00000600
00000600
00000600
00000600
00000600
00000000
00000000
00000000
00000000
00000000
00000000
00000000
00000000
00000000
00000000
00000000
00000000
00000000
00000000
00000000
ENDCHAR
STARTCHAR 224d
ENCODING 8781
SWIDTH	-8531 0
DWIDTH	26 0
BBX 26	27 0 -1
BITMAP
00000000
00000000
00000000
00000000
00000000
00004000
00002000
00001000
00000800
7ffffc00
00000200
00000100
00000080
00000100
00000200
7ffffc00
00000800
00001000
00002000
00004000
00000000
00000000
00000000
00000000
00000000
00000000
00000000
ENDCHAR
STARTCHAR 224e
ENCODING 8782
SWIDTH	-8531 0
DWIDTH	26 0
BBX 26	27 0 -1
BITMAP
00000000
00000000
00000000
00000000
00000000
00804000
01002000
02001000
04000800
0ffffc00
10000200
20000100
40000080
20000100
10000200
0ffffc00
04000800
02001000
01002000
00804000
00000000
00000000
00000000
00000000
00000000
00000000
00000000
ENDCHAR
STARTCHAR 224f
ENCODING 8783
SWIDTH	-8531 0
DWIDTH	26 0
BBX 26	27 0 -1
BITMAP
00000000
00000000
00000000
10000400
10000400
08000800
08000800
04001000
04001000
03ffe000
02002000
01004000
01004000
00808000
00808000
00410000
00410000
00220000
00220000
00140000
00140000
00080000
00080000
00000000
00000000
00000000
00000000
ENDCHAR
STARTCHAR 2250
ENCODING 8784
SWIDTH	-8531 0
DWIDTH	26 0
BBX 26	27 0 -1
BITMAP
00000000
00000000
00000000
00000000
07ffe000
00002000
00002000
00002000
00002000
00002000
00002000
00002000
07ffe000
00002000
00002000
00002000
00002000
00002000
00002000
00002000
07ffe000
00000000
00000000
00000000
00000000
00000000
00000000
ENDCHAR
STARTCHAR 225c
ENCODING 8796
SWIDTH	-8531 0
DWIDTH	26 0
BBX 26	27 0 -1
BITMAP
00000000
00000000
00000000
00000000
00000800
00001000
00002000
00004000
00008000
00010000
00020000
00040000
00080000
00100000
00200000
00400000
00800000
01000000
02000000
04000000
0ffffc00
00000000
00000000
00000000
00000000
00000000
00000000
ENDCHAR
STARTCHAR 225d
ENCODING 8797
SWIDTH	-8531 0
DWIDTH	26 0
BBX 26	27 0 -1
BITMAP
00000000
00000000
00000000
00000000
00080000
00080000
00080000
00080000
00080000
00080000
00080000
00080000
00080000
00080000
00080000
00080000
00080000
00080000
00080000
00080000
1ffffc00
00000000
00000000
00000000
00000000
00000000
00000000
ENDCHAR
STARTCHAR 225e
ENCODING 8798
SWIDTH	-8531 0
DWIDTH	26 0
BBX 26	27 0 -1
BITMAP
00000000
007f8000
07807800
18000600
60000180
00000000
00000000
00000000
00000000
00000000
00000000
00000000
00000000
00000000
00000000
00000000
00000000
00000000
00000000
00000000
00000000
00000000
00000000
00000000
00000000
00000000
00000000
ENDCHAR
STARTCHAR 225f
ENCODING 8799
SWIDTH	-8531 0
DWIDTH	26 0
BBX 26	27 0 -1
BITMAP
00000000
00000000
00000000
000f8000
00304000
00402000
00002000
00002000
00002000
00002000
003c4000
00c24000
01014000
02008000
02008000
04010000
04010000
04020000
04040000
04080000
02300000
01c00000
00000000
00000000
00000000
00000000
00000000
ENDCHAR
STARTCHAR 2260
ENCODING 8800
SWIDTH	-8531 0
DWIDTH	26 0
BBX 26	27 0 -1
BITMAP
00000000
00000000
00000000
1ffffe00
10000200
08000400
08000400
04000800
04000800
02001000
02001000
01002000
01002000
00804000
00804000
00408000
00408000
00210000
00210000
00120000
00120000
000c0000
000c0000
00000000
00000000
00000000
00000000
ENDCHAR
STARTCHAR 2261
ENCODING 8801
SWIDTH	-8531 0
DWIDTH	26 0
BBX 26	27 0 -1
BITMAP
00000000
00000000
00000000
00000000
00000000
0ffffc00
00000000
00000000
00000000
00000000
00000000
00000000
0ffffc00
00000000
00000000
00000000
00000000
00000000
00000000
0ffffc00
00000000
00000000
00000000
00000000
00000000
00000000
00000000
ENDCHAR
STARTCHAR 2262
ENCODING 8802
SWIDTH	-8531 0
DWIDTH	26 0
BBX 26	27 0 -1
BITMAP
00000000
00000000
00000000
00000000
03800000
03800000
03800000
00000000
00000000
0ffffc00
00000000
00000000
00000000
00000000
00000000
00000000
0ffffc00
00000000
00000000
00007000
00007000
00007000
00000000
00000000
00000000
00000000
00000000
ENDCHAR
STARTCHAR 2263
ENCODING 8803
SWIDTH	-8531 0
DWIDTH	26 0
BBX 26	27 0 -1
BITMAP
00000000
00000000
00000000
00040200
00080400
00100800
00201000
00402000
00804000
01008000
02010000
04020000
180c0000
04020000
02010000
01008000
00804000
00402000
00201000
00100800
00080400
00040200
00000000
00000000
00000000
00000000
00000000
ENDCHAR
STARTCHAR 2264
ENCODING 8804
SWIDTH	-8531 0
DWIDTH	26 0
BBX 26	27 0 -1
BITMAP
00000000
00000000
00000000
10080000
08040000
04020000
02010000
01008000
00804000
00402000
00201000
00100800
000c0600
00100800
00201000
00402000
00804000
01008000
02010000
04020000
08040000
10080000
00000000
00000000
00000000
00000000
00000000
ENDCHAR
STARTCHAR 2265
ENCODING 8805
SWIDTH	-8531 0
DWIDTH	26 0
BBX 26	27 0 -1
BITMAP
00000000
0007ff80
00040000
00040000
00080000
00080000
00080000
00100000
00100000
00100000
00200000
00200000
00200000
00400000
00400000
00400000
10800000
10800000
28800000
49000000
05000000
05000000
02000000
02000000
02000000
00000000
00000000
ENDCHAR
STARTCHAR 2266
ENCODING 8806
SWIDTH	-8531 0
DWIDTH	26 0
BBX 26	27 0 -1
BITMAP
00000000
00000000
00000000
00000000
00000000
00000000
00000000
01c0e000
06011800
08020400
10020200
10040200
10040200
10080200
10080200
10100200
08100400
06201800
01c0e000
00000000
00000000
00000000
00000000
00000000
00000000
00000000
00000000
ENDCHAR
STARTCHAR 2267
ENCODING 8807
SWIDTH	-8531 0
DWIDTH	26 0
BBX 26	27 0 -1
BITMAP
00000000
00000000
00000000
00000000
00000000
00000000
00000000
01c07000
06318c00
080a0200
10040000
10040000
10040000
10040000
10040000
10040000
080a0200
06318c00
01c07000
00000000
00000000
00000000
00000000
00000000
00000000
00000000
00000000
ENDCHAR
STARTCHAR 2268
ENCODING 8808
SWIDTH	-8531 0
DWIDTH	26 0
BBX 26	27 0 -1
BITMAP
00000000
00000000
00000000
00000000
00000000
18000600
3c000f00
3c000f00
18000600
00000000
00000000
00000000
00000000
00000000
00000000
00000000
00000000
00000000
00000000
000c0000
001e0000
001e0000
000c0000
00000000
00000000
00000000
00000000
ENDCHAR
STARTCHAR 2269
ENCODING 8809
SWIDTH	-8531 0
DWIDTH	26 0
BBX 26	27 0 -1
BITMAP
00000000
000c0000
00120000
00210000
00200000
00200000
00200000
00100000
00100000
00100000
00080000
00080000
00080000
00040000
00040000
00040000
00020000
00020000
00020000
00010000
00010000
00010000
00210000
00120000
000c0000
00000000
00000000
ENDCHAR
STARTCHAR 226a
ENCODING 8810
SWIDTH	-8531 0
DWIDTH	26 0
BBX 26	27 0 -1
BITMAP
00000000
01806000
02409000
04210800
04010000
04010000
04010000
02008000
02008000
02008000
01004000
01004000
01004000
00802000
00802000
00802000
00401000
00401000
00401000
00200800
00200800
00200800
04210800
02409000
01806000
00000000
00000000
ENDCHAR
STARTCHAR 2272
ENCODING 8818
SWIDTH	-8531 0
DWIDTH	26 0
BBX 26	27 0 -1
BITMAP
00000000
001c0000
00220000
00220000
00220000
001c0000
00000000
00000000
00080000
00140000
00140000
00220000
00220000
00410000
00410000
00808000
00ff8000
01004000
01004000
02002000
02002000
1fc1fc00
00000000
00000000
00000000
00000000
00000000
ENDCHAR
STARTCHAR 2273
ENCODING 8819
SWIDTH	-8531 0
DWIDTH	26 0
BBX 26	27 0 -1
BITMAP
00000000
00000000
00000000
06010000
09010000
10820000
10840000
10840000
10880000
10900000
10900000
09200000
06400000
004c0c00
00921200
01212100
01212100
02212100
04212100
04212100
08212100
10121200
100c0c00
00000000
00000000
00000000
00000000
ENDCHAR
STARTCHAR 2274
ENCODING 8820
SWIDTH	-8531 0
DWIDTH	26 0
BBX 26	27 0 -1
BITMAP
00000000
00008000
00408000
00408000
00409c00
0040fc00
0047e000
007f8000
01f88000
0fc08000
0e408000
00408000
00408000
00408000
00408000
00409c00
0040fc00
0047e000
007f8000
01f88000
0fc08000
0e408000
00408000
00408000
00400000
00000000
00000000
ENDCHAR
STARTCHAR 2275
ENCODING 8821
SWIDTH	-8531 0
DWIDTH	26 0
BBX 26	27 0 -1
BITMAP
00000000
00800000
00800000
00800000
00800000
00800000
00800000
00800000
00800000
00800000
00800000
00878000
00986000
00e01000
00800800
00800800
00800800
00800800
00801000
00801000
00806000
00818000
008e0000
00f00000
00800000
00000000
00000000
ENDCHAR
STARTCHAR 2276
ENCODING 8822
SWIDTH	-8531 0
DWIDTH	26 0
BBX 26	27 0 -1
BITMAP
00000000
00040000
00040000
00060000
00058000
00046000
00041000
00040800
00040800
00040400
00040400
00040400
00040800
00040800
00041000
00042000
00040000
00040000
00040000
01f40000
07fc0000
07fc0000
07fc0000
03f00000
01c00000
00000000
00000000
ENDCHAR
STARTCHAR 2277
ENCODING 8823
SWIDTH	-8531 0
DWIDTH	26 0
BBX 26	27 0 -1
BITMAP
00000000
00080000
00080000
003e0000
00080000
00888000
00888000
03ffe000
00888000
00888000
00080000
001c0000
007f0000
003e0000
003e0000
001c0000
001c0000
001c0000
001c0000
00080000
00080000
00080000
00080000
00080000
00080000
00000000
00000000
ENDCHAR
STARTCHAR 2278
ENCODING 8824
SWIDTH	-8531 0
DWIDTH	26 0
BBX 26	27 0 -1
BITMAP
00000000
00080000
00080000
003e0000
00080000
00888000
00888000
03ffe000
00888000
00888000
00080000
003e0000
00080000
00080000
003e0000
00080000
00888000
00888000
03ffe000
00888000
00888000
00080000
003e0000
00080000
00080000
00000000
00000000
ENDCHAR
STARTCHAR 2279
ENCODING 8825
SWIDTH	-8531 0
DWIDTH	26 0
BBX 26	27 0 -1
BITMAP
00000000
00000000
00000000
007fc000
01f84000
03f84000
03f84000
03f84000
03f84000
03f84000
03f84000
01f84000
00784000
00084000
00084000
00084000
00084000
00084000
00084000
00084000
00084000
00084000
00084000
00084000
00084000
00000000
00000000
ENDCHAR
STARTCHAR 227e
ENCODING 8830
SWIDTH	-8531 0
DWIDTH	26 0
BBX 26	27 0 -1
BITMAP
00000000
003f0000
01c0e000
06001800
08000400
10000200
10000200
20000100
20000100
20000100
40000080
40000080
40000080
40000080
40000080
40000080
20000100
20000100
20000100
10000200
10000200
08000400
06001800
01c0e000
003f0000
00000000
00000000
ENDCHAR
STARTCHAR 2330
ENCODING 9008
SWIDTH	-8531 0
DWIDTH	26 0
BBX 26	27 0 -1
BITMAP
00000000
00000000
00000000
003f0000
00e1c000
01806000
01806000
03003000
03003000
06001800
06001800
06001800
06001800
06001800
06001800
06001800
06001800
03003000
03003000
01806000
01806000
00e1c000
003f0000
00000000
00000000
00000000
00000000
ENDCHAR
STARTCHAR 2331
ENCODING 9009
SWIDTH	-8531 0
DWIDTH	26 0
BBX 26	27 0 -1
BITMAP
00000000
00000000
00000000
000c0000
003c0000
00fc0000
000c0000
000c0000
000c0000
000c0000
000c0000
000c0000
000c0000
000c0000
000c0000
000c0000
000c0000
000c0000
000c0000
000c0000
000c0000
000c0000
00ffc000
00000000
00000000
00000000
00000000
ENDCHAR
STARTCHAR 2332
ENCODING 9010
SWIDTH	-8531 0
DWIDTH	26 0
BBX 26	27 0 -1
BITMAP
00000000
00000000
00000000
007f8000
01c0e000
03003000
07803000
07801800
07801800
03001800
00003000
00003000
0000e000
0001c000
00070000
001c0000
00700000
00c00000
01800800
03000800
03001800
07fff800
07fff800
00000000
00000000
00000000
00000000
ENDCHAR
STARTCHAR 2333
ENCODING 9011
SWIDTH	-8531 0
DWIDTH	26 0
BBX 26	27 0 -1
BITMAP
00000000
00000000
00000000
007f8000
01c0e000
03003000
07803800
07801800
03001800
00003800
00003000
0001e000
001f8000
0001e000
00003000
00003800
00001800
03001800
07801800
07803800
03003000
01c0e000
007f8000
00000000
00000000
00000000
00000000
ENDCHAR
STARTCHAR 2334
ENCODING 9012
SWIDTH	-8531 0
DWIDTH	26 0
BBX 26	27 0 -1
BITMAP
00000000
00000000
00000000
0000c000
0001c000
0003c000
0006c000
000cc000
0018c000
0030c000
0060c000
00c0c000
0180c000
0300c000
0600c000
0c00c000
0c00c000
0ffffc00
0000c000
0000c000
0000c000
0000c000
000ff800
00000000
00000000
00000000
00000000
ENDCHAR
STARTCHAR 2335
ENCODING 9013
SWIDTH	-8531 0
DWIDTH	26 0
BBX 26	27 0 -1
BITMAP
00000000
00000000
00000000
03fff000
03fff000
02000000
02000000
02000000
02000000
02000000
023f8000
02e1e000
03807000
03003000
00003800
00001800
00001800
03001800
07803800
07803000
03007000
01c1e000
007f8000
00000000
00000000
00000000
00000000
ENDCHAR
STARTCHAR 2336
ENCODING 9014
SWIDTH	-8531 0
DWIDTH	26 0
BBX 26	27 0 -1
BITMAP
00000000
00000000
00000000
003f8000
00e0e000
01807000
0300f000
03006000
06000000
06000000
06000000
063f8000
06e0e000
07803000
07003000
07001800
06001800
06001800
03001800
03003000
01803000
00e0e000
003f8000
00000000
00000000
00000000
00000000
ENDCHAR
STARTCHAR 2337
ENCODING 9015
SWIDTH	-8531 0
DWIDTH	26 0
BBX 26	27 0 -1
BITMAP
00000000
00000000
00000000
03fff800
03fff800
03001800
02003000
02002000
00006000
00004000
0000c000
00008000
00018000
00010000
00030000
00020000
00060000
00060000
00040000
000c0000
000c0000
000c0000
000c0000
00000000
00000000
00000000
00000000
ENDCHAR
STARTCHAR 2338
ENCODING 9016
SWIDTH	-8531 0
DWIDTH	26 0
BBX 26	27 0 -1
BITMAP
00000000
00000000
00000000
003f0000
00e1c000
01806000
03003000
03003000
03003000
03003000
01806000
00e1c000
003f0000
01e1e000
03003000
07003800
06001800
06001800
06001800
07003800
03003000
01e1e000
003f0000
00000000
00000000
00000000
00000000
ENDCHAR
STARTCHAR 2339
ENCODING 9017
SWIDTH	-8531 0
DWIDTH	26 0
BBX 26	27 0 -1
BITMAP
00000000
00000000
00000000
007f8000
01c0e000
03807000
03003000
06001800
06001800
06001800
06001800
03003800
03807800
01c1d800
007f1800
00001800
00001800
00001800
01803000
03c03000
03c0e000
0181c000
00ff0000
00000000
00000000
00000000
00000000
ENDCHAR
STARTCHAR 2341
ENCODING 9025
SWIDTH	-8531 0
DWIDTH	26 0
BBX 26	27 0 -1
BITMAP
00000000
00000000
00000000
000c0000
000c0000
001e0000
00160000
00370000
00230000
00230000
00638000
00418000
00c1c000
0080c000
0080c000
01ffe000
01006000
03007000
02003000
02003000
06003800
04001800
1f807e00
00000000
00000000
00000000
00000000
ENDCHAR
STARTCHAR 2342
ENCODING 9026
SWIDTH	-8531 0
DWIDTH	26 0
BBX 26	27 0 -1
BITMAP
00000000
00000000
00000000
07ff0000
0181c000
01806000
01806000
01803000
01803000
01806000
01806000
0181c000
01ff8000
0180e000
01803000
01803000
01801800
01801800
01801800
01803000
01803000
0180e000
07ff8000
00000000
00000000
00000000
00000000
ENDCHAR
STARTCHAR 2343
ENCODING 9027
SWIDTH	-8531 0
DWIDTH	26 0
BBX 26	27 0 -1
BITMAP
00000000
00000000
00000000
007f8800
01e0f800
03803800
03001800
06001800
06000800
0e000000
0c000000
0c000000
0c000000
0c000000
0c000000
0c000000
0e000000
06001800
06001800
03003000
03803000
01e0e000
007f8000
00000000
00000000
00000000
00000000
ENDCHAR
STARTCHAR 2344
ENCODING 9028
SWIDTH	-8531 0
DWIDTH	26 0
BBX 26	27 0 -1
BITMAP
00000000
00000000
00000000
0fff0000
0301c000
03007000
03003000
03001800
03001800
03000c00
03000c00
03000c00
03000c00
03000c00
03000c00
03000c00
03000c00
03001800
03001800
03003000
03007000
0301c000
0fff0000
00000000
00000000
00000000
00000000
ENDCHAR
STARTCHAR 2345
ENCODING 9029
SWIDTH	-8531 0
DWIDTH	26 0
BBX 26	27 0 -1
BITMAP
00000000
00000000
00000000
07fff000
0180f000
01803000
01801000
01801000
01800000
01810000
01810000
01830000
01ff0000
01830000
01810000
01810000
01800000
01800000
01801000
01801000
01803000
0180f000
07fff000
00000000
00000000
00000000
00000000
ENDCHAR
STARTCHAR 2346
ENCODING 9030
SWIDTH	-8531 0
DWIDTH	26 0
BBX 26	27 0 -1
BITMAP
00000000
00000000
00000000
07fff000
0180f000
01803000
01801000
01801000
01800000
01810000
01810000
01830000
01ff0000
01830000
01810000
01810000
01800000
01800000
01800000
01800000
01800000
01800000
07e00000
00000000
00000000
00000000
00000000
ENDCHAR
STARTCHAR 2347
ENCODING 9031
SWIDTH	-8531 0
DWIDTH	26 0
BBX 26	27 0 -1
BITMAP
00000000
00000000
00000000
007f1000
01e1f000
03807000
03003000
06001000
06001000
0e000000
0c000000
0c000000
0c000000
0c00fc00
0c003000
0c003000
0e003000
06003000
06007000
03007000
0380f000
01e3b000
007e3000
00000000
00000000
00000000
00000000
ENDCHAR
STARTCHAR 2348
ENCODING 9032
SWIDTH	-8531 0
DWIDTH	26 0
BBX 26	27 0 -1
BITMAP
00000000
00000000
00000000
1fc0fe00
03003000
03003000
03003000
03003000
03003000
03003000
03003000
03003000
03fff000
03003000
03003000
03003000
03003000
03003000
03003000
03003000
03003000
03003000
1fc0fe00
00000000
00000000
00000000
00000000
ENDCHAR
STARTCHAR 2349
ENCODING 9033
SWIDTH	-8531 0
DWIDTH	26 0
BBX 26	27 0 -1
BITMAP
00000000
00000000
00000000
00ffc000
000c0000
000c0000
000c0000
000c0000
000c0000
000c0000
000c0000
000c0000
000c0000
000c0000
000c0000
000c0000
000c0000
000c0000
000c0000
000c0000
000c0000
000c0000
00ffc000
00000000
00000000
00000000
00000000
ENDCHAR
STARTCHAR 234a
ENCODING 9034
SWIDTH	-8531 0
DWIDTH	26 0
BBX 26	27 0 -1
BITMAP
00000000
00000000
00000000
001ff000
00018000
00018000
00018000
00018000
00018000
00018000
00018000
00018000
00018000
00018000
00018000
00018000
03018000
07818000
07818000
03038000
03030000
01870000
00fc0000
00000000
00000000
00000000
00000000
ENDCHAR
STARTCHAR 234b
ENCODING 9035
SWIDTH	-8531 0
DWIDTH	26 0
BBX 26	27 0 -1
BITMAP
00000000
00000000
00000000
0fc1fc00
03006000
0300c000
03018000
03030000
03060000
030c0000
03180000
03380000
037c0000
03cc0000
03860000
03070000
03030000
03018000
0301c000
0300c000
03006000
03007000
0fc1fc00
00000000
00000000
00000000
00000000
ENDCHAR
STARTCHAR 234c
ENCODING 9036
SWIDTH	-8531 0
DWIDTH	26 0
BBX 26	27 0 -1
BITMAP
00000000
00000000
00000000
07f80000
00c00000
00c00000
00c00000
00c00000
00c00000
00c00000
00c00000
00c00000
00c00000
00c00000
00c00000
00c00000
00c00000
00c00000
00c00800
00c00800
00c01800
00c07800
07fff800
00000000
00000000
00000000
00000000
ENDCHAR
STARTCHAR 234d
ENCODING 9037
SWIDTH	-8531 0
DWIDTH	26 0
BBX 26	27 0 -1
BITMAP
00000000
00000000
00000000
3e001f00
0e001c00
0f003c00
0b002c00
0b806c00
09804c00
09c0cc00
08c08c00
08e18c00
08610c00
08730c00
08320c00
083e0c00
081c0c00
081c0c00
08080c00
08000c00
08000c00
08000c00
3f003f00
00000000
00000000
00000000
00000000
ENDCHAR
STARTCHAR 234e
ENCODING 9038
SWIDTH	-8531 0
DWIDTH	26 0
BBX 26	27 0 -1
BITMAP
00000000
00000000
00000000
1f80fe00
03c01000
02c01000
02e01000
02701000
02301000
02381000
021c1000
020c1000
020e1000
02071000
02031000
02039000
0201d000
0200d000
0200f000
02007000
02003000
02003000
1fc01000
00000000
00000000
00000000
00000000
ENDCHAR
STARTCHAR 234f
ENCODING 9039
SWIDTH	-8531 0
DWIDTH	26 0
BBX 26	27 0 -1
BITMAP
00000000
00000000
00000000
007f8000
01e1e000
03003000
07003800
06001800
06001800
0e001c00
0c000c00
0c000c00
0c000c00
0c000c00
0c000c00
0c000c00
0e001c00
06001800
06001800
07003800
03003000
01e1e000
007f8000
00000000
00000000
00000000
00000000
ENDCHAR
STARTCHAR 2350
ENCODING 9040
SWIDTH	-8531 0
DWIDTH	26 0
BBX 26	27 0 -1
BITMAP
00000000
00000000
00000000
07ff8000
0180e000
01803000
01803000
01801800
01801800
01801800
01803000
01803000
0180e000
01ff8000
01800000
01800000
01800000
01800000
01800000
01800000
01800000
01800000
07e00000
00000000
00000000
00000000
00000000
ENDCHAR
STARTCHAR 2351
ENCODING 9041
SWIDTH	-8531 0
DWIDTH	26 0
BBX 26	27 0 -1
BITMAP
00000000
00000000
00000000
007f8000
01e1e000
03003000
07003800
06001800
06001800
0e001c00
0c000c00
0c000c00
0c000c00
0c000c00
0c000c00
0c000c00
0e001c00
061e1800
063f9800
07619800
0300f000
01e1e000
007fb180
00001f00
00000e00
00000000
00000000
ENDCHAR
STARTCHAR 2352
ENCODING 9042
SWIDTH	-8531 0
DWIDTH	26 0
BBX 26	27 0 -1
BITMAP
00000000
00000000
00000000
07ff0000
0181c000
01806000
01806000
01803000
01803000
01803000
01806000
01806000
0181c000
01ff0000
01860000
01830000
01818000
01818000
0180c000
0180c000
01806000
01806000
07e07800
00000000
00000000
00000000
00000000
ENDCHAR
STARTCHAR 2353
ENCODING 9043
SWIDTH	-8531 0
DWIDTH	26 0
BBX 26	27 0 -1
BITMAP
00000000
00000000
00000000
003f1000
00e1f000
01807000
03803000
03001000
03000000
03800000
01c00000
00f80000
003f0000
0007e000
0000f000
00003800
02001800
02001800
03001800
03801800
03c03000
0370e000
021f8000
00000000
00000000
00000000
00000000
ENDCHAR
STARTCHAR 2354
ENCODING 9044
SWIDTH	-8531 0
DWIDTH	26 0
BBX 26	27 0 -1
BITMAP
00000000
00000000
00000000
07fff800
078c7800
060c1800
040c0800
040c0800
000c0000
000c0000
000c0000
000c0000
000c0000
000c0000
000c0000
000c0000
000c0000
000c0000
000c0000
000c0000
000c0000
000c0000
007f8000
00000000
00000000
00000000
00000000
ENDCHAR
STARTCHAR 2355
ENCODING 9045
SWIDTH	-8531 0
DWIDTH	26 0
BBX 26	27 0 -1
BITMAP
00000000
00000000
00000000
1fe0fe00
03001000
03001000
03001000
03001000
03001000
03001000
03001000
03001000
03001000
03001000
03001000
03001000
03001000
03001000
01803000
01802000
00c06000
0071c000
001f0000
00000000
00000000
00000000
00000000
ENDCHAR
STARTCHAR 2356
ENCODING 9046
SWIDTH	-8531 0
DWIDTH	26 0
BBX 26	27 0 -1
BITMAP
00000000
00000000
00000000
1f807e00
06001800
03001000
03001000
03003000
01802000
01806000
00c04000
00c04000
00c0c000
00608000
00618000
00310000
00310000
00330000
001a0000
001e0000
000c0000
000c0000
000c0000
00000000
00000000
00000000
00000000
ENDCHAR
STARTCHAR 2357
ENCODING 9047
SWIDTH	-8531 0
DWIDTH	26 0
BBX 26	27 0 -1
BITMAP
00000000
00000000
00000000
7e3f1f80
180e0200
180e0200
1c1f0600
0c130400
0c130400
0c130400
0e338c00
06218800
06218800
06218800
0761d800
0340d000
0340d000
03c0f000
03c0f000
01806000
01806000
01806000
01806000
00000000
00000000
00000000
00000000
ENDCHAR
STARTCHAR 2358
ENCODING 9048
SWIDTH	-8531 0
DWIDTH	26 0
BBX 26	27 0 -1
BITMAP
00000000
00000000
00000000
1fc0fe00
07001800
03803000
01806000
01c04000
00e0c000
00618000
00730000
003e0000
001e0000
001e0000
00370000
00638000
00618000
00c1c000
0180e000
01007000
03003000
06003800
1fc0fe00
00000000
00000000
00000000
00000000
ENDCHAR
STARTCHAR 2359
ENCODING 9049
SWIDTH	-8531 0
DWIDTH	26 0
BBX 26	27 0 -1
BITMAP
00000000
00000000
00000000
1fc0fe00
07001800
03001000
03803000
01c06000
00e0c000
00608000
00718000
003b0000
001e0000
000c0000
000c0000
000c0000
000c0000
000c0000
000c0000
000c0000
000c0000
000c0000
003f0000
00000000
00000000
00000000
00000000
ENDCHAR
STARTCHAR 235a
ENCODING 9050
SWIDTH	-8531 0
DWIDTH	26 0
BBX 26	27 0 -1
BITMAP
00000000
00000000
00000000
07fff800
07803800
06007000
0400e000
0401c000
00018000
00038000
00070000
000e0000
000c0000
001c0000
00380000
00700000
00e00000
00c00000
01c00400
03800400
07000c00
0e003c00
0ffffc00
00000000
00000000
00000000
00000000
ENDCHAR
STARTCHAR 2361
ENCODING 9057
SWIDTH	-8531 0
DWIDTH	26 0
BBX 26	27 0 -1
BITMAP
00000000
00000000
00000000
00000000
00000000
00000000
00000000
00000000
00000000
00000000
00fe0000
01830000
03c18000
01818000
00018000
007f8000
01c18000
03018000
03018000
03018000
03018000
03879000
01fce000
00000000
00000000
00000000
00000000
ENDCHAR
STARTCHAR 2362
ENCODING 9058
SWIDTH	-8531 0
DWIDTH	26 0
BBX 26	27 0 -1
BITMAP
00000000
00000000
00000000
07800000
01800000
01800000
01800000
01800000
01800000
01800000
019f0000
01f1c000
01c06000
01806000
01803000
01803000
01803000
01803000
01803000
01806000
01c06000
01f1c000
079f0000
00000000
00000000
00000000
00000000
ENDCHAR
STARTCHAR 2363
ENCODING 9059
SWIDTH	-8531 0
DWIDTH	26 0
BBX 26	27 0 -1
BITMAP
00000000
00000000
00000000
00000000
00000000
00000000
00000000
00000000
00000000
00000000
003f0000
00e1c000
0180e000
0181e000
0300c000
03000000
03000000
03000000
03000000
01800000
01806000
00e1c000
003f0000
00000000
00000000
00000000
00000000
ENDCHAR
STARTCHAR 2364
ENCODING 9060
SWIDTH	-8531 0
DWIDTH	26 0
BBX 26	27 0 -1
BITMAP
00000000
00000000
00000000
0001e000
00006000
00006000
00006000
00006000
00006000
00006000
003e6000
00e3e000
0180e000
01806000
03006000
03006000
03006000
03006000
03006000
01806000
0180e000
00e3e000
003e2000
00000000
00000000
00000000
00000000
ENDCHAR
STARTCHAR 2365
ENCODING 9061
SWIDTH	-8531 0
DWIDTH	26 0
BBX 26	27 0 -1
BITMAP
00000000
00000000
00000000
00000000
00000000
00000000
00000000
00000000
00000000
00000000
003f0000
00e1c000
01806000
01806000
03003000
03003000
03fff000
03000000
03000000
01800000
01803000
00e0e000
003f8000
00000000
00000000
00000000
00000000
ENDCHAR
STARTCHAR 2366
ENCODING 9062
SWIDTH	-8531 0
DWIDTH	26 0
BBX 26	27 0 -1
BITMAP
00000000
00000000
00000000
000f0000
00198000
0031c000
00318000
00300000
00300000
00300000
03ff8000
00300000
00300000
00300000
00300000
00300000
00300000
00300000
00300000
00300000
00300000
00300000
00fc0000
00000000
00000000
00000000
00000000
ENDCHAR
STARTCHAR 2367
ENCODING 9063
SWIDTH	-8531 0
DWIDTH	26 0
BBX 26	27 0 -1
BITMAP
00000000
00000000
00000000
00000000
00000000
00000000
00000000
00000000
00000000
00000000
007e6000
00c3e000
01818000
01818000
01818000
00c30000
007e0000
00c00000
01800000
01ff8000
0180c000
03006000
03006000
0180c000
00ff8000
00000000
00000000
ENDCHAR
STARTCHAR 2368
ENCODING 9064
SWIDTH	-8531 0
DWIDTH	26 0
BBX 26	27 0 -1
BITMAP
00000000
00000000
00000000
07800000
01800000
01800000
01800000
01800000
01800000
01800000
019f0000
01b1c000
01e0c000
01c0e000
01c06000
01806000
01806000
01806000
01806000
01806000
01806000
01806000
07e1f800
00000000
00000000
00000000
00000000
ENDCHAR
STARTCHAR 2369
ENCODING 9065
SWIDTH	-8531 0
DWIDTH	26 0
BBX 26	27 0 -1
BITMAP
00000000
00000000
00000000
000c0000
001e0000
001e0000
000c0000
00000000
00000000
00000000
007c0000
000c0000
000c0000
000c0000
000c0000
000c0000
000c0000
000c0000
000c0000
000c0000
000c0000
000c0000
007f8000
00000000
00000000
00000000
00000000
ENDCHAR
STARTCHAR 236a
ENCODING 9066
SWIDTH	-8531 0
DWIDTH	26 0
BBX 26	27 0 -1
BITMAP
00000000
00000000
00000000
00060000
000f0000
000f0000
00060000
00000000
00000000
00000000
001f0000
00030000
00030000
00030000
00030000
00030000
00030000
00030000
00030000
00030000
00c30000
01e30000
01c30000
00c60000
007c0000
00000000
00000000
ENDCHAR
STARTCHAR 236b
ENCODING 9067
SWIDTH	-8531 0
DWIDTH	26 0
BBX 26	27 0 -1
BITMAP
00000000
00000000
00000000
07800000
01800000
01800000
01800000
01800000
01800000
01800000
0187f000
01818000
01830000
01860000
018c0000
01980000
01bc0000
01e60000
01c30000
01818000
0180c000
01806000
07e1f800
00000000
00000000
00000000
00000000
ENDCHAR
STARTCHAR 236c
ENCODING 9068
SWIDTH	-8531 0
DWIDTH	26 0
BBX 26	27 0 -1
BITMAP
00000000
00000000
00000000
007c0000
000c0000
000c0000
000c0000
000c0000
000c0000
000c0000
000c0000
000c0000
000c0000
000c0000
000c0000
000c0000
000c0000
000c0000
000c0000
000c0000
000c0000
000c0000
007f8000
00000000
00000000
00000000
00000000
ENDCHAR
STARTCHAR 236d
ENCODING 9069
SWIDTH	-8531 0
DWIDTH	26 0
BBX 26	27 0 -1
BITMAP
00000000
00000000
00000000
00000000
00000000
00000000
00000000
00000000
00000000
00000000
3df3f000
0f1e1800
0c0c0c00
0c0c0c00
0c0c0c00
0c0c0c00
0c0c0c00
0c0c0c00
0c0c0c00
0c0c0c00
0c0c0c00
0c0c0c00
3f1e1e00
00000000
00000000
00000000
00000000
ENDCHAR
STARTCHAR 236e
ENCODING 9070
SWIDTH	-8531 0
DWIDTH	26 0
BBX 26	27 0 -1
BITMAP
00000000
00000000
00000000
00000000
00000000
00000000
00000000
00000000
00000000
00000000
079f0000
01f1c000
01c0c000
01c0e000
01806000
01806000
01806000
01806000
01806000
01806000
01806000
01806000
07e1f800
00000000
00000000
00000000
00000000
ENDCHAR
STARTCHAR 236f
ENCODING 9071
SWIDTH	-8531 0
DWIDTH	26 0
BBX 26	27 0 -1
BITMAP
00000000
00000000
00000000
00000000
00000000
00000000
00000000
00000000
00000000
00000000
003f0000
00e1c000
01806000
01806000
03003000
03003000
03003000
03003000
03003000
01806000
01806000
00e1c000
003f0000
00000000
00000000
00000000
00000000
ENDCHAR
STARTCHAR 2370
ENCODING 9072
SWIDTH	-8531 0
DWIDTH	26 0
BBX 26	27 0 -1
BITMAP
00000000
00000000
00000000
00000000
00000000
00000000
00000000
00000000
00000000
00000000
03cf0000
00f9c000
00e06000
00c06000
00c03000
00c03000
00c03000
00c06000
00e06000
00f9c000
00cf0000
00c00000
00c00000
00c00000
03f00000
00000000
00000000
ENDCHAR
STARTCHAR 2371
ENCODING 9073
SWIDTH	-8531 0
DWIDTH	26 0
BBX 26	27 0 -1
BITMAP
00000000
00000000
00000000
00000000
00000000
00000000
00000000
00000000
00000000
00000000
003c4000
00e7c000
0181c000
0180c000
0300c000
0300c000
0300c000
0180c000
0181c000
00e7c000
003cc000
0000c000
0000c000
0000c000
0003f000
00000000
00000000
ENDCHAR
STARTCHAR 2372
ENCODING 9074
SWIDTH	-8531 0
DWIDTH	26 0
BBX 26	27 0 -1
BITMAP
00000000
00000000
00000000
00000000
00000000
00000000
00000000
00000000
00000000
00000000
03cf0000
00f98000
00e1c000
00e3c000
00c18000
00c00000
00c00000
00c00000
00c00000
00c00000
00c00000
00c00000
03f00000
00000000
00000000
00000000
00000000
ENDCHAR
STARTCHAR 2373
ENCODING 9075
SWIDTH	-8531 0
DWIDTH	26 0
BBX 26	27 0 -1
BITMAP
00000000
00000000
00000000
00000000
00000000
00000000
00000000
00000000
00000000
00000000
003e4000
00e3c000
0180c000
01804000
00c00000
00fc0000
003f8000
0001c000
00006000
01006000
01806000
01e1c000
013f0000
00000000
00000000
00000000
00000000
ENDCHAR
STARTCHAR 2374
ENCODING 9076
SWIDTH	-8531 0
DWIDTH	26 0
BBX 26	27 0 -1
BITMAP
00000000
00000000
00000000
00000000
00000000
00100000
00300000
00300000
00300000
00300000
01ff8000
00300000
00300000
00300000
00300000
00300000
00300000
00300000
00300000
00304000
0030c000
00198000
000f0000
00000000
00000000
00000000
00000000
ENDCHAR
STARTCHAR 2375
ENCODING 9077
SWIDTH	-8531 0
DWIDTH	26 0
BBX 26	27 0 -1
BITMAP
00000000
00000000
00000000
00000000
00000000
00000000
00000000
00000000
00000000
00000000
0781e000
01806000
01806000
01806000
01806000
01806000
01806000
01806000
01806000
0180e000
00c0e000
00e3e000
003e7800
00000000
00000000
00000000
00000000
ENDCHAR
STARTCHAR 2376
ENCODING 9078
SWIDTH	-8531 0
DWIDTH	26 0
BBX 26	27 0 -1
BITMAP
00000000
00000000
00000000
00000000
00000000
00000000
00000000
00000000
00000000
00000000
07e1f800
01802000
01806000
00c04000
00c0c000
00608000
00618000
00310000
00330000
001a0000
001e0000
000c0000
000c0000
00000000
00000000
00000000
00000000
ENDCHAR
STARTCHAR 2377
ENCODING 9079
SWIDTH	-8531 0
DWIDTH	26 0
BBX 26	27 0 -1
BITMAP
00000000
00000000
00000000
00000000
00000000
00000000
00000000
00000000
00000000
00000000
1e3e3e00
0c1c0800
0c1c0800
0c361800
06261000
06231000
06633000
06432000
0341a000
03c1e000
0180c000
0180c000
0180c000
00000000
00000000
00000000
00000000
ENDCHAR
STARTCHAR 2378
ENCODING 9080
SWIDTH	-8531 0
DWIDTH	26 0
BBX 26	27 0 -1
BITMAP
00000000
00000000
00000000
00000000
00000000
00000000
00000000
00000000
00000000
00000000
07e1f800
01806000
00c0c000
00618000
00330000
001e0000
000c0000
001e0000
00330000
00618000
00c0c000
01806000
07e1f800
00000000
00000000
00000000
00000000
ENDCHAR
STARTCHAR 2379
ENCODING 9081
SWIDTH	-8531 0
DWIDTH	26 0
BBX 26	27 0 -1
BITMAP
00000000
00000000
00000000
00000000
00000000
00000000
00000000
00000000
00000000
00000000
07f0fc00
00c02000
00c06000
00604000
0030c000
00308000
00198000
00190000
000f0000
000e0000
00860000
01c40000
018c0000
01980000
00f00000
00000000
00000000
ENDCHAR
STARTCHAR 237a
ENCODING 9082
SWIDTH	-8531 0
DWIDTH	26 0
BBX 26	27 0 -1
BITMAP
00000000
00000000
00000000
00000000
00000000
00000000
00000000
00000000
00000000
00000000
01ffe000
01806000
0100c000
01018000
00030000
00060000
000c0000
00180000
00301000
00601000
00c01000
01803000
01fff000
00000000
00000000
00000000
00000000
ENDCHAR
STARTCHAR 2421
ENCODING 9249
SWIDTH	-8531 0
DWIDTH	26 0
BBX 26	27 0 -1
BITMAP
00000000
00000000
00000000
00000000
00000000
00000000
00000000
00300000
00180000
00118000
021fc000
01f00000
00100000
00100000
003fc000
00d17000
01121800
02141800
06181800
06301800
07e03000
0380e000
00038000
00000000
00000000
00000000
00000000
ENDCHAR
STARTCHAR 2422
ENCODING 9250
SWIDTH	-8531 0
DWIDTH	26 0
BBX 26	27 0 -1
BITMAP
00000000
00000000
00000000
00700000
00380000
00300000
0030c000
0637e000
03fe0000
00300000
00300000
003fe000
00713800
01b10c00
03310c00
06320600
06320600
0c340600
0c380c00
0c300c00
0fe01800
07807000
0003c000
00000000
00000000
00000000
00000000
ENDCHAR
STARTCHAR 2423
ENCODING 9251
SWIDTH	-8531 0
DWIDTH	26 0
BBX 26	27 0 -1
BITMAP
00000000
00000000
00000000
00000000
00000000
00000000
00000000
00000000
00000000
00000000
06000000
03008000
03004000
03002000
03003000
02001000
02001800
02001800
02201800
03201800
01400000
01c00000
00c00000
00000000
00000000
00000000
00000000
ENDCHAR
STARTCHAR 2424
ENCODING 9252
SWIDTH	-8531 0
DWIDTH	26 0
BBX 26	27 0 -1
BITMAP
00000000
00000000
00000000
00000000
00000000
00000000
18000000
0c000000
0e000000
0e002000
0c001000
0c001800
08000c00
08000c00
08000600
08200600
08400600
0c400600
0cc00000
07800000
07800000
01800000
00000000
00000000
00000000
00000000
00000000
ENDCHAR
STARTCHAR 2425
ENCODING 9253
SWIDTH	-8531 0
DWIDTH	26 0
BBX 26	27 0 -1
BITMAP
00000000
00000000
00000000
00000000
00000000
00000000
00000000
00200000
001e0000
000f0000
00100000
00000000
000f8000
0278c000
01e06000
00c06000
00006000
00006000
0000c000
0000c000
00018000
00030000
000e0000
00180000
00000000
00000000
00000000
ENDCHAR
STARTCHAR 2426
ENCODING 9254
SWIDTH	-8531 0
DWIDTH	26 0
BBX 26	27 0 -1
BITMAP
00000000
00000000
00400000
003f0000
00078000
000c0000
00100000
00000000
00000000
000fc000
02386000
03e03000
01803000
00003000
00003000
00003000
00003000
00006000
00006000
0000c000
00018000
00030000
000e0000
00380000
00000000
00000000
00000000
ENDCHAR
STARTCHAR 2427
ENCODING 9255
SWIDTH	-8531 0
DWIDTH	26 0
BBX 26	27 0 -1
BITMAP
00000000
00000000
00000000
00000000
00000000
00000000
00000000
00200000
001e0000
000f0000
00100000
00000000
01060000
00fb0000
00460000
00040000
00180000
00200000
007c0000
00e20000
01820000
0303f000
0301f000
00000000
00000000
00000000
00000000
ENDCHAR
STARTCHAR 2428
ENCODING 9256
SWIDTH	-8531 0
DWIDTH	26 0
BBX 26	27 0 -1
BITMAP
00000000
00000000
00000000
00400000
003e0000
000f0000
00300000
00000000
00030000
041f8000
07f70000
030c0000
00180000
00100000
00200000
005c0000
00e60000
01c20000
03020000
06020000
06030000
0c03fc00
0c01fc00
00000000
00000000
00000000
00000000
ENDCHAR
STARTCHAR 2429
ENCODING 9257
SWIDTH	-8531 0
DWIDTH	26 0
BBX 26	27 0 -1
BITMAP
00000000
00000000
00000000
00000000
00000000
00000000
00000000
00000000
00c00000
00600000
004c0000
047e7000
03c01800
00401000
00400000
005f8000
0070e000
01c03000
03403000
06403000
06403000
0140e000
00c38000
00000000
00000000
00000000
00000000
ENDCHAR
STARTCHAR 242a
ENCODING 9258
SWIDTH	-8531 0
DWIDTH	26 0
BBX 26	27 0 -1
BITMAP
00000000
00000000
00000000
00e00000
00700000
00600000
00600000
00661e00
0c7f0300
07fc0700
00600000
00600000
00600000
0067f000
007c1c00
00700c00
01e00600
03600600
1e600600
1c600600
0e600c00
01601c00
00e1f000
00400000
00000000
00000000
00000000
ENDCHAR
STARTCHAR 242b
ENCODING 9259
SWIDTH	-8531 0
DWIDTH	26 0
BBX 26	27 0 -1
BITMAP
00000000
00000000
00000000
00c00000
00600000
00600000
00600000
00400000
00404000
10fc3000
1fc61800
0c820c00
00830c00
01830600
01031e00
03030600
03030000
06030000
06060000
0c060000
0c4e0000
183c0000
18380000
00000000
00000000
00000000
00000000
ENDCHAR
STARTCHAR 242c
ENCODING 9260
SWIDTH	-8531 0
DWIDTH	26 0
BBX 26	27 0 -1
BITMAP
00000000
00000000
00000000
00c00600
00600300
00603180
00601800
00400c00
00404000
10fc3000
1fc61800
0c820c00
00830c00
01830600
01031e00
03030600
03030000
06030000
06060000
0c060000
0c4e0000
183c0000
18380000
00000000
00000000
00000000
00000000
ENDCHAR
STARTCHAR 242d
ENCODING 9261
SWIDTH	-8531 0
DWIDTH	26 0
BBX 26	27 0 -1
BITMAP
00000000
00000000
00000000
00700000
00380000
00180000
00183000
070df800
01ff0000
00060000
00031c00
0f03fe00
01ff8000
0000c000
00006000
00003000
007ff800
01c07800
03001000
03000000
03c00000
01ffc000
003fc000
00000000
00000000
00000000
00000000
ENDCHAR
STARTCHAR 242e
ENCODING 9262
SWIDTH	-8531 0
DWIDTH	26 0
BBX 26	27 0 -1
BITMAP
00000000
00000000
00000c00
00e00600
00703300
00301800
0030cc00
0e1be000
03fe0000
000c0000
00067000
1e07f800
03ff0000
00018000
0000c000
00006000
00fff000
0380f000
06002000
06000000
07800000
03ff8000
007f8000
00000000
00000000
00000000
00000000
ENDCHAR
STARTCHAR 242f
ENCODING 9263
SWIDTH	-8531 0
DWIDTH	26 0
BBX 26	27 0 -1
BITMAP
00000000
00000000
00000000
00070000
00038000
00038000
00070000
000e0000
001c0000
00300000
00600000
00c00000
01800000
01800000
01800000
00c00000
00600000
00300000
00180000
000c0000
00060000
00070000
00038000
00018000
00000000
00000000
00000000
ENDCHAR
STARTCHAR 2430
ENCODING 9264
SWIDTH	-8531 0
DWIDTH	26 0
BBX 26	27 0 -1
BITMAP
00000000
00000000
00000000
000e0000
00070000
00073000
000e1800
001ccc00
00386000
00603000
00c00000
01800000
03000000
03000000
03000000
01800000
00c00000
00600000
00300000
00180000
000c0000
000e0000
00070000
00030000
00000000
00000000
00000000
ENDCHAR
STARTCHAR 2431
ENCODING 9265
SWIDTH	-8531 0
DWIDTH	26 0
BBX 26	27 0 -1
BITMAP
00000000
00000000
00000000
0000e000
0c007000
06006000
06006000
06006000
06006c00
0430fe00
0c1fe000
0c006000
08006000
08006000
08006000
08006000
08806000
0c806000
0d00c000
0500c000
07018000
07018000
03070000
000c0000
00000000
00000000
00000000
ENDCHAR
STARTCHAR 2432
ENCODING 9266
SWIDTH	-8531 0
DWIDTH	26 0
BBX 26	27 0 -1
BITMAP
00000000
00000000
00000600
00018300
1800d980
0c00cc00
0c00c600
0c00c000
0c00d800
0861fc00
183fc000
1800c000
1000c000
1000c000
1000c000
1000c000
1100c000
1900c000
1a018000
0a018000
0e030000
0e030000
060e0000
00180000
00000000
00000000
00000000
ENDCHAR
STARTCHAR 2433
ENCODING 9267
SWIDTH	-8531 0
DWIDTH	26 0
BBX 26	27 0 -1
BITMAP
00000000
00000000
00000000
00000000
00000000
01c0c000
007fe000
00078000
003c0000
00600000
00800000
00000000
00000000
00000000
00000000
04000000
04000000
06000000
02000000
03803800
01fff800
007fe000
00000000
00000000
00000000
00000000
00000000
ENDCHAR
STARTCHAR 2434
ENCODING 9268
SWIDTH	-8531 0
DWIDTH	26 0
BBX 26	27 0 -1
BITMAP
00000000
00000000
00000000
00000000
00000c00
03838600
00ff8300
000f3000
00781800
00c00c00
01000000
00000000
00000000
00000000
00000000
08000000
08000000
0c000000
04000000
07007000
03fff000
00ffc000
00000000
00000000
00000000
00000000
00000000
ENDCHAR
STARTCHAR 2435
ENCODING 9269
SWIDTH	-8531 0
DWIDTH	26 0
BBX 26	27 0 -1
BITMAP
00000000
00000000
00000000
00700000
00380000
00180000
000c3000
000cf800
0707c000
01fe0000
00030000
00030000
00018000
0000c000
00006000
007ff000
01c0f000
03002000
03000000
03000000
01c00000
00ffc000
003fc000
00000000
00000000
00000000
00000000
ENDCHAR
STARTCHAR 2436
ENCODING 9270
SWIDTH	-8531 0
DWIDTH	26 0
BBX 26	27 0 -1
BITMAP
00000000
00000000
00000c00
00e00600
00703300
00301800
0018cc00
0019e000
0e0f8000
03fc0000
00060000
00060000
00030000
00018000
0000c000
00ffe000
0381e000
06004000
06000000
06000000
03800000
01ff8000
007f8000
00000000
00000000
00000000
00000000
ENDCHAR
STARTCHAR 2437
ENCODING 9271
SWIDTH	-8531 0
DWIDTH	26 0
BBX 26	27 0 -1
BITMAP
00000000
00000000
00000000
03000000
01800000
01c00000
01c00000
01800000
01800000
01800000
01800000
01800000
03000000
03000800
03000800
03001000
03001000
03002000
03006000
0300c000
01838000
01ff0000
007c0000
00000000
00000000
00000000
00000000
ENDCHAR
STARTCHAR 2438
ENCODING 9272
SWIDTH	-8531 0
DWIDTH	26 0
BBX 26	27 0 -1
BITMAP
00000000
00000000
00000000
03000000
01818000
01c0c000
01cc6000
01860000
01830000
01800000
01800000
01800000
03000000
03000800
03000800
03001000
03001000
03002000
03006000
0300c000
01838000
01ff0000
007c0000
00000000
00000000
00000000
00000000
ENDCHAR
STARTCHAR 2439
ENCODING 9273
SWIDTH	-8531 0
DWIDTH	26 0
BBX 26	27 0 -1
BITMAP
00000000
00000000
00000000
00070000
00038000
00030000
00030c00
1003fe00
1fff0300
0e030000
00030000
001f0000
00370000
00630000
00430000
00630000
003f0000
001b0000
00030000
00060000
00060000
000c0000
00380000
00e00000
00000000
00000000
00000000
ENDCHAR
STARTCHAR 243a
ENCODING 9274
SWIDTH	-8531 0
DWIDTH	26 0
BBX 26	27 0 -1
BITMAP
00000000
00000c00
00006600
00073300
00039800
00030000
00030c00
1003fe00
1fff0300
0e030000
00030000
001f0000
00370000
00630000
00430000
00630000
003f0000
001b0000
00030000
00060000
00060000
000c0000
00380000
00e00000
00000000
00000000
00000000
ENDCHAR
STARTCHAR 243b
ENCODING 9275
SWIDTH	-8531 0
DWIDTH	26 0
BBX 26	27 0 -1
BITMAP
00000000
00000000
00000000
00000000
0001c000
0380e000
01c0c000
0180c000
0180c000
0180cc00
218ffe00
3ff8c300
1980c000
0181c000
01898000
01858000
01838000
01830000
01800000
01800000
01c07000
00fff000
007fc000
00000000
00000000
00000000
00000000
ENDCHAR
STARTCHAR 243c
ENCODING 9276
SWIDTH	-8531 0
DWIDTH	26 0
BBX 26	27 0 -1
BITMAP
00000000
00000000
00000000
00000600
00038300
0701d980
03818c00
03018600
03018000
03019800
431ffc00
7ff18600
33018000
03038000
03130000
030b0000
03070000
03060000
03000000
03000000
0380e000
01ffe000
00ff8000
00000000
00000000
00000000
00000000
ENDCHAR
STARTCHAR 243d
ENCODING 9277
SWIDTH	-8531 0
DWIDTH	26 0
BBX 26	27 0 -1
BITMAP
00000000
00000000
00000000
00018000
0107c000
01fce000
00e1c000
00060000
00180000
00200000
00c01800
138ffc00
1ff07c00
0e038000
041c0000
00300000
00600000
00600000
00600000
00300000
003c0000
001fe000
0007e000
00000000
00000000
00000000
00000000
ENDCHAR
STARTCHAR 243e
ENCODING 9278
SWIDTH	-8531 0
DWIDTH	26 0
BBX 26	27 0 -1
BITMAP
00000000
00000000
00000600
00030300
020f9980
03f9cc00
01c38600
000c0000
00300000
00400000
01803000
271ff800
3fe0f800
1c070000
08380000
00600000
00c00000
00c00000
00c00000
00600000
00780000
003fc000
000fc000
00000000
00000000
00000000
00000000
ENDCHAR
STARTCHAR 243f
ENCODING 9279
SWIDTH	-8531 0
DWIDTH	26 0
BBX 26	27 0 -1
BITMAP
00000000
00000000
00000000
01800000
00c00000
00c00000
00c00000
00cc0000
18fe0000
0fc00000
01807800
0187fc00
0180e000
01018000
03000000
03000000
03000000
06000000
06080000
06080000
0e0c0e00
0c07fe00
0c03f800
00000000
00000000
00000000
00000000
ENDCHAR
STARTCHAR 2440
ENCODING 9280
SWIDTH	-8531 0
DWIDTH	26 0
BBX 26	27 0 -1
BITMAP
00000000
00000000
00000000
01800000
00c03000
00c19800
00c0cc00
00cc6000
18fe0000
0fc00000
01807800
0187fc00
0180e000
01018000
03000000
03000000
03000000
06000000
06080000
06080000
0e0c0e00
0c07fe00
0c03f800
00000000
00000000
00000000
00000000
ENDCHAR
STARTCHAR 2441
ENCODING 9281
SWIDTH	-8531 0
DWIDTH	26 0
BBX 26	27 0 -1
BITMAP
00000000
00000000
00000000
00300000
00180000
00180000
00300000
0030e000
0c7ff000
07e00000
00600000
00c00000
01800000
018fe000
03783800
07c01800
03000c00
00000c00
00000c00
00001800
00003800
0000e000
003f8000
00000000
00000000
00000000
00000000
ENDCHAR
STARTCHAR 2442
ENCODING 9282
SWIDTH	-8531 0
DWIDTH	26 0
BBX 26	27 0 -1
BITMAP
00000000
00000000
00001800
0060cc00
00306600
00303000
00600000
0061c000
18ffe000
0fc00000
00c00000
01800000
03000000
031fc000
06f07000
0f803000
06001800
00001800
00001800
00003000
00007000
0001c000
007f0000
00000000
00000000
00000000
00000000
ENDCHAR
STARTCHAR 2443
ENCODING 9283
SWIDTH	-8531 0
DWIDTH	26 0
BBX 26	27 0 -1
BITMAP
00000000
00000000
00000000
00000000
00000000
00000000
00000000
00000000
00000000
00000000
00000000
00000000
0007e000
087c3000
07c01800
03001800
00001800
00001800
00003800
00003000
0000e000
0003c000
001e0000
00000000
00000000
00000000
00000000
ENDCHAR
STARTCHAR 2444
ENCODING 9284
SWIDTH	-8531 0
DWIDTH	26 0
BBX 26	27 0 -1
BITMAP
00000000
00000000
00000000
00000000
00000000
00000000
00000000
0007e000
007c3800
23e00c00
3f000600
1c000600
00000600
00000600
00000600
00000c00
00000c00
00001800
00003000
0001e000
001f0000
00000000
00000000
00000000
00000000
00000000
00000000
ENDCHAR
STARTCHAR 2445
ENCODING 9285
SWIDTH	-8531 0
DWIDTH	26 0
BBX 26	27 0 -1
BITMAP
00000000
00000000
00000c00
00006600
00003300
00001800
00000000
0007e000
007c3800
23e00c00
3f000600
1c000600
00000600
00000600
00000600
00000c00
00000c00
00001800
00003000
0001e000
001f0000
00000000
00000000
00000000
00000000
00000000
00000000
ENDCHAR
STARTCHAR 2446
ENCODING 9286
SWIDTH	-8531 0
DWIDTH	26 0
BBX 26	27 0 -1
BITMAP
00000000
00000000
00000000
00000000
00000000
00003800
101ffc00
1ff18000
0f060000
00080000
00100000
00300000
00200000
00600000
00600000
00600000
00600000
00600000
00300000
00300000
001c0000
000fe000
0003e000
00000000
00000000
00000000
00000000
ENDCHAR
STARTCHAR 2447
ENCODING 9287
SWIDTH	-8531 0
DWIDTH	26 0
BBX 26	27 0 -1
BITMAP
00000000
00000000
00000000
00000000
00000000
00003800
101ffc00
1ff18000
0f060000
00080000
00101800
0030cc00
00206600
00603000
00600000
00600000
00600000
00600000
00300000
00300000
001c0000
000fe000
0003e000
00000000
00000000
00000000
00000000
ENDCHAR
STARTCHAR 2448
ENCODING 9288
SWIDTH	-8531 0
DWIDTH	26 0
BBX 26	27 0 -1
BITMAP
00000000
00000000
00000000
00c00000
00600000
00600000
00600000
00600000
00606000
00607000
0031f000
00378000
001c0000
00700000
00c00000
01800000
01000000
03000000
03000000
03000000
01c0f000
01fff000
003f8000
00000000
00000000
00000000
00000000
ENDCHAR
STARTCHAR 2449
ENCODING 9289
SWIDTH	-8531 0
DWIDTH	26 0
BBX 26	27 0 -1
BITMAP
00000000
00000000
00003000
00c01800
0060cc00
00606000
00603000
00600000
00606000
00607000
0031f000
00378000
001c0000
00700000
00c00000
01800000
01000000
03000000
03000000
03000000
01c0f000
01fff000
003f8000
00000000
00000000
00000000
00000000
ENDCHAR
STARTCHAR 244a
ENCODING 9290
SWIDTH	-8531 0
DWIDTH	26 0
BBX 26	27 0 -1
BITMAP
00000000
00000000
00000000
01800000
00c00000
00d80000
10f9e000
0f807800
01801c00
0100fc00
03018800
03010000
02010000
06018000
06018000
0c008000
0c00c000
183fc000
18e0e000
0080f800
0080dc00
00e18c00
003f0000
00000000
00000000
00000000
00000000
ENDCHAR
STARTCHAR 244b
ENCODING 9291
SWIDTH	-8531 0
DWIDTH	26 0
BBX 26	27 0 -1
BITMAP
00000000
00000000
00000000
00000000
18000000
0c000000
0c187800
0c0ffc00
0c00e000
08010000
18000000
18000000
10080000
10100000
10300000
11200000
11200000
1a300000
1a1c0000
0e0ffe00
0e03fe00
06000000
00000000
00000000
00000000
00000000
00000000
ENDCHAR
STARTCHAR 244c
ENCODING 9292
SWIDTH	-8531 0
DWIDTH	26 0
BBX 26	27 0 -1
BITMAP
00000000
00000000
00000000
00180000
000c0000
000c0000
300c0000
187fc000
0dcc7000
0f0c1800
061c0c00
0e180c00
0e180600
0b180600
1b300600
19b00600
19e00600
18e00600
18e3ec00
18c63c00
0d841e00
0f863700
0303e300
00000000
00000000
00000000
00000000
ENDCHAR
STARTCHAR 244d
ENCODING 9293
SWIDTH	-8531 0
DWIDTH	26 0
BBX 26	27 0 -1
BITMAP
00000000
00000000
00000000
01800000
00c00000
00c00000
00e00000
10e1f000
1fcf1800
0cd80c00
00f00c00
00c00c00
01c00c00
02c00c00
06c00c00
04c00c00
0cc00c00
18c7ec00
38cc3c00
12c80e00
01cc1f00
00c7f300
00800000
00000000
00000000
00000000
00000000
ENDCHAR
STARTCHAR 244e
ENCODING 9294
SWIDTH	-8531 0
DWIDTH	26 0
BBX 26	27 0 -1
BITMAP
00000000
00000000
00000000
00000000
00000000
003fc000
00e87000
01881c00
03080c00
06080600
0c080600
0c180300
18100300
18100300
18300300
18300300
18600600
18600600
0cc00c00
0f801800
07007000
0001c000
00000000
00000000
00000000
00000000
00000000
ENDCHAR
STARTCHAR 244f
ENCODING 9295
SWIDTH	-8531 0
DWIDTH	26 0
BBX 26	27 0 -1
BITMAP
00000000
00000000
00000000
0c00e000
06007000
06006000
06006000
06006c00
04387e00
0c0fe000
0c006000
08006000
08006000
08006000
08806000
08806000
0d0fe000
0d387000
07207c00
07206e00
0738e600
030f8000
00000000
00000000
00000000
00000000
00000000
ENDCHAR
STARTCHAR 2450
ENCODING 9296
SWIDTH	-8531 0
DWIDTH	26 0
BBX 26	27 0 -1
BITMAP
00000000
00000000
00000600
00000300
18039980
0c00cc00
0c00c600
0c00c000
0c00d800
0870fc00
181fc000
1800c000
1000c000
1000c000
1000c000
1100c000
1100c000
1a1fc000
1a70e000
0e40f800
0e40dc00
0e71cc00
061f0000
00000000
00000000
00000000
00000000
ENDCHAR
STARTCHAR 2451
ENCODING 9297
SWIDTH	-8531 0
DWIDTH	26 0
BBX 26	27 0 -1
BITMAP
00000000
00000000
00000e00
00001100
18039100
0c00d100
0c00ce00
0c00c000
0c00d800
0870fc00
181fc000
1800c000
1000c000
1000c000
1000c000
1100c000
1100c000
1a1fc000
1a70e000
0e40f800
0e40dc00
0e71cc00
061f0000
00000000
00000000
00000000
00000000
ENDCHAR
STARTCHAR 2452
ENCODING 9298
SWIDTH	-8531 0
DWIDTH	26 0
BBX 26	27 0 -1
BITMAP
00000000
00000000
00000000
00000000
00000000
08186000
0ffc6000
07386000
00606000
00c07000
01805000
01805800
03004800
06004c00
06004600
0c00c700
0c008300
0c008000
0c018000
0e010000
07070000
03fe0000
00f80000
00000000
00000000
00000000
00000000
ENDCHAR
STARTCHAR 2453
ENCODING 9299
SWIDTH	-8531 0
DWIDTH	26 0
BBX 26	27 0 -1
BITMAP
00000000
00000000
00000600
00000300
00001980
1030cc00
1ff8c600
0e70c000
00c0c000
0180e000
0300a000
0300b000
06009000
0c009800
0c008c00
18018e00
18010600
18010000
18030000
1c020000
0e0e0000
07fc0000
01f00000
00000000
00000000
00000000
00000000
ENDCHAR
STARTCHAR 2454
ENCODING 9300
SWIDTH	-8531 0
DWIDTH	26 0
BBX 26	27 0 -1
BITMAP
00000000
00000000
00000000
00000e00
00001100
1030d100
1ff8d100
0e70ce00
00c0c000
0180e000
0300a000
0300b000
06009000
0c009800
0c008c00
18018e00
18010600
18010000
18030000
1c020000
0e0e0000
07fc0000
01f00000
00000000
00000000
00000000
00000000
ENDCHAR
STARTCHAR 2455
ENCODING 9301
SWIDTH	-8531 0
DWIDTH	26 0
BBX 26	27 0 -1
BITMAP
00000000
00000000
00000000
00380000
000e0000
00070000
00070000
001e0000
00300000
00200000
00100000
00080000
000c0000
00060000
003fe000
00e33800
23818c00
2e018600
3c018300
18018300
00430000
003f0000
003c0000
00000000
00000000
00000000
00000000
ENDCHAR
STARTCHAR 2456
ENCODING 9302
SWIDTH	-8531 0
DWIDTH	26 0
BBX 26	27 0 -1
BITMAP
00000000
00000000
00000000
00380000
000e0000
00071800
00070c00
001e6600
00303000
00201800
00100000
00080000
000c0000
00060000
003fe000
00e33800
23818c00
2e018600
3c018300
18018300
00430000
003f0000
003c0000
00000000
00000000
00000000
00000000
ENDCHAR
STARTCHAR 2457
ENCODING 9303
SWIDTH	-8531 0
DWIDTH	26 0
BBX 26	27 0 -1
BITMAP
00000000
00000000
00000000
00380000
000e1c00
00072200
00072200
001e2200
00301c00
00200000
00100000
00080000
000c0000
00060000
003fe000
00e33800
23818c00
2e018600
3c018300
18018300
00430000
003f0000
003c0000
00000000
00000000
00000000
00000000
ENDCHAR
STARTCHAR 2458
ENCODING 9304
SWIDTH	-8531 0
DWIDTH	26 0
BBX 26	27 0 -1
BITMAP
00000000
00000000
00000000
00000000
00000000
00000000
00300000
00780000
00cc0000
00840000
01860000
03030000
03018000
26018000
3e00c000
1c006000
00003000
00001c00
00000e00
00000600
00000000
00000000
00000000
00000000
00000000
00000000
00000000
ENDCHAR
STARTCHAR 2459
ENCODING 9305
SWIDTH	-8531 0
DWIDTH	26 0
BBX 26	27 0 -1
BITMAP
00000000
00000000
00000000
00000000
00000000
00003000
00301800
0078cc00
00cc6000
00843000
01860000
03030000
03018000
26018000
3e00c000
1c006000
00003000
00001c00
00000e00
00000600
00000000
00000000
00000000
00000000
00000000
00000000
00000000
ENDCHAR
STARTCHAR 245a
ENCODING 9306
SWIDTH	-8531 0
DWIDTH	26 0
BBX 26	27 0 -1
BITMAP
00000000
00000000
00000000
00000000
00000000
00003800
00304400
00784400
00cc4400
00843800
01860000
03030000
03018000
26018000
3e00c000
1c006000
00003000
00001c00
00000e00
00000600
00000000
00000000
00000000
00000000
00000000
00000000
00000000
ENDCHAR
STARTCHAR 245b
ENCODING 9307
SWIDTH	-8531 0
DWIDTH	26 0
BBX 26	27 0 -1
BITMAP
00000000
00000000
00000000
18001800
0c387c00
0c0fc000
0c00c000
0c00c000
0c00c000
0800cc00
1870fe00
181fc000
1000c000
1000c000
1000c000
1100c000
1100c000
1a1fe000
1a30f800
0e20dc00
0e30cc00
061f8000
00000000
00000000
00000000
00000000
00000000
ENDCHAR
STARTCHAR 245c
ENCODING 9308
SWIDTH	-8531 0
DWIDTH	26 0
BBX 26	27 0 -1
BITMAP
00000000
00000000
00000600
00000300
30004180
1870ec00
181f8600
18018300
18018000
18018000
10019800
30e1fc00
303f8000
20018000
20018000
20018000
22018000
22018000
343fc000
3461f000
1c41b800
1c619800
0c3f0000
00000000
00000000
00000000
00000000
ENDCHAR
STARTCHAR 245d
ENCODING 9309
SWIDTH	-8531 0
DWIDTH	26 0
BBX 26	27 0 -1
BITMAP
00000000
00000000
00000700
00000880
30004880
1870e880
181f8700
18018000
18018000
18018000
10019800
30e1fc00
303f8000
20018000
20018000
20018000
22018000
22018000
343fc000
3461f000
1c41b800
1c619800
0c3f0000
00000000
00000000
00000000
00000000
ENDCHAR
STARTCHAR 245e
ENCODING 9310
SWIDTH	-8531 0
DWIDTH	26 0
BBX 26	27 0 -1
BITMAP
00000000
00000000
00000000
000e0000
00070000
00060000
00066000
0387f000
00fe0000
00060000
00060000
00063000
0787f800
00fe0000
00060000
00060000
00060000
00060000
01fe0000
0707c000
0406f000
070e3000
01f80000
00000000
00000000
00000000
00000000
ENDCHAR
STARTCHAR 245f
ENCODING 9311
SWIDTH	-8531 0
DWIDTH	26 0
BBX 26	27 0 -1
BITMAP
00000000
00000000
00000000
00000000
00060000
023f0000
03e60000
018c0000
00080000
00183000
00101800
00301800
00601800
03fc1800
0e479800
18c0f800
30803800
31803e00
33007700
1f006300
0e00c000
00038000
000e0000
00000000
00000000
00000000
00000000
ENDCHAR
STARTCHAR 2460
ENCODING 9312
SWIDTH	-8531 0
DWIDTH	26 0
BBX 26	27 0 -1
BITMAP
00000000
00000000
00000000
01800000
00c00000
00c00000
00cc0000
1cfe3000
07f01c00
01800e00
01800e00
0f800400
19c00000
11c00000
11804000
1b804000
0f004000
07004000
03006000
03007000
0380f000
01ffe000
00ff8000
00000000
00000000
00000000
00000000
ENDCHAR
STARTCHAR 2461
ENCODING 9313
SWIDTH	-8531 0
DWIDTH	26 0
BBX 26	27 0 -1
BITMAP
00000000
00000000
00000000
00060000
00030000
0c030000
06030000
06030000
063fe000
02e33800
03860c00
07060c00
0d8c0600
098c0600
18d80600
10700600
10700600
18f80c00
19980c00
0f001800
06003000
0000e000
00038000
00000000
00000000
00000000
00000000
ENDCHAR
STARTCHAR 2462
ENCODING 9314
SWIDTH	-8531 0
DWIDTH	26 0
BBX 26	27 0 -1
BITMAP
00000000
00000000
00300000
00180000
00180000
00300000
06300000
03fe0000
00ff0000
00600000
00600000
0c602000
07fe1000
01ff1800
00c00800
00c00c00
00c00c00
00c00c00
00c01c00
00c01800
00607800
007ff000
001fc000
00000000
00000000
00000000
00000000
ENDCHAR
STARTCHAR 2463
ENCODING 9315
SWIDTH	-8531 0
DWIDTH	26 0
BBX 26	27 0 -1
BITMAP
00000000
00000000
00000000
00000000
00000000
00000000
00000000
00000000
00078000
01c18000
00c00000
00c0c000
0067f000
007c3800
04e01800
07b01800
03301800
00303000
0019e000
00180000
001c0000
000c0000
000c0000
000c0000
00000000
00000000
00000000
ENDCHAR
STARTCHAR 2464
ENCODING 9316
SWIDTH	-8531 0
DWIDTH	26 0
BBX 26	27 0 -1
BITMAP
00000000
00000000
00000000
001f0000
00038000
03870000
06000000
0200fc00
03078600
013c0300
01f00300
27800300
3e800700
18c00600
00401e00
0060f800
00200000
00300000
00300000
00180000
00180000
000c0000
000c0000
000c0000
00000000
00000000
00000000
ENDCHAR
STARTCHAR 2465
ENCODING 9317
SWIDTH	-8531 0
DWIDTH	26 0
BBX 26	27 0 -1
BITMAP
00000000
00000000
00000000
00000000
00000000
00000000
00000000
00000000
00060000
00030000
02030000
030fc000
033b7000
03231800
02631800
02431800
02d31800
03931800
019b3000
010fe000
01030000
00060000
001c0000
00000000
00000000
00000000
00000000
ENDCHAR
STARTCHAR 2466
ENCODING 9318
SWIDTH	-8531 0
DWIDTH	26 0
BBX 26	27 0 -1
BITMAP
00000000
00000000
00070000
00018000
18018000
0c018000
0c1fe000
0871b800
08c18c00
19818400
11018600
13018600
12218600
12218600
1a218600
0e318c00
0f118c00
071b3800
000fe000
00030000
00060000
000c0000
00380000
00e00000
00000000
00000000
00000000
ENDCHAR
STARTCHAR 2467
ENCODING 9319
SWIDTH	-8531 0
DWIDTH	26 0
BBX 26	27 0 -1
BITMAP
00000000
00000000
00000000
00000000
00000000
00000000
00000000
00000000
00180000
000c0000
000c0000
000c0000
000c6000
000ff000
000c0000
000c0000
000c0000
000c0000
00fc0000
038f8000
030cf000
038c3000
00f80000
00000000
00000000
00000000
00000000
ENDCHAR
STARTCHAR 2468
ENCODING 9320
SWIDTH	-8531 0
DWIDTH	26 0
BBX 26	27 0 -1
BITMAP
00000000
00000000
00000000
00180000
000c0000
000e0000
000c0000
000c0000
000c0000
000c7000
000ff800
000c0000
000c0000
000c0000
000c0000
000c0000
000c0000
000c0000
03fe0000
0e0fe000
080c7800
0e1c1800
03f00000
00000000
00000000
00000000
00000000
ENDCHAR
STARTCHAR 2469
ENCODING 9321
SWIDTH	-8531 0
DWIDTH	26 0
BBX 26	27 0 -1
BITMAP
00000000
00000000
00c00000
00700000
001f0000
001f8000
00200000
00800000
01800000
03000000
03000000
03000000
03000000
0307c000
033c7000
03e03000
03c01800
03801800
00001800
00003800
00003000
0000f000
0007c000
003e0000
00000000
00000000
00000000
ENDCHAR
STARTCHAR 246a
ENCODING 9322
SWIDTH	-8531 0
DWIDTH	26 0
BBX 26	27 0 -1
BITMAP
00000000
00000000
03000000
01800000
01878000
018cc000
01186000
01106000
01303000
03203000
03203000
03603000
03403000
03c03000
01c03000
01803000
00003000
00006000
00006000
0000e000
0000c000
00018000
00070000
003c0000
00000000
00000000
00000000
ENDCHAR
STARTCHAR 246b
ENCODING 9323
SWIDTH	-8531 0
DWIDTH	26 0
BBX 26	27 0 -1
BITMAP
00000000
00000000
00000000
00000000
00018000
021fc000
03f1c000
01830000
00060000
001c0000
00300000
00600000
01df8000
03e0e000
07803000
0e003800
0c001800
00001800
007c1800
00c63000
00833000
00c3e000
007f8000
00000000
00000000
00000000
00000000
ENDCHAR
STARTCHAR 246c
ENCODING 9324
SWIDTH	-8531 0
DWIDTH	26 0
BBX 26	27 0 -1
BITMAP
00000000
00000000
00000000
01800000
00c00000
00c00000
00e1e000
00e77000
13cc3000
1ed83000
0cf03000
00e06000
01c06000
01c06000
03c06000
06c06000
0cc0c000
1cc0c100
18c0c300
02c0c600
01c07c00
00c03000
00800000
00000000
00000000
00000000
00000000
ENDCHAR
STARTCHAR 246d
ENCODING 9325
SWIDTH	-8531 0
DWIDTH	26 0
BBX 26	27 0 -1
BITMAP
00000000
00000000
00000000
00000000
00018000
021fc000
03f1c000
01830000
00060000
001c0000
00300000
00600000
01df8000
03e0e000
07803000
0e003800
0c001800
00001800
00003000
00003000
0000e000
0007c000
007e0000
00000000
00000000
00000000
00000000
ENDCHAR
STARTCHAR 246e
ENCODING 9326
SWIDTH	-8531 0
DWIDTH	26 0
BBX 26	27 0 -1
BITMAP
00000000
00000000
00000000
00000000
00000000
00000000
00000000
00000000
00c00000
00600000
00600000
00700000
07e3e000
036e3000
00701800
00e01800
01601800
02601800
06601800
0c603000
09606000
00e1c000
00630000
00400000
00000000
00000000
00000000
ENDCHAR
STARTCHAR 246f
ENCODING 9327
SWIDTH	-8531 0
DWIDTH	26 0
BBX 26	27 0 -1
BITMAP
00000000
00000000
00000000
00c00000
00600000
00600000
00700000
08700000
0fe1e000
066f3800
00780c00
00f00c00
00e00600
01e00600
03600600
06600600
0e600600
1c600c00
18600c00
01601800
00e07000
0061c000
00400000
00000000
00000000
00000000
00000000
ENDCHAR
STARTCHAR 2470
ENCODING 9328
SWIDTH	-8531 0
DWIDTH	26 0
BBX 26	27 0 -1
BITMAP
00000000
00000000
00000000
00000000
00060000
031f0000
01f60000
00060000
000c0000
000c0000
001fe000
00783800
01f00c00
03300c00
06600600
04600600
0cc00600
09800600
098f0c00
0f19cc00
0e10d800
0418f000
000fc000
00000000
00000000
00000000
00000000
ENDCHAR
STARTCHAR 2471
ENCODING 9329
SWIDTH	-8531 0
DWIDTH	26 0
BBX 26	27 0 -1
BITMAP
00000000
00000000
00030000
019f8000
00f30000
00060000
000c0000
00180000
003fc000
00606000
00c03000
019c3000
00263000
00266000
001fc000
000c0000
00380000
00e00000
0180e000
07e3b800
0e340c00
1c1c0e00
18180600
00000000
00000000
00000000
00000000
ENDCHAR
STARTCHAR 2472
ENCODING 9330
SWIDTH	-8531 0
DWIDTH	26 0
BBX 26	27 0 -1
BITMAP
00000000
00000000
00000000
00300000
00180000
00198000
041fc000
03f80000
00300000
00600000
00c00000
00bc1000
01e6f800
0307f000
060e0000
0c3e0000
00660000
00860000
01800000
01000000
01800000
00ffe000
007fe000
00000000
00000000
00000000
00000000
ENDCHAR
STARTCHAR 2473
ENCODING 9331
SWIDTH	-8531 0
DWIDTH	26 0
BBX 26	27 0 -1
BITMAP
00000000
00000000
00000000
00180000
000c0000
000c0000
00180000
00180000
00300000
00300000
00600000
00400000
00dc0000
00a60000
01c30000
03830200
03030200
06030600
06030400
0c030c00
0c031800
1803f800
1801e000
00000000
00000000
00000000
00000000
ENDCHAR
STARTCHAR 2521
ENCODING 9505
SWIDTH	-8531 0
DWIDTH	26 0
BBX 26	27 0 -1
BITMAP
00000000
00000000
00000000
00000000
00000000
00000000
00000000
00000000
00003000
0203f800
03fe3800
01c03000
00083000
000c6000
000cc000
000d8000
000c0000
00180000
00180000
00300000
00300000
00600000
00c00000
00000000
00000000
00000000
00000000
ENDCHAR
STARTCHAR 2522
ENCODING 9506
SWIDTH	-8531 0
DWIDTH	26 0
BBX 26	27 0 -1
BITMAP
00000000
00000000
00000000
00000000
00001800
0807fc00
0ffc0e00
07800e00
00000c00
00181800
000c1800
000c3000
000ce000
000d8000
001c0000
00180000
00180000
00300000
00300000
00600000
00c00000
01800000
03000000
00000000
00000000
00000000
00000000
ENDCHAR
STARTCHAR 2523
ENCODING 9507
SWIDTH	-8531 0
DWIDTH	26 0
BBX 26	27 0 -1
BITMAP
00000000
00000000
00000000
00000000
00000000
00000000
00000000
00000000
00004000
00006000
0000e000
0001c000
00038000
00070000
001e0000
00760000
01c60000
07060000
00060000
00060000
00060000
00060000
00060000
00000000
00000000
00000000
00000000
ENDCHAR
STARTCHAR 2524
ENCODING 9508
SWIDTH	-8531 0
DWIDTH	26 0
BBX 26	27 0 -1
BITMAP
00000000
00000000
00000000
00003000
00001800
00003800
00007000
0000e000
0001c000
00038000
00070000
001f0000
003b0000
00e30000
03830000
0e030000
00030000
00030000
00030000
00030000
00030000
00030000
00030000
00000000
00000000
00000000
00000000
ENDCHAR
STARTCHAR 2525
ENCODING 9509
SWIDTH	-8531 0
DWIDTH	26 0
BBX 26	27 0 -1
BITMAP
00000000
00000000
00000000
00000000
00000000
00000000
00000000
00000000
00180000
000c0000
000c3000
060ff800
03f83800
03003000
03003000
03003000
03006000
00006000
0000c000
00018000
00030000
000e0000
00380000
00000000
00000000
00000000
00000000
ENDCHAR
STARTCHAR 2526
ENCODING 9510
SWIDTH	-8531 0
DWIDTH	26 0
BBX 26	27 0 -1
BITMAP
00000000
00000000
00000000
001c0000
000e0000
000c0000
000c1800
0c0ffc00
07f80e00
06000e00
06000c00
06000c00
06001800
06001800
06001800
00003000
00003000
00006000
0000c000
00018000
00030000
000e0000
00780000
00000000
00000000
00000000
00000000
ENDCHAR
STARTCHAR 2527
ENCODING 9511
SWIDTH	-8531 0
DWIDTH	26 0
BBX 26	27 0 -1
BITMAP
00000000
00000000
00000000
00000000
00000000
00000000
00000000
00000000
00000000
00000000
0000c000
0107e000
01fc3000
00cc0000
000c0000
000c0000
000c0000
000c0000
000c0000
000c6000
020ff000
03f81800
01800000
00000000
00000000
00000000
00000000
ENDCHAR
STARTCHAR 2528
ENCODING 9512
SWIDTH	-8531 0
DWIDTH	26 0
BBX 26	27 0 -1
BITMAP
00000000
00000000
00000000
00000000
00000000
00000000
00006000
0407f000
07fc1800
030c0000
000c0000
000c0000
000c0000
000c0000
000c0000
000c0000
000c0000
000c0000
000c1800
100ffc00
1ff80600
0e000000
00000000
00000000
00000000
00000000
00000000
ENDCHAR
STARTCHAR 2529
ENCODING 9513
SWIDTH	-8531 0
DWIDTH	26 0
BBX 26	27 0 -1
BITMAP
00000000
00000000
00000000
00000000
00000000
00000000
00000000
00000000
00030000
00018000
00018000
0201f000
03ff9800
01878000
00078000
000d8000
00198000
00318000
00618000
01c18000
03018000
000f8000
00018000
00000000
00000000
00000000
00000000
ENDCHAR
STARTCHAR 252a
ENCODING 9514
SWIDTH	-8531 0
DWIDTH	26 0
BBX 26	27 0 -1
BITMAP
00000000
00000000
00000000
0001c000
0000e000
0000c000
0000c000
0000c400
0400fe00
07ffc300
0381c000
0003c000
0002c000
0006c000
000cc000
0018c000
0030c000
0060c000
00c0c000
0380c000
0e04c000
0003c000
00018000
00000000
00000000
00000000
00000000
ENDCHAR
STARTCHAR 252b
ENCODING 9515
SWIDTH	-8531 0
DWIDTH	26 0
BBX 26	27 0 -1
BITMAP
00000000
00000000
00000000
001c0000
000e0000
000c0000
000c0000
000c1c00
080ffe00
0ffc0e00
070c0c00
00180c00
00180c00
00180c00
00180c00
00300c00
00301c00
00601800
00601800
00c43800
01833000
0301f000
0601e000
00000000
00000000
00000000
00000000
ENDCHAR
STARTCHAR 252c
ENCODING 9516
SWIDTH	-8531 0
DWIDTH	26 0
BBX 26	27 0 -1
BITMAP
00000000
00000000
00000c00
00386600
001c3300
00181800
00180000
00186000
101ff000
1ff83800
0e183800
00303000
00303000
00303000
00303000
00603000
00603000
00c07000
00c06000
01806000
0304c000
0603c000
0c038000
00000000
00000000
00000000
00000000
ENDCHAR
STARTCHAR 252d
ENCODING 9517
SWIDTH	-8531 0
DWIDTH	26 0
BBX 26	27 0 -1
BITMAP
00000000
00000000
00000000
00300000
00780000
00180000
00186000
081bf000
0ffe1800
070c0000
000c0000
000c0000
000c0000
00061800
081ffc00
0ff60600
07060000
00060000
00060000
00030000
00030000
00030000
00030000
00000000
00000000
00000000
00000000
ENDCHAR
STARTCHAR 252e
ENCODING 9518
SWIDTH	-8531 0
DWIDTH	26 0
BBX 26	27 0 -1
BITMAP
00000000
00000000
00000c00
00e06600
00703300
00301800
0030c000
0837e000
0ffc3000
06180000
00180000
00180000
00183000
000df800
103f0c00
1fec0000
0e0c0000
000c0000
000c0000
00060000
00060000
00060000
00060000
00000000
00000000
00000000
00000000
ENDCHAR
STARTCHAR 252f
ENCODING 9519
SWIDTH	-8531 0
DWIDTH	26 0
BBX 26	27 0 -1
BITMAP
00000000
00000000
00000000
00600000
00300000
00300000
00606000
0063f000
00fe3800
00c03800
01803000
03003000
06007000
0c006000
0000c000
0000c000
00018000
00030000
00060000
000c0000
00380000
00e00000
07800000
00000000
00000000
00000000
00000000
ENDCHAR
STARTCHAR 2530
ENCODING 9520
SWIDTH	-8531 0
DWIDTH	26 0
BBX 26	27 0 -1
BITMAP
00000000
00000000
00000c00
00c00600
00603300
00601800
0060cc00
00c7e000
00fc7000
01807000
03006000
0600e000
0c00c000
1801c000
00018000
00030000
00070000
000e0000
001c0000
00380000
00600000
01c00000
0f000000
00000000
00000000
00000000
00000000
ENDCHAR
STARTCHAR 2531
ENCODING 9521
SWIDTH	-8531 0
DWIDTH	26 0
BBX 26	27 0 -1
BITMAP
00000000
00000000
00000000
00e00000
00700000
00600000
00600000
00c00c00
00c1fe00
01ff0300
01818000
0301c000
06018000
0c018000
18038000
00030000
00030000
00060000
00060000
000c0000
00180000
00700000
01c00000
00000000
00000000
00000000
00000000
ENDCHAR
STARTCHAR 2532
ENCODING 9522
SWIDTH	-8531 0
DWIDTH	26 0
BBX 26	27 0 -1
BITMAP
00000000
00000000
00000c00
00e06600
00703300
00601800
00600000
00c01800
00c1fc00
01ff8600
01818000
03018000
06018000
0c018000
18030000
00030000
00060000
00060000
000c0000
00180000
00300000
00e00000
03800000
00000000
00000000
00000000
00000000
ENDCHAR
STARTCHAR 2533
ENCODING 9523
SWIDTH	-8531 0
DWIDTH	26 0
BBX 26	27 0 -1
BITMAP
00000000
00000000
00000000
00000000
00000000
00000000
00000000
0000c000
040fe000
07f87000
03807000
00006000
00006000
00006000
00006000
0000e000
0000c000
0000c000
0000c000
0800e000
0ffff000
07800000
00000000
00000000
00000000
00000000
00000000
ENDCHAR
STARTCHAR 2534
ENCODING 9524
SWIDTH	-8531 0
DWIDTH	26 0
BBX 26	27 0 -1
BITMAP
00000000
00000000
00000c00
00000600
00003300
00001800
00000c00
0000c000
040fe000
07f87000
03807000
00006000
00006000
00006000
00006000
0000e000
0000c000
0000c000
0000c000
0800e000
0ffff000
07800000
00000000
00000000
00000000
00000000
00000000
ENDCHAR
STARTCHAR 2535
ENCODING 9525
SWIDTH	-8531 0
DWIDTH	26 0
BBX 26	27 0 -1
BITMAP
00000000
00000000
00000000
0001c000
0380e000
01c0c000
0180c000
0180c000
0180c400
2187fe00
3ffcc300
1980c000
0180c000
0180c000
01818000
01818000
00018000
00030000
00030000
00060000
000c0000
00380000
00e00000
00000000
00000000
00000000
00000000
ENDCHAR
STARTCHAR 2536
ENCODING 9526
SWIDTH	-8531 0
DWIDTH	26 0
BBX 26	27 0 -1
BITMAP
00000000
00000000
00000c00
00038600
0701c300
03819800
03018c00
03018600
03019000
230ff800
3ff98c00
1b018000
03018000
03018000
03030000
03030000
00030000
00060000
00060000
000c0000
00180000
00700000
01c00000
00000000
00000000
00000000
00000000
ENDCHAR
STARTCHAR 2537
ENCODING 9527
SWIDTH	-8531 0
DWIDTH	26 0
BBX 26	27 0 -1
BITMAP
00000000
00000000
00000000
03800000
00e00000
00700000
00300000
00000000
00000400
1c000400
07000c00
03800800
01801800
00003000
00007000
0000e000
0001c000
00038000
000f0000
043c0000
07f80000
03e00000
01800000
00000000
00000000
00000000
00000000
ENDCHAR
STARTCHAR 2538
ENCODING 9528
SWIDTH	-8531 0
DWIDTH	26 0
BBX 26	27 0 -1
BITMAP
00000000
00000000
00000c00
03800600
00e03300
00701800
00300c00
00000000
00000400
1c000400
07000c00
03800800
01801800
00003000
00007000
0000e000
0001c000
00038000
000f0000
043c0000
07f80000
03e00000
01800000
00000000
00000000
00000000
00000000
ENDCHAR
STARTCHAR 2539
ENCODING 9529
SWIDTH	-8531 0
DWIDTH	26 0
BBX 26	27 0 -1
BITMAP
00000000
00000000
00000000
00000000
00018000
040fc000
07f8e000
0380e000
0000c000
00018000
00018000
00030000
00030000
00060000
000c0000
000e0000
001b8000
0030c000
00606000
00c03000
01801800
07001c00
1c000c00
00000000
00000000
00000000
00000000
ENDCHAR
STARTCHAR 253a
ENCODING 9530
SWIDTH	-8531 0
DWIDTH	26 0
BBX 26	27 0 -1
BITMAP
00000000
00000000
00000c00
00000600
00030300
083f9800
0fe1cc00
0701c600
00018000
00038000
00030000
00070000
00060000
000e0000
001c0000
001e0000
00330000
00618000
00c0c000
01806000
03003000
0e003800
18001800
00000000
00000000
00000000
00000000
ENDCHAR
STARTCHAR 253b
ENCODING 9531
SWIDTH	-8531 0
DWIDTH	26 0
BBX 26	27 0 -1
BITMAP
00000000
00000000
00000000
01c00000
00e00000
00c00000
00c00000
00c03000
00c7f800
10fc1c00
1fc03800
0cc03000
00c06000
00c1c000
00c30000
00c00000
00c00000
00c00000
00c00000
00e03800
007ff800
003fc000
00000000
00000000
00000000
00000000
00000000
ENDCHAR
STARTCHAR 253c
ENCODING 9532
SWIDTH	-8531 0
DWIDTH	26 0
BBX 26	27 0 -1
BITMAP
00000000
00000000
00000c00
03800600
01c03300
01801800
01800c00
01806000
0187f000
21fc3800
3f807000
19806000
0180c000
01838000
01860000
01800000
01800000
01800000
01800000
01c0e000
00ffe000
007f8000
00000000
00000000
00000000
00000000
00000000
ENDCHAR
STARTCHAR 253d
ENCODING 9533
SWIDTH	-8531 0
DWIDTH	26 0
BBX 26	27 0 -1
BITMAP
00000000
00000000
00000000
00000000
08007000
04001800
06001c00
03001c00
03801800
01801800
01c03800
01803000
00003000
00006000
00006000
0000c000
0000c000
00018000
00030000
00060000
000c0000
00380000
00e00000
00000000
00000000
00000000
00000000
ENDCHAR
STARTCHAR 253e
ENCODING 9534
SWIDTH	-8531 0
DWIDTH	26 0
BBX 26	27 0 -1
BITMAP
00000000
00000000
00000600
00000300
2001c180
1000ec00
1800e600
0c00c300
0e00c000
0600c000
0700c000
0600c000
00018000
00018000
00018000
00030000
00030000
00060000
000c0000
00180000
00300000
00e00000
03800000
00000000
00000000
00000000
00000000
ENDCHAR
STARTCHAR 253f
ENCODING 9535
SWIDTH	-8531 0
DWIDTH	26 0
BBX 26	27 0 -1
BITMAP
00000000
00000000
00000000
00600000
00300000
00700000
00606000
00c3f000
00fe3800
01803800
03003000
07006000
0ce06000
1838c000
001dc000
000f8000
00030000
00060000
000c0000
00380000
00700000
01c00000
0f000000
00000000
00000000
00000000
00000000
ENDCHAR
STARTCHAR 2540
ENCODING 9536
SWIDTH	-8531 0
DWIDTH	26 0
BBX 26	27 0 -1
BITMAP
00000000
00000000
00000600
00c00300
00601980
00e00c00
00c0c600
0187e000
01fc7000
03007000
06006000
0e00c000
19c0c000
30718000
003b8000
001f0000
00060000
000c0000
00180000
00700000
00e00000
03800000
1e000000
00000000
00000000
00000000
00000000
ENDCHAR
STARTCHAR 2541
ENCODING 9537
SWIDTH	-8531 0
DWIDTH	26 0
BBX 26	27 0 -1
BITMAP
00000000
00000000
00000000
0000c000
00007000
0003f000
001fc000
07f60000
00060000
00060000
00061800
1007fc00
1ffe0600
0e060000
00060000
000c0000
000c0000
000c0000
00180000
00300000
00600000
01c00000
07000000
00000000
00000000
00000000
00000000
ENDCHAR
STARTCHAR 2542
ENCODING 9538
SWIDTH	-8531 0
DWIDTH	26 0
BBX 26	27 0 -1
BITMAP
00000000
00000000
00000600
00018300
0000c180
0007ec00
003fc600
0fec0300
000c0000
000c0000
000c3000
200ff800
3ffc0c00
1c0c0000
001c0000
00180000
00180000
00300000
00300000
00600000
00c00000
03800000
0e000000
00000000
00000000
00000000
00000000
ENDCHAR
STARTCHAR 2543
ENCODING 9539
SWIDTH	-8531 0
DWIDTH	26 0
BBX 26	27 0 -1
BITMAP
00000000
00000000
00000000
00000000
00000000
00000000
00000000
00000000
00200000
00106000
04183000
020c3800
030c3800
01803000
01807000
00006000
0000c000
0000c000
00018000
00030000
00060000
001c0000
00700000
00000000
00000000
00000000
00000000
ENDCHAR
STARTCHAR 2544
ENCODING 9540
SWIDTH	-8531 0
DWIDTH	26 0
BBX 26	27 0 -1
BITMAP
00000000
00000000
00000000
00000000
00400000
00207000
10301800
08381c00
0c181c00
061c1800
07181800
03003800
03003000
00003000
00006000
00006000
0000c000
00018000
00030000
00060000
001c0000
00700000
01c00000
00000000
00000000
00000000
00000000
ENDCHAR
STARTCHAR 2545
ENCODING 9541
SWIDTH	-8531 0
DWIDTH	26 0
BBX 26	27 0 -1
BITMAP
00000000
00000000
00000600
00006300
00803180
00401800
20600000
10606000
18303000
0c303800
0c303000
06003000
06006000
00006000
0000c000
0000c000
00018000
00030000
00060000
000c0000
00380000
00e00000
03800000
00000000
00000000
00000000
00000000
ENDCHAR
STARTCHAR 2546
ENCODING 9542
SWIDTH	-8531 0
DWIDTH	26 0
BBX 26	27 0 -1
BITMAP
00000000
00000000
00000000
00004000
0207e000
03fc3000
01800000
00000000
00000000
00001800
1007fc00
1ffe0600
0e060000
00060000
00060000
00060000
000c0000
000c0000
00180000
00180000
00300000
00e00000
03800000
00000000
00000000
00000000
00000000
ENDCHAR
STARTCHAR 2547
ENCODING 9543
SWIDTH	-8531 0
DWIDTH	26 0
BBX 26	27 0 -1
BITMAP
00000000
00000000
00000600
00008300
040fc180
07f80c00
03000600
00000300
00000000
00003000
200ff800
3ffc0000
1c0c0000
000c0000
000c0000
00180000
00180000
00180000
00300000
00600000
00c00000
03800000
06000000
00000000
00000000
00000000
00000000
ENDCHAR
STARTCHAR 2548
ENCODING 9544
SWIDTH	-8531 0
DWIDTH	26 0
BBX 26	27 0 -1
BITMAP
00000000
00000000
00000000
00c00000
00600000
00700000
00600000
00600000
00600000
00600000
00600000
007e0000
00678000
0061c000
0060e000
00606000
00600000
00600000
00600000
00600000
00600000
00600000
00600000
00000000
00000000
00000000
00000000
ENDCHAR
STARTCHAR 2549
ENCODING 9545
SWIDTH	-8531 0
DWIDTH	26 0
BBX 26	27 0 -1
BITMAP
00000000
00000000
00000000
00c01800
00600c00
0070c600
00606000
00603000
00600000
00600000
007c0000
00670000
0061c000
0060e000
00607000
00603000
00600000
00600000
00600000
00600000
00600000
00600000
00600000
00000000
00000000
00000000
00000000
ENDCHAR
STARTCHAR 254a
ENCODING 9546
SWIDTH	-8531 0
DWIDTH	26 0
BBX 26	27 0 -1
BITMAP
00000000
00000000
00000000
000c0000
00060000
00070000
00060000
00060000
00060c00
3007fe00
1ffe0300
0e060000
00060000
00060000
000c0000
000c0000
000c0000
00180000
00180000
00300000
00600000
01c00000
07000000
00000000
00000000
00000000
00000000
ENDCHAR
STARTCHAR 254b
ENCODING 9547
SWIDTH	-8531 0
DWIDTH	26 0
BBX 26	27 0 -1
BITMAP
00000000
00000000
00000000
00000000
00000000
00000000
0000c000
040ff000
07f81800
03800000
00000000
00000000
00000000
00000000
00000000
00000000
00000000
00003000
1807fc00
0ffc0600
07000000
00000000
00000000
00000000
00000000
00000000
00000000
ENDCHAR
STARTCHAR 254c
ENCODING 9548
SWIDTH	-8531 0
DWIDTH	26 0
BBX 26	27 0 -1
BITMAP
00000000
00000000
00000000
00000000
0000c000
020fe000
03f87000
01807000
00006000
0000c000
0000c000
01c18000
00718000
001f0000
00070000
00078000
000ce000
00187000
00303800
00601800
00c00000
03800000
0e000000
00000000
00000000
00000000
00000000
ENDCHAR
STARTCHAR 254d
ENCODING 9549
SWIDTH	-8531 0
DWIDTH	26 0
BBX 26	27 0 -1
BITMAP
00000000
00000000
00000000
00780000
000f0000
00030000
00000000
00006000
020ff000
03f86000
0180c000
00018000
00030000
00060000
000ec000
003e7000
00e61800
03860c00
0e060c00
00060000
00060000
00060000
00060000
00000000
00000000
00000000
00000000
ENDCHAR
STARTCHAR 254e
ENCODING 9550
SWIDTH	-8531 0
DWIDTH	26 0
BBX 26	27 0 -1
BITMAP
00000000
00000000
00000000
00000000
00000000
0000e000
00003000
00003800
00003800
00007000
00006000
0000e000
0001c000
00018000
00030000
00060000
000c0000
00180000
00300000
00e00000
03800000
0e000000
00000000
00000000
00000000
00000000
00000000
ENDCHAR
STARTCHAR 254f
ENCODING 9551
SWIDTH	-8531 0
DWIDTH	26 0
BBX 26	27 0 -1
BITMAP
00000000
00000000
00000000
00000000
00000000
00000000
00c20000
00610000
00708000
0060c000
00606000
00e06000
00c03000
00c01800
01801800
01801c00
03000c00
03000e00
06000600
0c000600
10000000
00000000
00000000
00000000
00000000
00000000
00000000
ENDCHAR
STARTCHAR 2550
ENCODING 9552
SWIDTH	-8531 0
DWIDTH	26 0
BBX 26	27 0 -1
BITMAP
00000000
00000000
00000000
00001800
00000c00
00006600
00c23000
00611800
00708000
0060c000
00604000
00e06000
00c03000
00c03000
01801800
01801800
03001800
03000c00
06000c00
0c000c00
10000000
00000000
00000000
00000000
00000000
00000000
00000000
ENDCHAR
STARTCHAR 2551
ENCODING 9553
SWIDTH	-8531 0
DWIDTH	26 0
BBX 26	27 0 -1
BITMAP
00000000
00000000
00000000
00001c00
00002200
00002200
01842200
00c21c00
00e10000
00c18000
00c08000
01c0c000
01806000
01806000
03003000
03003000
06003000
06001800
0c001800
18001800
20000000
00000000
00000000
00000000
00000000
00000000
00000000
ENDCHAR
STARTCHAR 2552
ENCODING 9554
SWIDTH	-8531 0
DWIDTH	26 0
BBX 26	27 0 -1
BITMAP
00000000
00000000
00000000
06000000
03000000
03800000
03000000
03006000
03007000
0300e000
03038000
031e0000
03f00000
03000000
03000000
03000000
03000000
03000000
03000000
03807000
01fff000
00ffc000
00000000
00000000
00000000
00000000
00000000
ENDCHAR
STARTCHAR 2553
ENCODING 9555
SWIDTH	-8531 0
DWIDTH	26 0
BBX 26	27 0 -1
BITMAP
00000000
00000000
00000000
06000c00
03000600
03803300
03001800
03018c00
0301c000
0303c000
030f0000
033c0000
03e00000
03000000
03000000
03000000
03000000
03000000
03000000
0380e000
01ffe000
00ff8000
00000000
00000000
00000000
00000000
00000000
ENDCHAR
STARTCHAR 2554
ENCODING 9556
SWIDTH	-8531 0
DWIDTH	26 0
BBX 26	27 0 -1
BITMAP
00000000
00000000
00000000
06001c00
03002200
03802200
03002200
03011c00
03018000
0303c000
030f8000
033c0000
03e00000
03000000
03000000
03000000
03000000
03000000
03000000
03807000
01fff000
00ffc000
00000000
00000000
00000000
00000000
00000000
ENDCHAR
STARTCHAR 2555
ENCODING 9557
SWIDTH	-8531 0
DWIDTH	26 0
BBX 26	27 0 -1
BITMAP
00000000
00000000
00000000
00000000
00000000
00001800
0807fc00
0ffc1c00
07801800
00001800
00003800
00003000
00003000
00006000
0000c000
0000c000
00018000
00030000
00060000
000c0000
00380000
00e00000
03800000
00000000
00000000
00000000
00000000
ENDCHAR
STARTCHAR 2556
ENCODING 9558
SWIDTH	-8531 0
DWIDTH	26 0
BBX 26	27 0 -1
BITMAP
00000000
00000000
00000600
00000300
00001980
00018c00
201fc600
3ff0e000
1e00e000
0000c000
0000c000
00018000
00018000
00030000
00030000
00060000
000c0000
00180000
00300000
00600000
01c00000
03000000
0e000000
00000000
00000000
00000000
00000000
ENDCHAR
STARTCHAR 2557
ENCODING 9559
SWIDTH	-8531 0
DWIDTH	26 0
BBX 26	27 0 -1
BITMAP
00000000
00000000
00000700
00000880
00000880
00018880
203fc700
3fe0e000
1c00e000
0000c000
0000c000
00018000
00018000
00018000
00030000
00060000
00060000
000c0000
00180000
00300000
00600000
01c00000
07000000
00000000
00000000
00000000
00000000
ENDCHAR
STARTCHAR 2558
ENCODING 9560
SWIDTH	-8531 0
DWIDTH	26 0
BBX 26	27 0 -1
BITMAP
00000000
00000000
00000000
00000000
00000000
00000000
00300000
00780000
00cc0000
00840000
01860000
03030000
03018000
26018000
3e00c000
1c006000
00003000
00001c00
00000e00
00000600
00000000
00000000
00000000
00000000
00000000
00000000
00000000
ENDCHAR
STARTCHAR 2559
ENCODING 9561
SWIDTH	-8531 0
DWIDTH	26 0
BBX 26	27 0 -1
BITMAP
00000000
00000000
00000000
00000000
00001800
00000c00
0030c600
00786000
00cc3000
00840000
01860000
03030000
03018000
26018000
3e00c000
1c006000
00003000
00001c00
00000e00
00000600
00000000
00000000
00000000
00000000
00000000
00000000
00000000
ENDCHAR
STARTCHAR 255a
ENCODING 9562
SWIDTH	-8531 0
DWIDTH	26 0
BBX 26	27 0 -1
BITMAP
00000000
00000000
00000000
00000000
00007000
00008800
00308800
00788800
00cc7000
00840000
01860000
03030000
03018000
26018000
3e00c000
1c006000
00003000
00001c00
00000e00
00000600
00000000
00000000
00000000
00000000
00000000
00000000
00000000
ENDCHAR
STARTCHAR 255b
ENCODING 9563
SWIDTH	-8531 0
DWIDTH	26 0
BBX 26	27 0 -1
BITMAP
00000000
00000000
00000000
000e0000
00070000
00060000
00060000
00061800
0807fc00
0ffe0600
07060000
00060000
00464000
00462000
00c63000
00861800
01860c00
03060c00
06060600
0c060600
00260000
001e0000
000c0000
00000000
00000000
00000000
00000000
ENDCHAR
STARTCHAR 255c
ENCODING 9564
SWIDTH	-8531 0
DWIDTH	26 0
BBX 26	27 0 -1
BITMAP
00000000
00000000
00000600
001c0300
000e1980
000c0c00
000c0600
000c2000
100ff000
1ffc1800
0e0c0000
000c0000
008c8000
008c4000
018c6000
010c3000
030c1800
060c1800
0c0c0c00
180c0c00
004c0000
003c0000
00180000
00000000
00000000
00000000
00000000
ENDCHAR
STARTCHAR 255d
ENCODING 9565
SWIDTH	-8531 0
DWIDTH	26 0
BBX 26	27 0 -1
BITMAP
00000000
00000000
00000e00
001c1100
000e1100
000c1100
000c0e00
000c2000
100ff000
1ffc1800
0e0c0000
000c0000
008c8000
008c4000
018c6000
010c3000
030c1800
060c1800
0c0c0c00
180c0c00
004c0000
003c0000
00180000
00000000
00000000
00000000
00000000
ENDCHAR
STARTCHAR 255e
ENCODING 9566
SWIDTH	-8531 0
DWIDTH	26 0
BBX 26	27 0 -1
BITMAP
00000000
00000000
00000000
00000000
00000000
00001800
1007fc00
1ffc0e00
0f000e00
00001c00
00001800
00003000
00006000
0180c000
00e18000
00330000
001e0000
000e0000
00070000
00030000
00038000
00018000
00000000
00000000
00000000
00000000
00000000
ENDCHAR
STARTCHAR 255f
ENCODING 9567
SWIDTH	-8531 0
DWIDTH	26 0
BBX 26	27 0 -1
BITMAP
00000000
00000000
00000000
00000000
03e00000
003e0000
000f8000
0001e000
00007000
00003000
03c00000
007c0000
000f0000
0003c000
0000e000
00006000
00000000
07e00000
007e0000
000fc000
0001f000
00007800
00001800
00000000
00000000
00000000
00000000
ENDCHAR
STARTCHAR 2560
ENCODING 9568
SWIDTH	-8531 0
DWIDTH	26 0
BBX 26	27 0 -1
BITMAP
00000000
00000000
00000000
00000000
00300000
00180000
001c0000
001c0000
00380000
00300000
00300000
00600000
00600000
00404000
00c02000
00803000
01801800
01001800
0300fc00
121f8c00
1ff80e00
0f800e00
06000400
00000000
00000000
00000000
00000000
ENDCHAR
STARTCHAR 2561
ENCODING 9569
SWIDTH	-8531 0
DWIDTH	26 0
BBX 26	27 0 -1
BITMAP
00000000
00000000
00000000
00000000
00006000
00003000
00003800
00003800
00003000
01c07000
00706000
001ce000
0006c000
0003c000
00018000
0003e000
00067000
000c3800
00181c00
00300c00
00e00000
03800000
0e000000
00000000
00000000
00000000
00000000
ENDCHAR
STARTCHAR 2562
ENCODING 9570
SWIDTH	-8531 0
DWIDTH	26 0
BBX 26	27 0 -1
BITMAP
00000000
00000000
00000000
00000000
00006000
0407f000
07fc1800
03300000
00300000
00300000
00301800
1033fc00
1ffe0600
0e300000
00300000
00300000
00300000
00300000
00300000
00383800
001ff800
000fe000
00000000
00000000
00000000
00000000
00000000
ENDCHAR
STARTCHAR 2563
ENCODING 9571
SWIDTH	-8531 0
DWIDTH	26 0
BBX 26	27 0 -1
BITMAP
00000000
00000000
00000000
00000000
00000000
00000000
00000000
00000000
00600000
00300000
00303000
0033f800
023e3800
03d03000
01986000
0018c000
00190000
00180000
000c0000
000c0000
000c0000
000c0000
000c0000
00000000
00000000
00000000
00000000
ENDCHAR
STARTCHAR 2564
ENCODING 9572
SWIDTH	-8531 0
DWIDTH	26 0
BBX 26	27 0 -1
BITMAP
00000000
00000000
00000000
01800000
03c00000
00c00000
00c00000
00c01800
0063fc00
207e0e00
3fe01c00
1c601800
00603000
00306000
0030c000
00318000
00300000
00300000
00180000
00180000
00180000
00180000
00180000
00000000
00000000
00000000
00000000
ENDCHAR
STARTCHAR 2565
ENCODING 9573
SWIDTH	-8531 0
DWIDTH	26 0
BBX 26	27 0 -1
BITMAP
00000000
00000000
00000000
00000000
00000000
00000000
00000000
00000000
00000000
00000000
00000000
00010000
008f8000
00f9c000
0061c000
00018000
00018000
00030000
00030000
00032000
020ff000
03f81800
01800000
00000000
00000000
00000000
00000000
ENDCHAR
STARTCHAR 2566
ENCODING 9574
SWIDTH	-8531 0
DWIDTH	26 0
BBX 26	27 0 -1
BITMAP
00000000
00000000
00000000
00000000
00000000
00000000
00018000
020fc000
03f8e000
0180e000
0000c000
0000c000
0000c000
0001c000
00018000
00018000
00018c00
1007fe00
1ffc0300
0f000000
00000000
00000000
00000000
00000000
00000000
00000000
00000000
ENDCHAR
STARTCHAR 2567
ENCODING 9575
SWIDTH	-8531 0
DWIDTH	26 0
BBX 26	27 0 -1
BITMAP
00000000
00000000
00000000
00000000
00000000
00000000
00000000
00000000
00000000
00008000
0087c000
00fce000
0060c000
0000c000
0007c000
00fcc000
0060c000
00018000
00018000
00018000
010fc000
01f80000
00c00000
00000000
00000000
00000000
00000000
ENDCHAR
STARTCHAR 2568
ENCODING 9576
SWIDTH	-8531 0
DWIDTH	26 0
BBX 26	27 0 -1
BITMAP
00000000
00000000
00000000
00000000
00000000
00006000
0407f000
07fc3800
03003800
00003000
00003000
00003000
0207f000
03fc3000
01807000
00006000
00006000
00006000
00006000
080fe000
0ff86000
07006000
00000000
00000000
00000000
00000000
00000000
ENDCHAR
STARTCHAR 2569
ENCODING 9577
SWIDTH	-8531 0
DWIDTH	26 0
BBX 26	27 0 -1
BITMAP
00000000
00000000
00000000
0000c000
040fe000
07f83000
03000000
00000000
00001800
100ffc00
1ff80e00
0e000e00
00001c00
00001800
00003800
00003000
00006000
0000c000
00018000
00030000
000e0000
00380000
01e00000
00000000
00000000
00000000
00000000
ENDCHAR
STARTCHAR 256a
ENCODING 9578
SWIDTH	-8531 0
DWIDTH	26 0
BBX 26	27 0 -1
BITMAP
00000000
00000000
00000000
0000c000
03006000
01807000
01c06000
01806000
01806000
01806000
01806000
01806000
01806000
01806000
0180c000
0180c000
0000c000
00018000
00018000
00030000
00060000
001c0000
00700000
00000000
00000000
00000000
00000000
ENDCHAR
STARTCHAR 256b
ENCODING 9579
SWIDTH	-8531 0
DWIDTH	26 0
BBX 26	27 0 -1
BITMAP
00000000
00000000
00000000
000c0000
00060000
01870000
00c60000
00e60000
00c60000
00c60000
00c60000
00c60200
00c60200
00c60600
01860400
01860c00
01860800
01861800
03063000
03066000
0607c000
0c0f8000
10060000
00000000
00000000
00000000
00000000
ENDCHAR
STARTCHAR 256c
ENCODING 9580
SWIDTH	-8531 0
DWIDTH	26 0
BBX 26	27 0 -1
BITMAP
00000000
00000000
00000000
01800000
00c00000
00e00000
00c00000
00c00000
00c00000
00c00000
00c00000
00c00000
00c00400
00c00800
00c01800
00c03000
00c06000
00c0c000
00c38000
00cf0000
00fc0000
01f80000
00e00000
00000000
00000000
00000000
00000000
ENDCHAR
STARTCHAR 256d
ENCODING 9581
SWIDTH	-8531 0
DWIDTH	26 0
BBX 26	27 0 -1
BITMAP
00000000
00000000
00000000
00000000
00000000
00006000
060ff000
03f83800
03003800
03003000
03003000
03003000
03003000
03003000
03007000
03006000
03006000
03006000
03006000
030ff800
07f81000
03000000
00000000
00000000
00000000
00000000
00000000
ENDCHAR
STARTCHAR 256e
ENCODING 9582
SWIDTH	-8531 0
DWIDTH	26 0
BBX 26	27 0 -1
BITMAP
00000000
00000000
00000000
00000000
00000000
00000000
00000000
00000000
00006000
060ff000
03f83800
03003800
03003000
03003000
03006000
03006000
0000c000
0000c000
00018000
00030000
00060000
001c0000
00700000
00000000
00000000
00000000
00000000
ENDCHAR
STARTCHAR 256f
ENCODING 9583
SWIDTH	-8531 0
DWIDTH	26 0
BBX 26	27 0 -1
BITMAP
00000000
00000000
00000000
00000000
00003000
0c0ff800
07f81c00
06001c00
06001800
06001800
06003800
06003000
06003000
06006000
00006000
0000c000
0000c000
00018000
00030000
00060000
000c0000
00380000
00e00000
00000000
00000000
00000000
00000000
ENDCHAR
STARTCHAR 2570
ENCODING 9584
SWIDTH	-8531 0
DWIDTH	26 0
BBX 26	27 0 -1
BITMAP
00000000
00000000
00000000
00070000
00038000
00030000
00031000
0403f800
07ff0c00
03030000
00030000
00c30000
00c30000
00c30000
00c31800
10c3fc00
1fff0600
0e030000
00030000
00030000
00030000
00030000
00030000
00000000
00000000
00000000
00000000
ENDCHAR
STARTCHAR 2571
ENCODING 9585
SWIDTH	-8531 0
DWIDTH	26 0
BBX 26	27 0 -1
BITMAP
00000000
00000000
00000000
00000000
00000000
00006000
040ff000
07f83800
03803800
00007000
00186000
000cc000
000d8000
000c0000
000c0000
000c0000
000c0000
000c0000
000c1800
100ffe00
1ff80300
0f000000
00000000
00000000
00000000
00000000
00000000
ENDCHAR
STARTCHAR 2572
ENCODING 9586
SWIDTH	-8531 0
DWIDTH	26 0
BBX 26	27 0 -1
BITMAP
00000000
00000000
00000000
00000000
00003000
0807f800
0ffc1c00
07001c00
00001800
00001800
00003800
0403f000
07fe3000
03c06000
00006000
0000c000
0000c000
00018000
00030000
00060000
000c0000
00380000
00e00000
00000000
00000000
00000000
00000000
ENDCHAR
STARTCHAR 2573
ENCODING 9587
SWIDTH	-8531 0
DWIDTH	26 0
BBX 26	27 0 -1
BITMAP
00000000
00000000
00000000
00000000
08000000
06000000
03800000
01c00000
00e00800
00e00800
00401800
00001000
00003000
00002000
00006000
0000c000
00018000
00030000
000e0000
003c0000
04f00000
07e00000
03800000
00000000
00000000
00000000
00000000
ENDCHAR
STARTCHAR 2574
ENCODING 9588
SWIDTH	-8531 0
DWIDTH	26 0
BBX 26	27 0 -1
BITMAP
00000000
00000000
00000600
00700300
00381980
00300c00
0030c600
303fe000
1fe07000
18007000
18006000
18006000
1800e000
1800c000
1800c000
00018000
00038000
00030000
00060000
000c0000
00180000
00700000
01c00000
00000000
00000000
00000000
00000000
ENDCHAR
STARTCHAR 2575
ENCODING 9589
SWIDTH	-8531 0
DWIDTH	26 0
BBX 26	27 0 -1
BITMAP
00000000
00000000
00000000
00000000
00000000
00000000
00000000
00000000
00180000
000c0000
000c6000
020ff000
03fc3800
018c3800
00183000
00183000
00183000
00303000
00303000
00606000
00c26000
0181e000
0301c000
00000000
00000000
00000000
00000000
ENDCHAR
STARTCHAR 2576
ENCODING 9590
SWIDTH	-8531 0
DWIDTH	26 0
BBX 26	27 0 -1
BITMAP
00000000
00000000
00000000
00000000
00000000
00000000
00000000
00000000
00c00000
00600000
00602000
00c3f000
00fe1800
01830000
03038000
04030000
00070000
00060000
000e0000
000c0000
00180000
00700000
01c00000
00000000
00000000
00000000
00000000
ENDCHAR
STARTCHAR 2621
ENCODING 9761
SWIDTH	-8531 0
DWIDTH	26 0
BBX 26	27 0 -1
BITMAP
00000000
00000000
00000000
000c0000
001e0000
00160000
00330000
00230000
00230000
00618000
00418000
00c0c000
0080c000
0080c000
01806000
01ffe000
03007000
02003000
02003000
06001800
04001800
04001800
1f007e00
00000000
00000000
00000000
00000000
ENDCHAR
STARTCHAR 2622
ENCODING 9762
SWIDTH	-8531 0
DWIDTH	26 0
BBX 26	27 0 -1
BITMAP
00000000
00000000
00000000
07ff0000
0181c000
01806000
01803000
01803000
01803000
01803000
01806000
0180c000
01ff8000
0180e000
01803000
01801800
01800c00
01800c00
01800c00
01800c00
01801800
01807000
07ffc000
00000000
00000000
00000000
00000000
ENDCHAR
STARTCHAR 2623
ENCODING 9763
SWIDTH	-8531 0
DWIDTH	26 0
BBX 26	27 0 -1
BITMAP
00000000
00000000
00000000
07fff800
01803800
01801800
01800800
01800800
01800000
01800000
01800000
01800000
01800000
01800000
01800000
01800000
01800000
01800000
01800000
01800000
01800000
01800000
07e00000
00000000
00000000
00000000
00000000
ENDCHAR
STARTCHAR 2624
ENCODING 9764
SWIDTH	-8531 0
DWIDTH	26 0
BBX 26	27 0 -1
BITMAP
00000000
00000000
00000000
000c0000
001e0000
00160000
00370000
00230000
00638000
00418000
00c1c000
0080c000
0180e000
01006000
03007000
02003000
06003800
04001800
0c001c00
08000c00
18000e00
1ffffe00
1ffffe00
00000000
00000000
00000000
00000000
ENDCHAR
STARTCHAR 2625
ENCODING 9765
SWIDTH	-8531 0
DWIDTH	26 0
BBX 26	27 0 -1
BITMAP
00000000
00000000
00000000
07fff000
01807000
01803000
01801000
01801000
01800000
01810000
01810000
01830000
01ff0000
01830000
01810000
01810000
01800000
01800000
01801000
01801000
01803000
01807000
07fff000
00000000
00000000
00000000
00000000
ENDCHAR
STARTCHAR 2626
ENCODING 9766
SWIDTH	-8531 0
DWIDTH	26 0
BBX 26	27 0 -1
BITMAP
00000000
00000000
00000000
07fff800
07003800
06007000
04006000
0400e000
0001c000
00038000
00030000
00070000
000e0000
001c0000
00380000
00700000
00e00000
00c00000
01800400
03800400
07000c00
0e001c00
0ffffc00
00000000
00000000
00000000
00000000
ENDCHAR
STARTCHAR 2627
ENCODING 9767
SWIDTH	-8531 0
DWIDTH	26 0
BBX 26	27 0 -1
BITMAP
00000000
00000000
00000000
0fc0fc00
03003000
03003000
03003000
03003000
03003000
03003000
03003000
03003000
03fff000
03003000
03003000
03003000
03003000
03003000
03003000
03003000
03003000
03003000
0fc0fc00
00000000
00000000
00000000
00000000
ENDCHAR
STARTCHAR 2628
ENCODING 9768
SWIDTH	-8531 0
DWIDTH	26 0
BBX 26	27 0 -1
BITMAP
00000000
00000000
00000000
007f0000
01c1c000
03006000
06003000
06003000
06003000
0e003800
0c001800
0c411800
0c7f1800
0c7f1800
0c411800
0c001800
0e003800
06003000
06003000
06003000
03006000
01c1c000
007f0000
00000000
00000000
00000000
00000000
ENDCHAR
STARTCHAR 2629
ENCODING 9769
SWIDTH	-8531 0
DWIDTH	26 0
BBX 26	27 0 -1
BITMAP
00000000
00000000
00000000
007f8000
000c0000
000c0000
000c0000
000c0000
000c0000
000c0000
000c0000
000c0000
000c0000
000c0000
000c0000
000c0000
000c0000
000c0000
000c0000
000c0000
000c0000
000c0000
007f8000
00000000
00000000
00000000
00000000
ENDCHAR
STARTCHAR 262a
ENCODING 9770
SWIDTH	-8531 0
DWIDTH	26 0
BBX 26	27 0 -1
BITMAP
00000000
00000000
00000000
0fc1f800
03006000
0300c000
03018000
03030000
03060000
030c0000
03180000
03380000
037c0000
03cc0000
03860000
03030000
03030000
03018000
0300c000
0300c000
03006000
03007000
0fc1fc00
00000000
00000000
00000000
00000000
ENDCHAR
STARTCHAR 262b
ENCODING 9771
SWIDTH	-8531 0
DWIDTH	26 0
BBX 26	27 0 -1
BITMAP
00000000
00000000
00000000
000c0000
001e0000
001e0000
00330000
00230000
00230000
00618000
00418000
00c0c000
0080c000
0080c000
01806000
01006000
03003000
02003000
02003000
06001800
04001800
04001800
1f007e00
00000000
00000000
00000000
00000000
ENDCHAR
STARTCHAR 262c
ENCODING 9772
SWIDTH	-8531 0
DWIDTH	26 0
BBX 26	27 0 -1
BITMAP
00000000
00000000
00000000
3e001f00
0f001c00
0b002c00
09802c00
09806c00
08c04c00
08c04c00
08c0cc00
08608c00
08608c00
08618c00
08310c00
08310c00
08330c00
081a0c00
081e0c00
080c0c00
080c0c00
08000c00
3e003f00
00000000
00000000
00000000
00000000
ENDCHAR
STARTCHAR 262d
ENCODING 9773
SWIDTH	-8531 0
DWIDTH	26 0
BBX 26	27 0 -1
BITMAP
00000000
00000000
00000000
0f807c00
03c01000
02c01000
02e01000
02701000
02301000
02381000
02181000
020c1000
020e1000
02071000
02031000
02039000
02019000
0200d000
0200f000
02007000
02003000
02003000
0f801000
00000000
00000000
00000000
00000000
ENDCHAR
STARTCHAR 262e
ENCODING 9774
SWIDTH	-8531 0
DWIDTH	26 0
BBX 26	27 0 -1
BITMAP
00000000
00000000
00000000
01fffc00
03fff800
02000800
04001000
00000000
00000000
00000000
00801000
00fff000
01ffe000
01002000
00000000
00000000
00000000
00000000
00000000
02000400
04000800
07fff800
0ffff000
00000000
00000000
00000000
00000000
ENDCHAR
STARTCHAR 262f
ENCODING 9775
SWIDTH	-8531 0
DWIDTH	26 0
BBX 26	27 0 -1
BITMAP
00000000
00000000
00000000
007f8000
01c0e000
03003000
06001800
06001800
06001800
0e001c00
0c000c00
0c000c00
0c000c00
0c000c00
0c000c00
0c000c00
0e001c00
06001800
06001800
06001800
03003000
01c0e000
007f8000
00000000
00000000
00000000
00000000
ENDCHAR
STARTCHAR 2630
ENCODING 9776
SWIDTH	-8531 0
DWIDTH	26 0
BBX 26	27 0 -1
BITMAP
00000000
00000000
00000000
0ffffc00
03003000
03003000
03003000
03003000
03003000
03003000
03003000
03003000
03003000
03003000
03003000
03003000
03003000
03003000
03003000
03003000
03003000
03003000
0fc0fc00
00000000
00000000
00000000
00000000
ENDCHAR
STARTCHAR 2631
ENCODING 9777
SWIDTH	-8531 0
DWIDTH	26 0
BBX 26	27 0 -1
BITMAP
00000000
00000000
00000000
07ff8000
0180e000
01803000
01801800
01801800
01801800
01801800
01801800
01803000
0180e000
01ff8000
01800000
01800000
01800000
01800000
01800000
01800000
01800000
01800000
07e00000
00000000
00000000
00000000
00000000
ENDCHAR
STARTCHAR 2632
ENCODING 9778
SWIDTH	-8531 0
DWIDTH	26 0
BBX 26	27 0 -1
BITMAP
00000000
00000000
00000000
03fff800
03801800
01c00c00
00c00400
00e00000
00700000
00380000
001c0000
000e0000
00070000
00060000
000c0000
00180000
00300000
00600000
00c00400
00c00400
01800c00
03fff800
07fff800
00000000
00000000
00000000
00000000
ENDCHAR
STARTCHAR 2633
ENCODING 9779
SWIDTH	-8531 0
DWIDTH	26 0
BBX 26	27 0 -1
BITMAP
00000000
00000000
00000000
07fff800
070c3800
060c1800
040c0800
040c0800
000c0000
000c0000
000c0000
000c0000
000c0000
000c0000
000c0000
000c0000
000c0000
000c0000
000c0000
000c0000
000c0000
000c0000
003f0000
00000000
00000000
00000000
00000000
ENDCHAR
STARTCHAR 2634
ENCODING 9780
SWIDTH	-8531 0
DWIDTH	26 0
BBX 26	27 0 -1
BITMAP
00000000
00000000
00000000
01e1e000
03f3f000
061e1800
0c0c0c00
080c0400
080c0400
000c0000
000c0000
000c0000
000c0000
000c0000
000c0000
000c0000
000c0000
000c0000
000c0000
000c0000
000c0000
000c0000
003f0000
00000000
00000000
00000000
00000000
ENDCHAR
STARTCHAR 2635
ENCODING 9781
SWIDTH	-8531 0
DWIDTH	26 0
BBX 26	27 0 -1
BITMAP
00000000
00000000
00000000
003f0000
000c0000
000c0000
007f8000
03ccf000
060c1800
0c0c0c00
0c0c0c00
180c0600
180c0600
180c0600
180c0600
0c0c0c00
0c0c0c00
060c1800
03ccf000
007f8000
000c0000
000c0000
003f0000
00000000
00000000
00000000
00000000
ENDCHAR
STARTCHAR 2636
ENCODING 9782
SWIDTH	-8531 0
DWIDTH	26 0
BBX 26	27 0 -1
BITMAP
00000000
00000000
00000000
0fc07e00
03801800
01801000
01c03000
00e06000
0060c000
00708000
00398000
001b0000
001e0000
000c0000
001e0000
00370000
00638000
00c1c000
0180c000
0300e000
06007000
06003800
1f80fe00
00000000
00000000
00000000
00000000
ENDCHAR
STARTCHAR 2637
ENCODING 9783
SWIDTH	-8531 0
DWIDTH	26 0
BBX 26	27 0 -1
BITMAP
00000000
00000000
00000000
1c3f0e00
3e0c1f00
630c3180
030c3000
030c3000
030c3000
030c3000
018c6000
018c6000
018c6000
018c6000
00ccc000
00ccc000
00ccc000
006d8000
001e0000
000c0000
000c0000
000c0000
003f0000
00000000
00000000
00000000
00000000
ENDCHAR
STARTCHAR 2638
ENCODING 9784
SWIDTH	-8531 0
DWIDTH	26 0
BBX 26	27 0 -1
BITMAP
00000000
00000000
00000000
003f0000
00e1c000
01806000
01806000
03807000
03003000
07003800
07003800
07003800
03003000
03807000
01806000
01806000
00c0c000
00618000
00120000
04120800
04120800
07f3f800
07f3f800
00000000
00000000
00000000
00000000
ENDCHAR
STARTCHAR 2641
ENCODING 9793
SWIDTH	-8531 0
DWIDTH	26 0
BBX 26	27 0 -1
BITMAP
00000000
00000000
00000000
00000000
00000000
00000000
00000000
00000000
00000000
00000000
001e1800
00733000
00c1b000
0180a000
0180e000
0300c000
0300c000
0300c000
0301c000
03014000
01836000
01866000
00fc3800
00000000
00000000
00000000
00000000
ENDCHAR
STARTCHAR 2642
ENCODING 9794
SWIDTH	-8531 0
DWIDTH	26 0
BBX 26	27 0 -1
BITMAP
00000000
00000000
00000000
0007c000
000c6000
00183000
00303000
00301800
00603000
00603000
00c76000
00c7c000
00c0c000
01806000
01806000
01803000
03003000
03006000
03806000
07e0c000
063f8000
06000000
0c000000
0c000000
0c000000
00000000
00000000
ENDCHAR
STARTCHAR 2643
ENCODING 9795
SWIDTH	-8531 0
DWIDTH	26 0
BBX 26	27 0 -1
BITMAP
00000000
00000000
00000000
00000000
00000000
00000000
00000000
00000000
00000000
00000000
00f0c000
01f8c000
03098000
020d8000
02070000
00070000
00060000
00060000
000c0000
000c0000
00180000
00180000
00300000
00000000
00000000
00000000
00000000
ENDCHAR
STARTCHAR 2644
ENCODING 9796
SWIDTH	-8531 0
DWIDTH	26 0
BBX 26	27 0 -1
BITMAP
00000000
00000000
00000000
001f0000
0030c000
00306000
00183000
000c3000
00070000
00018000
001f8000
0030c000
0060c000
00c06000
00c06000
01806000
01806000
01806000
0180c000
0180c000
00c18000
00c30000
007e0000
00000000
00000000
00000000
00000000
ENDCHAR
STARTCHAR 2645
ENCODING 9797
SWIDTH	-8531 0
DWIDTH	26 0
BBX 26	27 0 -1
BITMAP
00000000
00000000
00000000
00000000
00000000
00000000
00000000
00000000
00000000
00000000
003f8000
0060e000
00c02000
00c00000
00c00000
007f0000
00ce0000
01800000
01800000
01802000
00e06000
007fc000
001f0000
00000000
00000000
00000000
00000000
ENDCHAR
STARTCHAR 2646
ENCODING 9798
SWIDTH	-8531 0
DWIDTH	26 0
BBX 26	27 0 -1
BITMAP
00000000
00000000
00000000
00180000
00600000
00c18000
00c38000
00770000
001c0000
00100000
00200000
00600000
00400000
00c00000
00c00000
01800000
01800000
01800000
00f80000
007e0000
00070000
00018000
00c18000
007f0000
00000000
00000000
00000000
ENDCHAR
STARTCHAR 2647
ENCODING 9799
SWIDTH	-8531 0
DWIDTH	26 0
BBX 26	27 0 -1
BITMAP
00000000
00000000
00000000
00000000
00000000
00000000
00000000
00000000
00000000
00000000
01c78000
025cc000
00706000
00606000
00606000
00c06000
00c0c000
00c0c000
00c0c000
0180c000
0180c000
01818000
01818000
00018000
00018000
00000000
00000000
ENDCHAR
STARTCHAR 2648
ENCODING 9800
SWIDTH	-8531 0
DWIDTH	26 0
BBX 26	27 0 -1
BITMAP
00000000
00000000
00000000
000f0000
0039c000
0060c000
00c0e000
00c06000
01806000
01806000
01806000
01806000
03ffe000
0300e000
0300c000
0300c000
0300c000
0300c000
03018000
03818000
01830000
01ce0000
00780000
00000000
00000000
00000000
00000000
ENDCHAR
STARTCHAR 2649
ENCODING 9801
SWIDTH	-8531 0
DWIDTH	26 0
BBX 26	27 0 -1
BITMAP
00000000
00000000
00000000
00000000
00000000
00000000
00000000
00000000
00000000
00000000
000c0000
001c0000
00180000
00300000
00300000
00600000
00600000
00600000
00c00000
00c10000
00c10000
00fe0000
00780000
00000000
00000000
00000000
00000000
ENDCHAR
STARTCHAR 264a
ENCODING 9802
SWIDTH	-8531 0
DWIDTH	26 0
BBX 26	27 0 -1
BITMAP
00000000
00000000
00000000
00000000
00000000
00000000
00000000
00000000
00000000
00000000
01e0c000
0261c000
00630000
00c60000
00cc0000
00dc0000
01b40000
01a60000
01e60000
01c61000
03861000
0303e000
0301c000
00000000
00000000
00000000
00000000
ENDCHAR
STARTCHAR 264b
ENCODING 9803
SWIDTH	-8531 0
DWIDTH	26 0
BBX 26	27 0 -1
BITMAP
00000000
00000000
00000000
00300000
00380000
000c0000
000c0000
00040000
00060000
00020000
00020000
00060000
000a0000
001a0000
00130000
00330000
00210000
00618000
00618000
00c0c000
00c0c000
01c07800
01803800
00000000
00000000
00000000
00000000
ENDCHAR
STARTCHAR 264c
ENCODING 9804
SWIDTH	-8531 0
DWIDTH	26 0
BBX 26	27 0 -1
BITMAP
00000000
00000000
00000000
00000000
00000000
00000000
00000000
00000000
00000000
00000000
00202000
00606000
00606000
00606000
00e0e000
00c0c000
00c0c000
00c18000
01818000
01818000
01c19000
0167d000
033c6000
03000000
03000000
00000000
00000000
ENDCHAR
STARTCHAR 264d
ENCODING 9805
SWIDTH	-8531 0
DWIDTH	26 0
BBX 26	27 0 -1
BITMAP
00000000
00000000
00000000
00000000
00000000
00000000
00000000
00000000
00000000
00000000
00c02000
00e02000
00602000
00706000
00304000
00304000
0030c000
00208000
00218000
00630000
004e0000
007c0000
00f00000
00000000
00000000
00000000
00000000
ENDCHAR
STARTCHAR 264e
ENCODING 9806
SWIDTH	-8531 0
DWIDTH	26 0
BBX 26	27 0 -1
BITMAP
00000000
00000000
00070000
00080000
00180000
001fe000
0031c000
00600000
00600000
00600000
00380000
001fe000
0021c000
00600000
00c00000
00c00000
01800000
01c00000
00f80000
003f0000
00078000
0000c000
0030c000
003f8000
00000000
00000000
00000000
ENDCHAR
STARTCHAR 264f
ENCODING 9807
SWIDTH	-8531 0
DWIDTH	26 0
BBX 26	27 0 -1
BITMAP
00000000
00000000
00000000
00000000
00000000
00000000
00000000
00000000
00000000
00000000
001f8000
0030c000
0060c000
00c06000
00c06000
01806000
01806000
01806000
0180c000
0180c000
00c18000
00c30000
007e0000
00000000
00000000
00000000
00000000
ENDCHAR
STARTCHAR 2650
ENCODING 9808
SWIDTH	-8531 0
DWIDTH	26 0
BBX 26	27 0 -1
BITMAP
00000000
00000000
00000000
00000000
00000000
00000000
00000000
00000000
00000000
00001000
00ffe000
01ffc000
02218000
00218000
00618000
00430000
00430000
00c30000
00c60000
01c60000
01862000
0387c000
03038000
00000000
00000000
00000000
00000000
ENDCHAR
STARTCHAR 2651
ENCODING 9809
SWIDTH	-8531 0
DWIDTH	26 0
BBX 26	27 0 -1
BITMAP
00000000
00000000
00000000
00000000
00000000
00000000
00000000
00000000
00000000
00000000
001f8000
0030c000
0060e000
00606000
00c06000
00c06000
00c06000
01c06000
01c0c000
01e0c000
01a18000
033f0000
03000000
03000000
03000000
00000000
00000000
ENDCHAR
STARTCHAR 2652
ENCODING 9810
SWIDTH	-8531 0
DWIDTH	26 0
BBX 26	27 0 -1
BITMAP
00000000
00000000
00000000
00000000
00000000
00000000
00000000
00000000
00000000
00000400
003f7c00
0061b800
00c08000
0180c000
0180c000
0300c000
0300c000
0300c000
03018000
03018000
01830000
01860000
00fc0000
00000000
00000000
00000000
00000000
ENDCHAR
STARTCHAR 2653
ENCODING 9811
SWIDTH	-8531 0
DWIDTH	26 0
BBX 26	27 0 -1
BITMAP
00000000
00000000
00000000
00000000
00000000
00000000
00000000
00000000
00000000
00004000
00ff8000
01ff0000
02180000
00380000
00300000
00700000
00600000
00600000
00c00000
00c10000
00c10000
00fe0000
00780000
00000000
00000000
00000000
00000000
ENDCHAR
STARTCHAR 2654
ENCODING 9812
SWIDTH	-8531 0
DWIDTH	26 0
BBX 26	27 0 -1
BITMAP
00000000
00000000
00000000
00000000
00000000
00000000
00000000
00000000
00000000
00000000
00c0c000
00e04000
00606000
00606000
00606000
00406000
00c0e000
0080c000
0080c000
00808000
00c18000
00630000
003e0000
00000000
00000000
00000000
00000000
ENDCHAR
STARTCHAR 2655
ENCODING 9813
SWIDTH	-8531 0
DWIDTH	26 0
BBX 26	27 0 -1
BITMAP
00000000
00000000
00000000
00018000
00018000
00030000
00030000
00030000
00060000
001f8000
0076c000
00c66000
01866000
01843000
030c3000
030c3000
030c6000
01886000
0198c000
00db8000
007e0000
00300000
00300000
00600000
00600000
00000000
00000000
ENDCHAR
STARTCHAR 2656
ENCODING 9814
SWIDTH	-8531 0
DWIDTH	26 0
BBX 26	27 0 -1
BITMAP
00000000
00000000
00000000
00000000
00000000
00000000
00000000
00000000
00000000
00000000
00603000
00f07000
01106000
0018c000
00088000
000c8000
00050000
00060000
000a0000
00320000
00620000
00c30000
01830800
0381f000
0300e000
00000000
00000000
ENDCHAR
STARTCHAR 2657
ENCODING 9815
SWIDTH	-8531 0
DWIDTH	26 0
BBX 26	27 0 -1
BITMAP
00000000
00000000
00000000
00018000
00018000
00038000
00030000
00030000
00030000
00020000
00662000
00c67000
01863000
01843000
030c3000
030c3000
030c6000
03086000
0198c000
0198c000
00d98000
007f0000
00300000
00700000
00600000
00000000
00000000
ENDCHAR
STARTCHAR 2658
ENCODING 9816
SWIDTH	-8531 0
DWIDTH	26 0
BBX 26	27 0 -1
BITMAP
00000000
00000000
00000000
00000000
00000000
00000000
00000000
00000000
00000000
00000000
00701000
00c00800
01800800
03020c00
03060c00
06060c00
060e0c00
060c0c00
060c1800
03041800
030c3000
019a6000
00f38000
00000000
00000000
00000000
00000000
ENDCHAR
STARTCHAR 2721
ENCODING 10017
SWIDTH	-8531 0
DWIDTH	26 0
BBX 26	27 0 -1
BITMAP
00000000
00000000
00000000
000c0000
001e0000
00160000
00330000
00230000
00230000
00618000
00418000
00c0c000
0080c000
0080c000
01806000
01ffe000
03003000
02003000
02003000
06001800
04001800
04001800
1f007e00
00000000
00000000
00000000
00000000
ENDCHAR
STARTCHAR 2722
ENCODING 10018
SWIDTH	-8531 0
DWIDTH	26 0
BBX 26	27 0 -1
BITMAP
00000000
00000000
00000000
0fffc000
0300c000
03006000
03002000
03002000
03000000
03000000
03000000
03ff0000
0301c000
03006000
03003000
03003000
03001800
03001800
03003000
03003000
03006000
0301c000
0fff0000
00000000
00000000
00000000
00000000
ENDCHAR
STARTCHAR 2723
ENCODING 10019
SWIDTH	-8531 0
DWIDTH	26 0
BBX 26	27 0 -1
BITMAP
00000000
00000000
00000000
07ff0000
0181c000
01806000
01803000
01803000
01803000
01803000
01806000
0180c000
01ff8000
0180e000
01803000
01801800
01800c00
01800c00
01800c00
01800c00
01801800
01807000
07ffc000
00000000
00000000
00000000
00000000
ENDCHAR
STARTCHAR 2724
ENCODING 10020
SWIDTH	-8531 0
DWIDTH	26 0
BBX 26	27 0 -1
BITMAP
00000000
00000000
00000000
07fff000
01803000
01801800
01800800
01800800
01800000
01800000
01800000
01800000
01800000
01800000
01800000
01800000
01800000
01800000
01800000
01800000
01800000
01800000
07e00000
00000000
00000000
00000000
00000000
ENDCHAR
STARTCHAR 2725
ENCODING 10021
SWIDTH	-8531 0
DWIDTH	26 0
BBX 26	27 0 -1
BITMAP
00000000
00000000
00000000
00fff000
00406000
00406000
00406000
00406000
00406000
00406000
00c06000
00806000
00806000
00806000
00806000
01806000
01006000
01006000
01006000
03006000
02006000
02006000
1ffffc00
18000c00
10000400
00000000
00000000
ENDCHAR
STARTCHAR 2726
ENCODING 10022
SWIDTH	-8531 0
DWIDTH	26 0
BBX 26	27 0 -1
BITMAP
00000000
00000000
00000000
07fff000
01807000
01803000
01801000
01801000
01800000
01810000
01810000
01830000
01ff0000
01830000
01810000
01810000
01800000
01800000
01801000
01801000
01803000
01807000
07fff000
00000000
00000000
00000000
00000000
ENDCHAR
STARTCHAR 2727
ENCODING 10023
SWIDTH	-8531 0
DWIDTH	26 0
BBX 26	27 0 -1
BITMAP
00000000
00618000
00618000
00000000
07fff000
01807000
01803000
01801000
01801000
01810000
01810000
01830000
01ff0000
01830000
01810000
01810000
01800000
01800000
01801000
01801000
01803000
01807000
07fff000
00000000
00000000
00000000
00000000
ENDCHAR
STARTCHAR 2728
ENCODING 10024
SWIDTH	-8531 0
DWIDTH	26 0
BBX 26	27 0 -1
BITMAP
00000000
00000000
00000000
0e3f1c00
1f0c3e00
0d0c2c00
010c2000
010c2000
018c6000
008c4000
008c4000
00ccc000
007f8000
00ccc000
018c6000
018c6000
030c3000
030c3000
060c1800
060c0c00
0c0c0c00
180c0600
7e3f1f80
00000000
00000000
00000000
00000000
ENDCHAR
STARTCHAR 2729
ENCODING 10025
SWIDTH	-8531 0
DWIDTH	26 0
BBX 26	27 0 -1
BITMAP
00000000
00000000
00000000
007f8000
01c0e000
03803000
03003000
02001800
00001800
00003000
00003000
00006000
003fc000
00007000
00001800
00001800
00000c00
04000c00
06000c00
07001800
07801800
01c07000
007fc000
00000000
00000000
00000000
00000000
ENDCHAR
STARTCHAR 272a
ENCODING 10026
SWIDTH	-8531 0
DWIDTH	26 0
BBX 26	27 0 -1
BITMAP
00000000
00000000
00000000
0fc0fc00
03003000
03003000
03003000
03007000
0300b000
03013000
03023000
03023000
03043000
03083000
03103000
03103000
03203000
03403000
03803000
03003000
03003000
03003000
0fc0fc00
00000000
00000000
00000000
00000000
ENDCHAR
STARTCHAR 272b
ENCODING 10027
SWIDTH	-8531 0
DWIDTH	26 0
BBX 26	27 0 -1
BITMAP
00000000
00618000
00618000
00210000
0f9e7c00
03003000
03003000
03007000
0300b000
03013000
03023000
03023000
03043000
03083000
03103000
03103000
03203000
03403000
03803000
03003000
03003000
03003000
0fc0fc00
00000000
00000000
00000000
00000000
ENDCHAR
STARTCHAR 272c
ENCODING 10028
SWIDTH	-8531 0
DWIDTH	26 0
BBX 26	27 0 -1
BITMAP
00000000
00000000
00000000
0fc07000
03009800
03011c00
03011c00
03020800
03020000
03060000
03040000
030c0000
03f80000
030c0000
03060000
03030000
03030000
03018000
0300c000
0300c000
03006000
03003000
0fc0fc00
00000000
00000000
00000000
00000000
ENDCHAR
STARTCHAR 272d
ENCODING 10029
SWIDTH	-8531 0
DWIDTH	26 0
BBX 26	27 0 -1
BITMAP
00000000
00000000
00000000
00fff800
00206000
00206000
00206000
00206000
00206000
00206000
00206000
00206000
00206000
00206000
00206000
00606000
00406000
00406000
08406000
1c406000
1c406000
18806000
0f01f800
00000000
00000000
00000000
00000000
ENDCHAR
STARTCHAR 272e
ENCODING 10030
SWIDTH	-8531 0
DWIDTH	26 0
BBX 26	27 0 -1
BITMAP
00000000
00000000
00000000
0f007800
03006000
03806000
0380f000
02c0b000
06c0b000
04c0b000
04c19800
04e11800
04611800
0c611800
08631c00
08720c00
08320c00
08360c00
183c0e00
101c0600
10180600
10080600
7c001f80
00000000
00000000
00000000
00000000
ENDCHAR
STARTCHAR 272f
ENCODING 10031
SWIDTH	-8531 0
DWIDTH	26 0
BBX 26	27 0 -1
BITMAP
00000000
00000000
00000000
0fc0fc00
03003000
03003000
03003000
03003000
03003000
03003000
03003000
03003000
03fff000
03003000
03003000
03003000
03003000
03003000
03003000
03003000
03003000
03003000
0fc0fc00
00000000
00000000
00000000
00000000
ENDCHAR
STARTCHAR 2730
ENCODING 10032
SWIDTH	-8531 0
DWIDTH	26 0
BBX 26	27 0 -1
BITMAP
00000000
00000000
00000000
007f8000
01c0e000
03003000
07003800
06001800
06001800
0e001c00
0c000c00
0c000c00
0c000c00
0c000c00
0c000c00
0c000c00
0c000c00
0e001c00
06001800
07003800
03003000
01c0e000
007f8000
00000000
00000000
00000000
00000000
ENDCHAR
STARTCHAR 2731
ENCODING 10033
SWIDTH	-8531 0
DWIDTH	26 0
BBX 26	27 0 -1
BITMAP
00000000
00000000
00000000
0ffffc00
03003000
03003000
03003000
03003000
03003000
03003000
03003000
03003000
03003000
03003000
03003000
03003000
03003000
03003000
03003000
03003000
03003000
03003000
0fc0fc00
00000000
00000000
00000000
00000000
ENDCHAR
STARTCHAR 2732
ENCODING 10034
SWIDTH	-8531 0
DWIDTH	26 0
BBX 26	27 0 -1
BITMAP
00000000
00000000
00000000
07ff8000
0180e000
01803000
01803000
01801800
01801800
01801800
01803000
01803000
0180e000
01ff8000
01800000
01800000
01800000
01800000
01800000
01800000
01800000
01800000
07e00000
00000000
00000000
00000000
00000000
ENDCHAR
STARTCHAR 2733
ENCODING 10035
SWIDTH	-8531 0
DWIDTH	26 0
BBX 26	27 0 -1
BITMAP
00000000
00000000
00000000
007f8000
01c0e000
03003800
03001800
06001800
06000800
0e000000
0c000000
0c000000
0c000000
0c000000
0c000000
0c000000
0e000000
06000800
07001800
03001800
01803800
00c0e000
007f8000
00000000
00000000
00000000
00000000
ENDCHAR
STARTCHAR 2734
ENCODING 10036
SWIDTH	-8531 0
DWIDTH	26 0
BBX 26	27 0 -1
BITMAP
00000000
00000000
00000000
07fff800
070c3800
060c1800
040c0800
040c0800
000c0000
000c0000
000c0000
000c0000
000c0000
000c0000
000c0000
000c0000
000c0000
000c0000
000c0000
000c0000
000c0000
000c0000
003f0000
00000000
00000000
00000000
00000000
ENDCHAR
STARTCHAR 2735
ENCODING 10037
SWIDTH	-8531 0
DWIDTH	26 0
BBX 26	27 0 -1
BITMAP
00000000
00000000
00000000
1f807e00
06001800
06001000
03001000
03803000
01802000
01c06000
00c04000
00e0c000
00608000
00718000
00310000
003b0000
001a0000
061e0000
0f0c0000
0f0c0000
0e180000
06300000
03e00000
00000000
00000000
00000000
00000000
ENDCHAR
STARTCHAR 2736
ENCODING 10038
SWIDTH	-8531 0
DWIDTH	26 0
BBX 26	27 0 -1
BITMAP
00000000
00000000
00000000
003f0000
000c0000
000c0000
007f8000
03ccf000
060c1800
0c0c0c00
0c0c0c00
1c0c0e00
180c0600
180c0600
1c0c0e00
0c0c0c00
0c0c0c00
060c1800
03ccf000
007f8000
000c0000
000c0000
003f0000
00000000
00000000
00000000
00000000
ENDCHAR
STARTCHAR 2737
ENCODING 10039
SWIDTH	-8531 0
DWIDTH	26 0
BBX 26	27 0 -1
BITMAP
00000000
00000000
00000000
1fc07c00
03801000
01803000
01c06000
00e04000
0060c000
00708000
00390000
001a0000
001c0000
001e0000
00360000
00270000
00c38000
0081c000
0100c000
0300e000
02007000
06003800
1f80fe00
00000000
00000000
00000000
00000000
ENDCHAR
STARTCHAR 2738
ENCODING 10040
SWIDTH	-8531 0
DWIDTH	26 0
BBX 26	27 0 -1
BITMAP
00000000
00000000
00000000
0fc1f800
03006000
03006000
03006000
03006000
03006000
03006000
03006000
03006000
03006000
03006000
03006000
03006000
03006000
03006000
03006000
03006000
03006000
03006000
0ffffc00
00000c00
00000400
00000000
00000000
ENDCHAR
STARTCHAR 2739
ENCODING 10041
SWIDTH	-8531 0
DWIDTH	26 0
BBX 26	27 0 -1
BITMAP
00000000
00000000
00000000
0fc1f800
03006000
03006000
03006000
03006000
03006000
03006000
03006000
03006000
03006000
03006000
01806000
0180e000
00c3e000
007e6000
00006000
00006000
00006000
00006000
0001f800
00000000
00000000
00000000
00000000
ENDCHAR
STARTCHAR 273a
ENCODING 10042
SWIDTH	-8531 0
DWIDTH	26 0
BBX 26	27 0 -1
BITMAP
00000000
00000000
00000000
3e3f1f00
0c0c0c00
0c0c0c00
0c0c0c00
0c0c0c00
0c0c0c00
0c0c0c00
0c0c0c00
0c0c0c00
0c0c0c00
0c0c0c00
0c0c0c00
0c0c0c00
0c0c0c00
0c0c0c00
0c0c0c00
0c0c0c00
0c0c0c00
0c0c0c00
3fffff00
00000000
00000000
00000000
00000000
ENDCHAR
STARTCHAR 273b
ENCODING 10043
SWIDTH	-8531 0
DWIDTH	26 0
BBX 26	27 0 -1
BITMAP
00000000
00000000
00000000
3e3f1f00
0c0c0c00
0c0c0c00
0c0c0c00
0c0c0c00
0c0c0c00
0c0c0c00
0c0c0c00
0c0c0c00
0c0c0c00
0c0c0c00
0c0c0c00
0c0c0c00
0c0c0c00
0c0c0c00
0c0c0c00
0c0c0c00
0c0c0c00
0c0c0c00
7fffff80
00000180
00000080
00000000
00000000
ENDCHAR
STARTCHAR 273c
ENCODING 10044
SWIDTH	-8531 0
DWIDTH	26 0
BBX 26	27 0 -1
BITMAP
00000000
00000000
00000000
1ff80000
18600000
30600000
20600000
20600000
00600000
00600000
00600000
007fe000
00603800
00601800
00600c00
00600c00
00600e00
00600e00
00600c00
00601c00
00601800
00607000
01ffc000
00000000
00000000
00000000
00000000
ENDCHAR
STARTCHAR 273d
ENCODING 10045
SWIDTH	-8531 0
DWIDTH	26 0
BBX 26	27 0 -1
BITMAP
00000000
00000000
00000000
3f003f00
0c000c00
0c000c00
0c000c00
0c000c00
0c000c00
0c000c00
0c000c00
0ffc0c00
0c060c00
0c030c00
0c030c00
0c018c00
0c018c00
0c018c00
0c018c00
0c030c00
0c030c00
0c060c00
3ffc3f00
00000000
00000000
00000000
00000000
ENDCHAR
STARTCHAR 273e
ENCODING 10046
SWIDTH	-8531 0
DWIDTH	26 0
BBX 26	27 0 -1
BITMAP
00000000
00000000
00000000
0fc00000
03000000
03000000
03000000
03000000
03000000
03000000
03000000
03ff8000
0300c000
03006000
03003000
03003000
03001800
03001800
03003000
03003000
03006000
0300c000
0fff8000
00000000
00000000
00000000
00000000
ENDCHAR
STARTCHAR 273f
ENCODING 10047
SWIDTH	-8531 0
DWIDTH	26 0
BBX 26	27 0 -1
BITMAP
00000000
00000000
00000000
007f8000
01c0e000
07007000
06003000
06001800
04001800
00000c00
00000c00
003c0c00
00470c00
0081fc00
0000cc00
00000c00
00000c00
04001800
06001800
03003000
01006000
0180e000
00ff8000
00000000
00000000
00000000
00000000
ENDCHAR
STARTCHAR 2740
ENCODING 10048
SWIDTH	-8531 0
DWIDTH	26 0
BBX 26	27 0 -1
BITMAP
00000000
00000000
00000000
7e07c000
181c7000
18301800
18700c00
18600c00
18600c00
18e00e00
18c00600
18c00600
1fc00600
18c00600
18c00600
18c00600
18e00e00
18600c00
18600c00
18701c00
18301800
181c7000
7e07c000
00000000
00000000
00000000
00000000
ENDCHAR
STARTCHAR 2741
ENCODING 10049
SWIDTH	-8531 0
DWIDTH	26 0
BBX 26	27 0 -1
BITMAP
00000000
00000000
00000000
003ff800
00e06000
01c06000
01806000
03806000
03006000
03806000
01806000
01c06000
00e06000
003fe000
00186000
00386000
00306000
00306000
00606000
00606000
00c06000
01806000
0101f800
06000000
00000000
00000000
00000000
ENDCHAR
STARTCHAR 2751
ENCODING 10065
SWIDTH	-8531 0
DWIDTH	26 0
BBX 26	27 0 -1
BITMAP
00000000
00000000
00000000
00000000
00000000
00000000
00000000
00000000
00000000
00000000
007e0000
00c30000
01e18000
00c18000
00018000
001f8000
00718000
00c18000
01818000
01818000
01818000
01839000
00fce000
00000000
00000000
00000000
00000000
ENDCHAR
STARTCHAR 2752
ENCODING 10066
SWIDTH	-8531 0
DWIDTH	26 0
BBX 26	27 0 -1
BITMAP
00000000
00000000
00000000
00000000
00008000
003f0000
007e0000
00c00000
00800000
01800000
013f0000
01618000
01c0c000
01c0c000
01806000
01806000
01806000
01806000
01806000
00c0c000
00c0c000
00618000
003f0000
00000000
00000000
00000000
00000000
ENDCHAR
STARTCHAR 2753
ENCODING 10067
SWIDTH	-8531 0
DWIDTH	26 0
BBX 26	27 0 -1
BITMAP
00000000
00000000
00000000
00000000
00000000
00000000
00000000
00000000
00000000
00000000
01fe0000
00c30000
00c18000
00c18000
00c18000
00c30000
00fe0000
00c18000
00c0c000
00c0c000
00c0c000
00c18000
01ff0000
00000000
00000000
00000000
00000000
ENDCHAR
STARTCHAR 2754
ENCODING 10068
SWIDTH	-8531 0
DWIDTH	26 0
BBX 26	27 0 -1
BITMAP
00000000
00000000
00000000
00000000
00000000
00000000
00000000
00000000
00000000
00000000
00ff8000
00618000
0060c000
00604000
00600000
00600000
00600000
00600000
00600000
00600000
00600000
00600000
00f00000
00000000
00000000
00000000
00000000
ENDCHAR
STARTCHAR 2755
ENCODING 10069
SWIDTH	-8531 0
DWIDTH	26 0
BBX 26	27 0 -1
BITMAP
00000000
00000000
00000000
00000000
00000000
00000000
00000000
00000000
00000000
00000000
003fc000
00118000
00118000
00118000
00118000
00218000
00218000
00218000
00418000
00418000
00418000
00818000
03ffe000
03006000
02002000
00000000
00000000
ENDCHAR
STARTCHAR 2756
ENCODING 10070
SWIDTH	-8531 0
DWIDTH	26 0
BBX 26	27 0 -1
BITMAP
00000000
00000000
00000000
00000000
00000000
00000000
00000000
00000000
00000000
00000000
003f0000
00618000
00c0c000
00c0c000
01806000
01806000
01ffe000
01800000
01800000
00c00000
00c04000
00608000
003f0000
00000000
00000000
00000000
00000000
ENDCHAR
STARTCHAR 2757
ENCODING 10071
SWIDTH	-8531 0
DWIDTH	26 0
BBX 26	27 0 -1
BITMAP
00000000
00000000
00000000
00000000
00000000
00000000
00618000
00618000
00000000
00000000
003f0000
00618000
00c0c000
00c0c000
01806000
01806000
01ffe000
01800000
01800000
00c00000
00c04000
00608000
003f0000
00000000
00000000
00000000
00000000
ENDCHAR
STARTCHAR 2758
ENCODING 10072
SWIDTH	-8531 0
DWIDTH	26 0
BBX 26	27 0 -1
BITMAP
00000000
00000000
00000000
00000000
00000000
00000000
00000000
00000000
00000000
00000000
031e3000
038c7000
008c4000
008c4000
00ccc000
004c8000
00ffc000
00ccc000
018c6000
018c6000
030c3000
020c1000
0f9e7c00
00000000
00000000
00000000
00000000
ENDCHAR
STARTCHAR 2759
ENCODING 10073
SWIDTH	-8531 0
DWIDTH	26 0
BBX 26	27 0 -1
BITMAP
00000000
00000000
00000000
00000000
00000000
00000000
00000000
00000000
00000000
00000000
003f0000
00e18000
0080c000
0000c000
0000c000
00018000
001f0000
0000c000
00006000
00806000
00c06000
00e0c000
003f8000
00000000
00000000
00000000
00000000
ENDCHAR
STARTCHAR 275a
ENCODING 10074
SWIDTH	-8531 0
DWIDTH	26 0
BBX 26	27 0 -1
BITMAP
00000000
00000000
00000000
00000000
00000000
00000000
00000000
00000000
00000000
00000000
01e1e000
00c0c000
00c0c000
00c1c000
00c2c000
00c4c000
00ccc000
00c8c000
00d0c000
00e0c000
00c0c000
00c0c000
01e1e000
00000000
00000000
00000000
00000000
ENDCHAR
STARTCHAR 275b
ENCODING 10075
SWIDTH	-8531 0
DWIDTH	26 0
BBX 26	27 0 -1
BITMAP
00000000
00000000
00000000
00000000
00000000
00000000
00618000
00618000
00210000
001e0000
01c0e000
00c0c000
00c0c000
00c1c000
00c2c000
00c4c000
00ccc000
00c8c000
00d0c000
00e0c000
00c0c000
00c0c000
01e1e000
00000000
00000000
00000000
00000000
ENDCHAR
STARTCHAR 275c
ENCODING 10076
SWIDTH	-8531 0
DWIDTH	26 0
BBX 26	27 0 -1
BITMAP
00000000
00000000
00000000
00000000
00000000
00000000
00000000
00000000
00000000
00000000
00f0c000
0061c000
00610000
00630000
00620000
00660000
007c0000
00660000
00630000
00618000
0060c000
0060c000
00f1f000
00000000
00000000
00000000
00000000
ENDCHAR
STARTCHAR 275d
ENCODING 10077
SWIDTH	-8531 0
DWIDTH	26 0
BBX 26	27 0 -1
BITMAP
00000000
00000000
00000000
00000000
00000000
00000000
00000000
00000000
00000000
00000000
003fc000
00118000
00118000
00118000
00118000
00118000
00118000
00218000
00218000
03218000
03218000
02418000
0183c000
00000000
00000000
00000000
00000000
ENDCHAR
STARTCHAR 275e
ENCODING 10078
SWIDTH	-8531 0
DWIDTH	26 0
BBX 26	27 0 -1
BITMAP
00000000
00000000
00000000
00000000
00000000
00000000
00000000
00000000
00000000
00000000
03807000
01c0e000
01c0e000
01616000
01616000
01616000
01326000
01326000
01346000
011c6000
01086000
01086000
0380f000
00000000
00000000
00000000
00000000
ENDCHAR
STARTCHAR 275f
ENCODING 10079
SWIDTH	-8531 0
DWIDTH	26 0
BBX 26	27 0 -1
BITMAP
00000000
00000000
00000000
00000000
00000000
00000000
00000000
00000000
00000000
00000000
01e1e000
00c0c000
00c0c000
00c0c000
00c0c000
00c0c000
00ffc000
00c0c000
00c0c000
00c0c000
00c0c000
00c0c000
01e1e000
00000000
00000000
00000000
00000000
ENDCHAR
STARTCHAR 2760
ENCODING 10080
SWIDTH	-8531 0
DWIDTH	26 0
BBX 26	27 0 -1
BITMAP
00000000
00000000
00000000
00000000
00000000
00000000
00000000
00000000
00000000
00000000
003f0000
00618000
00c0c000
00c0c000
01806000
01806000
01806000
01806000
01806000
00c0c000
00c0c000
00618000
003f0000
00000000
00000000
00000000
00000000
ENDCHAR
STARTCHAR 2761
ENCODING 10081
SWIDTH	-8531 0
DWIDTH	26 0
BBX 26	27 0 -1
BITMAP
00000000
00000000
00000000
00000000
00000000
00000000
00000000
00000000
00000000
00000000
01ffe000
00c0c000
00c0c000
00c0c000
00c0c000
00c0c000
00c0c000
00c0c000
00c0c000
00c0c000
00c0c000
00c0c000
01e1e000
00000000
00000000
00000000
00000000
ENDCHAR
STARTCHAR 2762
ENCODING 10082
SWIDTH	-8531 0
DWIDTH	26 0
BBX 26	27 0 -1
BITMAP
00000000
00000000
00000000
00000000
00000000
00000000
00000000
00000000
00000000
00000000
00cf0000
01d18000
00e0c000
00c0c000
00c06000
00c06000
00c06000
00c06000
00c0c000
00e0c000
00d18000
00cf0000
00c00000
00c00000
01e00000
00000000
00000000
ENDCHAR
STARTCHAR 2763
ENCODING 10083
SWIDTH	-8531 0
DWIDTH	26 0
BBX 26	27 0 -1
BITMAP
00000000
00000000
00000000
00000000
00000000
00000000
00000000
00000000
00000000
00000000
003f0000
00618000
00c1c000
00c1c000
01808000
01800000
01800000
01800000
01800000
00c00000
00c04000
00608000
003f0000
00000000
00000000
00000000
00000000
ENDCHAR
STARTCHAR 2764
ENCODING 10084
SWIDTH	-8531 0
DWIDTH	26 0
BBX 26	27 0 -1
BITMAP
00000000
00000000
00000000
00000000
00000000
00000000
00000000
00000000
00000000
00000000
01ffe000
018c6000
030c3000
020c1000
000c0000
000c0000
000c0000
000c0000
000c0000
000c0000
000c0000
000c0000
001e0000
00000000
00000000
00000000
00000000
ENDCHAR
STARTCHAR 2765
ENCODING 10085
SWIDTH	-8531 0
DWIDTH	26 0
BBX 26	27 0 -1
BITMAP
00000000
00000000
00000000
00000000
00000000
00000000
00000000
00000000
00000000
00000000
03e07000
00c02000
00c02000
00604000
00604000
00308000
00308000
00190000
00190000
000e0000
00060000
00040000
01c40000
01c80000
00f00000
00000000
00000000
ENDCHAR
STARTCHAR 2766
ENCODING 10086
SWIDTH	-8531 0
DWIDTH	26 0
BBX 26	27 0 -1
BITMAP
00000000
00000000
00000000
00040000
000c0000
001c0000
000c0000
000c0000
000c0000
000c0000
01cce000
032d3000
021e1000
060c1800
060c1800
060c1800
060c1800
060c1800
060c1800
021e1000
032d3000
01cce000
000c0000
000c0000
001e0000
00000000
00000000
ENDCHAR
STARTCHAR 2767
ENCODING 10087
SWIDTH	-8531 0
DWIDTH	26 0
BBX 26	27 0 -1
BITMAP
00000000
00000000
00000000
00000000
00000000
00000000
00000000
00000000
00000000
00000000
03e1f000
00c04000
00608000
00310000
001a0000
000c0000
00060000
000b0000
00118000
0020c000
00406000
00803000
03e0fc00
00000000
00000000
00000000
00000000
ENDCHAR
STARTCHAR 2768
ENCODING 10088
SWIDTH	-8531 0
DWIDTH	26 0
BBX 26	27 0 -1
BITMAP
00000000
00000000
00000000
00000000
00000000
00000000
00000000
00000000
00000000
00000000
01e1e000
00c0c000
00c0c000
00c0c000
00c0c000
00c0c000
00c0c000
00c0c000
00c0c000
00c0c000
00c0c000
00c0c000
01fff000
00003000
00001000
00000000
00000000
ENDCHAR
STARTCHAR 2769
ENCODING 10089
SWIDTH	-8531 0
DWIDTH	26 0
BBX 26	27 0 -1
BITMAP
00000000
00000000
00000000
00000000
00000000
00000000
00000000
00000000
00000000
00000000
01e3c000
00c18000
00c18000
00c18000
00c18000
00c18000
00c18000
00618000
003f8000
00018000
00018000
00018000
0003c000
00000000
00000000
00000000
00000000
ENDCHAR
STARTCHAR 276a
ENCODING 10090
SWIDTH	-8531 0
DWIDTH	26 0
BBX 26	27 0 -1
BITMAP
00000000
00000000
00000000
00000000
00000000
00000000
00000000
00000000
00000000
00000000
079e7800
030c3000
030c3000
030c3000
030c3000
030c3000
030c3000
030c3000
030c3000
030c3000
030c3000
030c3000
07fff800
00000000
00000000
00000000
00000000
ENDCHAR
STARTCHAR 276b
ENCODING 10091
SWIDTH	-8531 0
DWIDTH	26 0
BBX 26	27 0 -1
BITMAP
00000000
00000000
00000000
00000000
00000000
00000000
00000000
00000000
00000000
00000000
079e7800
030c3000
030c3000
030c3000
030c3000
030c3000
030c3000
030c3000
030c3000
030c3000
030c3000
030c3000
07fffc00
00000c00
00000400
00000000
00000000
ENDCHAR
STARTCHAR 276c
ENCODING 10092
SWIDTH	-8531 0
DWIDTH	26 0
BBX 26	27 0 -1
BITMAP
00000000
00000000
00000000
00000000
00000000
00000000
00000000
00000000
00000000
00000000
07f80000
06300000
0c300000
08300000
00300000
003fc000
00306000
00303000
00303000
00303000
00303000
00306000
007fc000
00000000
00000000
00000000
00000000
ENDCHAR
STARTCHAR 276d
ENCODING 10093
SWIDTH	-8531 0
DWIDTH	26 0
BBX 26	27 0 -1
BITMAP
00000000
00000000
00000000
00000000
00000000
00000000
00000000
00000000
00000000
00000000
07807800
03003000
03003000
03003000
03003000
03fc3000
03063000
03033000
03033000
03033000
03033000
03063000
07fc7800
00000000
00000000
00000000
00000000
ENDCHAR
STARTCHAR 276e
ENCODING 10094
SWIDTH	-8531 0
DWIDTH	26 0
BBX 26	27 0 -1
BITMAP
00000000
00000000
00000000
00000000
00000000
00000000
00000000
00000000
00000000
00000000
01e00000
00c00000
00c00000
00c00000
00c00000
00ff0000
00c18000
00c0c000
00c0c000
00c0c000
00c0c000
00c18000
01ff0000
00000000
00000000
00000000
00000000
ENDCHAR
STARTCHAR 276f
ENCODING 10095
SWIDTH	-8531 0
DWIDTH	26 0
BBX 26	27 0 -1
BITMAP
00000000
00000000
00000000
00000000
00000000
00000000
00000000
00000000
00000000
00000000
003f0000
00e18000
00c0c000
0080c000
00006000
001c6000
0023e000
00006000
00006000
0000c000
0080c000
00418000
003f0000
00000000
00000000
00000000
00000000
ENDCHAR
STARTCHAR 2770
ENCODING 10096
SWIDTH	-8531 0
DWIDTH	26 0
BBX 26	27 0 -1
BITMAP
00000000
00000000
00000000
00000000
00000000
00000000
00000000
00000000
00000000
00000000
07818000
03066000
030c3000
030c3000
03181800
03181800
03f81800
03181800
03181800
030c3000
030c3000
03066000
07818000
00000000
00000000
00000000
00000000
ENDCHAR
STARTCHAR 2771
ENCODING 10097
SWIDTH	-8531 0
DWIDTH	26 0
BBX 26	27 0 -1
BITMAP
00000000
00000000
00000000
00000000
00000000
00000000
00000000
00000000
00000000
00000000
003fe000
0060c000
00c0c000
00c0c000
00c0c000
0060c000
003fc000
0030c000
0060c000
0060c000
00c0c000
00c0c000
03c1e000
00000000
00000000
00000000
00000000
ENDCHAR
STARTCHAR 2821
ENCODING 10273
SWIDTH	-8531 0
DWIDTH	26 0
BBX 26	27 0 -1
BITMAP
00000000
00000000
00000000
00000000
00000000
00000000
00000000
00000000
00000000
00000000
00000000
00000000
7fffff80
00000000
00000000
00000000
00000000
00000000
00000000
00000000
00000000
00000000
00000000
00000000
00000000
00000000
00000000
ENDCHAR
STARTCHAR 2822
ENCODING 10274
SWIDTH	-8531 0
DWIDTH	26 0
BBX 26	27 0 -1
BITMAP
00000000
00080000
00080000
00080000
00080000
00080000
00080000
00080000
00080000
00080000
00080000
00080000
00080000
00080000
00080000
00080000
00080000
00080000
00080000
00080000
00080000
00080000
00080000
00080000
00080000
00000000
00000000
ENDCHAR
STARTCHAR 2823
ENCODING 10275
SWIDTH	-8531 0
DWIDTH	26 0
BBX 26	27 0 -1
BITMAP
00000000
00000000
00000000
00000000
00000000
00000000
00000000
00000000
00000000
00000000
00000000
00000000
000fff80
00080000
00080000
00080000
00080000
00080000
00080000
00080000
00080000
00080000
00080000
00080000
00080000
00000000
00000000
ENDCHAR
STARTCHAR 2824
ENCODING 10276
SWIDTH	-8531 0
DWIDTH	26 0
BBX 26	27 0 -1
BITMAP
00000000
00000000
00000000
00000000
00000000
00000000
00000000
00000000
00000000
00000000
00000000
00000000
7ff80000
00080000
00080000
00080000
00080000
00080000
00080000
00080000
00080000
00080000
00080000
00080000
00080000
00000000
00000000
ENDCHAR
STARTCHAR 2825
ENCODING 10277
SWIDTH	-8531 0
DWIDTH	26 0
BBX 26	27 0 -1
BITMAP
00000000
00080000
00080000
00080000
00080000
00080000
00080000
00080000
00080000
00080000
00080000
00080000
7ff80000
00000000
00000000
00000000
00000000
00000000
00000000
00000000
00000000
00000000
00000000
00000000
00000000
00000000
00000000
ENDCHAR
STARTCHAR 2826
ENCODING 10278
SWIDTH	-8531 0
DWIDTH	26 0
BBX 26	27 0 -1
BITMAP
00000000
00080000
00080000
00080000
00080000
00080000
00080000
00080000
00080000
00080000
00080000
00080000
000fff80
00000000
00000000
00000000
00000000
00000000
00000000
00000000
00000000
00000000
00000000
00000000
00000000
00000000
00000000
ENDCHAR
STARTCHAR 2827
ENCODING 10279
SWIDTH	-8531 0
DWIDTH	26 0
BBX 26	27 0 -1
BITMAP
00000000
00080000
00080000
00080000
00080000
00080000
00080000
00080000
00080000
00080000
00080000
00080000
000fff80
00080000
00080000
00080000
00080000
00080000
00080000
00080000
00080000
00080000
00080000
00080000
00080000
00000000
00000000
ENDCHAR
STARTCHAR 2828
ENCODING 10280
SWIDTH	-8531 0
DWIDTH	26 0
BBX 26	27 0 -1
BITMAP
00000000
00000000
00000000
00000000
00000000
00000000
00000000
00000000
00000000
00000000
00000000
00000000
7fffff80
00080000
00080000
00080000
00080000
00080000
00080000
00080000
00080000
00080000
00080000
00080000
00080000
00000000
00000000
ENDCHAR
STARTCHAR 2829
ENCODING 10281
SWIDTH	-8531 0
DWIDTH	26 0
BBX 26	27 0 -1
BITMAP
00000000
00080000
00080000
00080000
00080000
00080000
00080000
00080000
00080000
00080000
00080000
00080000
7ff80000
00080000
00080000
00080000
00080000
00080000
00080000
00080000
00080000
00080000
00080000
00080000
00080000
00000000
00000000
ENDCHAR
STARTCHAR 282a
ENCODING 10282
SWIDTH	-8531 0
DWIDTH	26 0
BBX 26	27 0 -1
BITMAP
00000000
00080000
00080000
00080000
00080000
00080000
00080000
00080000
00080000
00080000
00080000
00080000
7fffff80
00000000
00000000
00000000
00000000
00000000
00000000
00000000
00000000
00000000
00000000
00000000
00000000
00000000
00000000
ENDCHAR
STARTCHAR 282b
ENCODING 10283
SWIDTH	-8531 0
DWIDTH	26 0
BBX 26	27 0 -1
BITMAP
00000000
00080000
00080000
00080000
00080000
00080000
00080000
00080000
00080000
00080000
00080000
00080000
7fffff80
00080000
00080000
00080000
00080000
00080000
00080000
00080000
00080000
00080000
00080000
00080000
00080000
00000000
00000000
ENDCHAR
STARTCHAR 282c
ENCODING 10284
SWIDTH	-8531 0
DWIDTH	26 0
BBX 26	27 0 -1
BITMAP
00000000
00000000
00000000
00000000
00000000
00000000
00000000
00000000
00000000
00000000
00000000
00000000
7fffff80
7fffff80
00000000
00000000
00000000
00000000
00000000
00000000
00000000
00000000
00000000
00000000
00000000
00000000
00000000
ENDCHAR
STARTCHAR 282d
ENCODING 10285
SWIDTH	-8531 0
DWIDTH	26 0
BBX 26	27 0 -1
BITMAP
00000000
000c0000
000c0000
000c0000
000c0000
000c0000
000c0000
000c0000
000c0000
000c0000
000c0000
000c0000
000c0000
000c0000
000c0000
000c0000
000c0000
000c0000
000c0000
000c0000
000c0000
000c0000
000c0000
000c0000
000c0000
00000000
00000000
ENDCHAR
STARTCHAR 282e
ENCODING 10286
SWIDTH	-8531 0
DWIDTH	26 0
BBX 26	27 0 -1
BITMAP
00000000
00000000
00000000
00000000
00000000
00000000
00000000
00000000
00000000
00000000
00000000
00000000
000fff80
000fff80
000c0000
000c0000
000c0000
000c0000
000c0000
000c0000
000c0000
000c0000
000c0000
000c0000
000c0000
00000000
00000000
ENDCHAR
STARTCHAR 282f
ENCODING 10287
SWIDTH	-8531 0
DWIDTH	26 0
BBX 26	27 0 -1
BITMAP
00000000
00000000
00000000
00000000
00000000
00000000
00000000
00000000
00000000
00000000
00000000
00000000
7ffc0000
7ffc0000
000c0000
000c0000
000c0000
000c0000
000c0000
000c0000
000c0000
000c0000
000c0000
000c0000
000c0000
00000000
00000000
ENDCHAR
STARTCHAR 2830
ENCODING 10288
SWIDTH	-8531 0
DWIDTH	26 0
BBX 26	27 0 -1
BITMAP
00000000
000c0000
000c0000
000c0000
000c0000
000c0000
000c0000
000c0000
000c0000
000c0000
000c0000
000c0000
7ffc0000
7ffc0000
00000000
00000000
00000000
00000000
00000000
00000000
00000000
00000000
00000000
00000000
00000000
00000000
00000000
ENDCHAR
STARTCHAR 2831
ENCODING 10289
SWIDTH	-8531 0
DWIDTH	26 0
BBX 26	27 0 -1
BITMAP
00000000
000c0000
000c0000
000c0000
000c0000
000c0000
000c0000
000c0000
000c0000
000c0000
000c0000
000c0000
000fff80
000fff80
00000000
00000000
00000000
00000000
00000000
00000000
00000000
00000000
00000000
00000000
00000000
00000000
00000000
ENDCHAR
STARTCHAR 2832
ENCODING 10290
SWIDTH	-8531 0
DWIDTH	26 0
BBX 26	27 0 -1
BITMAP
00000000
000c0000
000c0000
000c0000
000c0000
000c0000
000c0000
000c0000
000c0000
000c0000
000c0000
000c0000
000fff80
000fff80
000c0000
000c0000
000c0000
000c0000
000c0000
000c0000
000c0000
000c0000
000c0000
000c0000
000c0000
00000000
00000000
ENDCHAR
STARTCHAR 2833
ENCODING 10291
SWIDTH	-8531 0
DWIDTH	26 0
BBX 26	27 0 -1
BITMAP
00000000
00000000
00000000
00000000
00000000
00000000
00000000
00000000
00000000
00000000
00000000
00000000
7fffff80
7fffff80
000c0000
000c0000
000c0000
000c0000
000c0000
000c0000
000c0000
000c0000
000c0000
000c0000
000c0000
00000000
00000000
ENDCHAR
STARTCHAR 2834
ENCODING 10292
SWIDTH	-8531 0
DWIDTH	26 0
BBX 26	27 0 -1
BITMAP
00000000
000c0000
000c0000
000c0000
000c0000
000c0000
000c0000
000c0000
000c0000
000c0000
000c0000
000c0000
7ffc0000
7ffc0000
000c0000
000c0000
000c0000
000c0000
000c0000
000c0000
000c0000
000c0000
000c0000
000c0000
000c0000
00000000
00000000
ENDCHAR
STARTCHAR 2835
ENCODING 10293
SWIDTH	-8531 0
DWIDTH	26 0
BBX 26	27 0 -1
BITMAP
00000000
000c0000
000c0000
000c0000
000c0000
000c0000
000c0000
000c0000
000c0000
000c0000
000c0000
000c0000
7fffff80
7fffff80
00000000
00000000
00000000
00000000
00000000
00000000
00000000
00000000
00000000
00000000
00000000
00000000
00000000
ENDCHAR
STARTCHAR 2836
ENCODING 10294
SWIDTH	-8531 0
DWIDTH	26 0
BBX 26	27 0 -1
BITMAP
00000000
000c0000
000c0000
000c0000
000c0000
000c0000
000c0000
000c0000
000c0000
000c0000
000c0000
000c0000
7fffff80
7fffff80
000c0000
000c0000
000c0000
000c0000
000c0000
000c0000
000c0000
000c0000
000c0000
000c0000
000c0000
00000000
00000000
ENDCHAR
STARTCHAR 2837
ENCODING 10295
SWIDTH	-8531 0
DWIDTH	26 0
BBX 26	27 0 -1
BITMAP
00000000
000c0000
000c0000
000c0000
000c0000
000c0000
000c0000
000c0000
000c0000
000c0000
000c0000
000c0000
000fff80
000c0000
000c0000
000c0000
000c0000
000c0000
000c0000
000c0000
000c0000
000c0000
000c0000
000c0000
000c0000
00000000
00000000
ENDCHAR
STARTCHAR 2838
ENCODING 10296
SWIDTH	-8531 0
DWIDTH	26 0
BBX 26	27 0 -1
BITMAP
00000000
00000000
00000000
00000000
00000000
00000000
00000000
00000000
00000000
00000000
00000000
00000000
7fffff80
7fffff80
00080000
00080000
00080000
00080000
00080000
00080000
00080000
00080000
00080000
00080000
00080000
00000000
00000000
ENDCHAR
STARTCHAR 2839
ENCODING 10297
SWIDTH	-8531 0
DWIDTH	26 0
BBX 26	27 0 -1
BITMAP
00000000
000c0000
000c0000
000c0000
000c0000
000c0000
000c0000
000c0000
000c0000
000c0000
000c0000
000c0000
7ffc0000
000c0000
000c0000
000c0000
000c0000
000c0000
000c0000
000c0000
000c0000
000c0000
000c0000
000c0000
000c0000
00000000
00000000
ENDCHAR
STARTCHAR 283a
ENCODING 10298
SWIDTH	-8531 0
DWIDTH	26 0
BBX 26	27 0 -1
BITMAP
00000000
00080000
00080000
00080000
00080000
00080000
00080000
00080000
00080000
00080000
00080000
00080000
7fffff80
7fffff80
00000000
00000000
00000000
00000000
00000000
00000000
00000000
00000000
00000000
00000000
00000000
00000000
00000000
ENDCHAR
STARTCHAR 283b
ENCODING 10299
SWIDTH	-8531 0
DWIDTH	26 0
BBX 26	27 0 -1
BITMAP
00000000
00080000
00080000
00080000
00080000
00080000
00080000
00080000
00080000
00080000
00080000
00080000
7fffff80
7fffff80
00080000
00080000
00080000
00080000
00080000
00080000
00080000
00080000
00080000
00080000
00080000
00000000
00000000
ENDCHAR
STARTCHAR 283c
ENCODING 10300
SWIDTH	-8531 0
DWIDTH	26 0
BBX 26	27 0 -1
BITMAP
00000000
00080000
00080000
00080000
00080000
00080000
00080000
00080000
00080000
00080000
00080000
00080000
000fff80
000fff80
00080000
00080000
00080000
00080000
00080000
00080000
00080000
00080000
00080000
00080000
00080000
00000000
00000000
ENDCHAR
STARTCHAR 283d
ENCODING 10301
SWIDTH	-8531 0
DWIDTH	26 0
BBX 26	27 0 -1
BITMAP
00000000
00000000
00000000
00000000
00000000
00000000
00000000
00000000
00000000
00000000
00000000
00000000
7fffff80
000c0000
000c0000
000c0000
000c0000
000c0000
000c0000
000c0000
000c0000
000c0000
000c0000
000c0000
000c0000
00000000
00000000
ENDCHAR
STARTCHAR 283e
ENCODING 10302
SWIDTH	-8531 0
DWIDTH	26 0
BBX 26	27 0 -1
BITMAP
00000000
00080000
00080000
00080000
00080000
00080000
00080000
00080000
00080000
00080000
00080000
00080000
7ff80000
7ff80000
00080000
00080000
00080000
00080000
00080000
00080000
00080000
00080000
00080000
00080000
00080000
00000000
00000000
ENDCHAR
STARTCHAR 283f
ENCODING 10303
SWIDTH	-8531 0
DWIDTH	26 0
BBX 26	27 0 -1
BITMAP
00000000
000c0000
000c0000
000c0000
000c0000
000c0000
000c0000
000c0000
000c0000
000c0000
000c0000
000c0000
7fffff80
00000000
00000000
00000000
00000000
00000000
00000000
00000000
00000000
00000000
00000000
00000000
00000000
00000000
00000000
ENDCHAR
STARTCHAR 2840
ENCODING 10304
SWIDTH	-8531 0
DWIDTH	26 0
BBX 26	27 0 -1
BITMAP
00000000
000c0000
000c0000
000c0000
000c0000
000c0000
000c0000
000c0000
000c0000
000c0000
000c0000
000c0000
7fffff80
000c0000
000c0000
000c0000
000c0000
000c0000
000c0000
000c0000
000c0000
000c0000
000c0000
000c0000
000c0000
00000000
00000000
ENDCHAR
STARTCHAR 3021
ENCODING 12321
SWIDTH	-8531 0
DWIDTH	26 0
BBX 26	27 0 -1
BITMAP
00000000
00000000
00000600
3fffff00
00c18000
00c18000
00c18000
00c18000
10c18400
1ffffe00
18c18e00
18c18c00
18c18c00
18c18c00
18c18c00
18c18c00
1ffffc00
18c18c00
18c18000
00c18000
00c18000
00c18200
00c18700
7fffff80
00000000
00000000
00000000
ENDCHAR
STARTCHAR 3022
ENCODING 12322
SWIDTH	-8531 0
DWIDTH	26 0
BBX 26	27 0 -1
BITMAP
00000000
00000300
213fff80
3f833000
33833000
33033000
33033000
33233100
333f3f80
33333380
33300300
33300300
33300300
33300300
33300300
33322300
333f3f00
3f333300
33033000
30033000
00033000
00033000
00033300
00ffff80
00000000
00000000
00000000
ENDCHAR
STARTCHAR 3023
ENCODING 12323
SWIDTH	-8531 0
DWIDTH	26 0
BBX 26	27 0 -1
BITMAP
00000000
0e00e000
0c00c000
0c00c000
0c00c200
0c1fff00
0c40c000
7fe0c000
18e0c000
18c0c000
18c0c300
18dfff80
30c00000
3180e000
3180c000
3180c000
3d00c200
631fff00
6380c000
06c0c000
0660c000
0c40c000
1800c300
307fff80
40000000
00000000
00000000
ENDCHAR
STARTCHAR 3024
ENCODING 12324
SWIDTH	-8531 0
DWIDTH	26 0
BBX 26	27 0 -1
BITMAP
00000000
00000000
21000300
3fbfff80
31800600
31800600
31000600
33104600
321fe600
3218e600
3418c600
3218c600
3318c600
3118c600
3198c600
319fc600
3198c600
31980600
31800600
37800600
33000600
30000600
30000600
3000fe00
30001c00
00000000
00000000
ENDCHAR
STARTCHAR 3025
ENCODING 12325
SWIDTH	-8531 0
DWIDTH	26 0
BBX 26	27 0 -1
BITMAP
00000000
001c0000
00180000
00180300
7fffff80
00000000
00000000
08001000
0ffff800
0c003800
0c003000
0c003000
0c003000
0ffff000
0c340200
00640700
00c20c00
01831800
0381a000
0d80c000
71806000
018e3000
01f01c00
3f800f80
1c000300
00000000
00000000
ENDCHAR
STARTCHAR 3026
ENCODING 12326
SWIDTH	-8531 0
DWIDTH	26 0
BBX 26	27 0 -1
BITMAP
00000000
0000fc00
007ffe00
1fd03000
01086000
218c8100
3fffff80
60000380
60cc0200
04c61000
0cc64c00
0cc06600
18ffe600
007fc000
01000000
01803000
03fff800
07803000
0cc06000
1871c000
001f0000
000f8000
007df800
07c07f80
7c000f00
00000000
00000000
ENDCHAR
STARTCHAR 3027
ENCODING 12327
SWIDTH	-8531 0
DWIDTH	26 0
BBX 26	27 0 -1
BITMAP
00000000
0e030000
0c030000
0c063000
0c040c00
0c080700
0c3ffb80
7f9f0180
0c000000
0c0e0000
0c0c0c00
0c9ffe00
0f10c000
1c20c000
7c40c000
6c00c300
0c7fff80
0c00c000
0c01e000
0c01a000
0c031000
0c061800
0c0c0e00
7c300780
18c00300
00000000
00000000
ENDCHAR
STARTCHAR 3028
ENCODING 12328
SWIDTH	-8531 0
DWIDTH	26 0
BBX 26	27 0 -1
BITMAP
00000000
0e00e000
0c01c000
0c01a000
0c032000
0c031000
18861800
7fc60c00
19cc0e00
19980780
19900380
19a7f900
31800000
31800000
33000000
33100200
331fff00
6a180700
66180600
07180600
0d980600
09180600
18180600
301ffe00
40180600
00000000
00000000
ENDCHAR
STARTCHAR 3029
ENCODING 12329
SWIDTH	-8531 0
DWIDTH	26 0
BBX 26	27 0 -1
BITMAP
00000000
000e0000
300c0800
181ffc00
0c181800
0c343000
00626000
0183c000
00018000
0003e000
000c3c00
04318f80
7ec18300
0e3ff800
0c018000
0c018000
0c3ffc00
0c018000
0c018600
0cffff00
0c018000
0e018000
1b800000
70ffff80
207fff00
00000000
00000000
ENDCHAR
STARTCHAR 302a
ENCODING 12330
SWIDTH	-8531 0
DWIDTH	26 0
BBX 26	27 0 -1
BITMAP
00000000
00e1c000
00c18300
7fffff80
00c18000
00c18000
00103000
3ff83000
003a6600
18718600
0e60cc00
06c07000
01803c00
037fcf80
060c0300
180c0000
60180100
1fffff00
001a0000
00330000
00618000
00c0e000
01803c00
06000f80
78000300
00000000
00000000
ENDCHAR
STARTCHAR 302b
ENCODING 12331
SWIDTH	-8531 0
DWIDTH	26 0
BBX 26	27 0 -1
BITMAP
00000000
00e0e000
00c0c000
00c0c300
7fffff80
00c0c000
00c0c000
00000300
7fffff80
00330000
00330000
00330000
10330200
1fffff00
18630700
18630600
18632600
18c32600
18c3f600
1981e600
1e000600
18000600
18000600
1ffffe00
18000600
00000000
00000000
ENDCHAR
STARTCHAR 302c
ENCODING 12332
SWIDTH	-8531 0
DWIDTH	26 0
BBX 26	27 0 -1
BITMAP
00000000
00c30000
07c60800
7e07fc00
060c3000
06304100
060fff80
064c6380
7fec6300
060fff00
060c6300
0e0c6300
0f0fff00
0e806000
1ec06000
165fff80
36186300
26186300
661fff00
46186300
06186300
061fff00
06186080
06006080
06003f00
00000000
00000000
ENDCHAR
STARTCHAR 302d
ENCODING 12333
SWIDTH	-8531 0
DWIDTH	26 0
BBX 26	27 0 -1
BITMAP
00000000
00000600
3fffff00
00618000
00618000
08618400
0ffffe00
0c618e00
0c618c00
0c618c00
0ffffc00
0c618c00
00618000
00618300
7fffff80
00000000
00180000
01ce1000
09870c00
09860600
19802300
31802380
71803300
61fff000
00ffe000
00000000
00000000
ENDCHAR
STARTCHAR 302e
ENCODING 12334
SWIDTH	-8531 0
DWIDTH	26 0
BBX 26	27 0 -1
BITMAP
00000000
0e000000
0c200100
0c3fff80
0c300380
0c300300
0c300300
7fbfff00
0c300000
0c300080
0c3fff80
0c31c000
0db18400
0e330200
7c621f00
6c6ff180
0c666180
0c606000
0cc06200
0ccfff00
0c806000
0c806000
0d006300
7d3fff80
18000000
00000000
00000000
ENDCHAR
STARTCHAR 302f
ENCODING 12335
SWIDTH	-8531 0
DWIDTH	26 0
BBX 26	27 0 -1
BITMAP
00000000
00000000
18200100
0c3fff80
06300380
06300300
00300300
003fff00
61300000
31300080
313fff80
02318000
02318400
06330300
04620f80
0c6ff180
08676100
18406000
78406200
30cfff00
30806000
18806000
19006100
193fff80
18000000
00000000
00000000
ENDCHAR
STARTCHAR 3030
ENCODING 12336
SWIDTH	-8531 0
DWIDTH	26 0
BBX 26	27 0 -1
BITMAP
00000000
0e000000
0c000000
0c000000
0c040400
0c07fe00
0c460e00
7fe60c00
0ce60c00
0cc60c00
0cc60c00
0cc7fc00
0cc60c00
0cc60c00
18c60c00
18c60c00
18c60c00
18c60d00
18c7fd00
30c60100
30c00100
20c00100
20c00180
40ffff80
407fff00
00000000
00000000
ENDCHAR
STARTCHAR 3031
ENCODING 12337
SWIDTH	-8531 0
DWIDTH	26 0
BBX 26	27 0 -1
BITMAP
00000000
01c1c000
01818300
7fffff80
01818000
01b98000
00302000
1ffff000
00606000
00606300
7fffff80
00000000
00000000
07fff800
06003000
06003000
07fff000
00060200
1ffffe00
06060000
0c060100
1fffff80
00060000
00060000
00060000
00000000
00000000
ENDCHAR
STARTCHAR 3032
ENCODING 12338
SWIDTH	-8531 0
DWIDTH	26 0
BBX 26	27 0 -1
BITMAP
00000000
00e0e000
00c0c000
00c0c300
7fffff80
00c0c000
00c0c000
00000000
0001f000
080ff800
0ff80000
0c000000
0c000400
0ffffe00
0c000e00
0c000c00
0c000c00
0ffffc00
18000c00
18000000
10000000
30000000
20000000
60000000
40000000
00000000
00000000
ENDCHAR
STARTCHAR 3033
ENCODING 12339
SWIDTH	-8531 0
DWIDTH	26 0
BBX 26	27 0 -1
BITMAP
00000000
0c00e000
0c00c000
18818c00
1fc10600
31821f00
210fe300
42060100
3fc0e000
3240c080
327fff80
3241a000
3fc31000
32461800
324c4e00
3270e780
3fc18100
30061000
00183800
02406200
29218700
2dae1e00
64007800
6003c000
003c0000
00000000
00000000
ENDCHAR
STARTCHAR 3034
ENCODING 12340
SWIDTH	-8531 0
DWIDTH	26 0
BBX 26	27 0 -1
BITMAP
00000000
0e00e000
0c00c000
0c00c300
0c7fff80
0c000c00
0c880c00
7f8c1800
0c061800
0c071000
1e022000
1d002300
1d3fff80
3c80c000
3c80c000
2c00c000
6c00c600
4c1fff00
4c00c000
0c00c000
0c00c000
0c00c000
0c00c000
0c00c000
0c00c000
00000000
00000000
ENDCHAR
STARTCHAR 3035
ENCODING 12341
SWIDTH	-8531 0
DWIDTH	26 0
BBX 26	27 0 -1
BITMAP
00000000
00000200
08000700
0fffff80
0c000000
0c000000
0c038000
0c030000
0c030000
0c030000
0c030000
0c030000
0c030600
0cffff00
0c030000
18030000
18030000
18030000
10030000
30030000
30030000
20030000
20030300
47ffff80
00000000
00000000
00000000
ENDCHAR
STARTCHAR 3036
ENCODING 12342
SWIDTH	-8531 0
DWIDTH	26 0
BBX 26	27 0 -1
BITMAP
00000000
07007000
06006000
0620d000
7ff0d000
06019800
06018800
3fe30c00
30620600
30660700
30658380
3fe8cd00
3060cc00
30600c00
30630c00
3fe18c00
0600cc00
06000c80
06100f80
7ff07c00
06078c00
06000c00
06000c00
06000c00
06000c00
00000000
00000000
ENDCHAR
STARTCHAR 3037
ENCODING 12343
SWIDTH	-8531 0
DWIDTH	26 0
BBX 26	27 0 -1
BITMAP
00000000
07000800
063ffc00
06061c00
06061800
06461800
7fe71800
06073000
06073000
0606bf00
0606b700
06468600
078e8600
1e0e8600
7e0c8c00
660c8c00
06185800
06185800
06187000
06306000
0620f000
06619800
06430e00
7e860780
1d180300
00000000
00000000
ENDCHAR
STARTCHAR 3038
ENCODING 12344
SWIDTH	-8531 0
DWIDTH	26 0
BBX 26	27 0 -1
BITMAP
00000000
000e0000
000c0000
100c0100
1fffff80
30000300
73800600
63000000
03120200
07fbff00
06330700
04330600
0c330600
08330600
16630600
13630600
21633e00
00c30c00
00c30000
01830100
03030100
06030100
0c030180
1803ff80
6001ff00
00000000
00000000
ENDCHAR
STARTCHAR 3039
ENCODING 12345
SWIDTH	-8531 0
DWIDTH	26 0
BBX 26	27 0 -1
BITMAP
00000000
0e000000
0c000000
0c040200
0c07ff00
0c060700
0c460600
7fe60600
18e60600
18c60600
18c7fe00
18c60600
18c60600
18c60600
18c60600
31860600
3187fe00
39860600
37060600
33860600
06c60600
04660600
08460680
107fff80
60000000
00000000
00000000
ENDCHAR
STARTCHAR 303a
ENCODING 12346
SWIDTH	-8531 0
DWIDTH	26 0
BBX 26	27 0 -1
BITMAP
00000000
07007000
06006000
06006000
06006000
06006300
460fff80
7fe60000
66660000
66660000
66660000
66660000
66660000
66660000
7fe60000
66060000
06060000
06860000
06460000
06e60000
0f360000
7c260000
7007ff80
0003ff00
00000000
00000000
00000000
ENDCHAR
STARTCHAR 303b
ENCODING 12347
SWIDTH	-8531 0
DWIDTH	26 0
BBX 26	27 0 -1
BITMAP
00000000
0600c000
0700e000
0c80c000
0c60c000
18318000
10319800
2fc10600
40030300
00020700
3fcff980
30c78180
30c00000
3fc00000
30c40200
30c7ff00
3fc60700
30060600
30060600
3fc60600
30060600
30060600
3fe60600
3007fe00
30060600
00000000
00000000
ENDCHAR
STARTCHAR 303c
ENCODING 12348
SWIDTH	-8531 0
DWIDTH	26 0
BBX 26	27 0 -1
BITMAP
00000000
0c030000
0c030000
18030000
18c60000
50c60100
318fff80
198c0380
1b180300
06201300
0887f300
10c63300
7fc63300
66663300
0607f300
06063300
26863300
36c63300
2647f300
26660300
66660300
46000600
46000e00
0600fc00
06001800
00000000
00000000
ENDCHAR
STARTCHAR 303d
ENCODING 12349
SWIDTH	-8531 0
DWIDTH	26 0
BBX 26	27 0 -1
BITMAP
00000000
0600c000
0600c600
0c1fff00
0800c000
5180c000
3180c300
1b3fff80
1e061800
04061900
08841900
10cc1f80
7fc98f00
66518000
06030000
0607fe00
369a0c00
36410c00
26409800
2660f000
46406000
4600f000
06019c00
06060f80
06380300
00000000
00000000
ENDCHAR
STARTCHAR 303e
ENCODING 12350
SWIDTH	-8531 0
DWIDTH	26 0
BBX 26	27 0 -1
BITMAP
00000000
0e007000
0c006000
0fe06000
18e06000
18806300
31207f80
3ff06000
59306000
19206000
19206000
1fe06000
19246100
1927ff80
19260380
19260300
1fe60300
00060300
00060300
15260300
14960300
36de0300
6607ff00
60060300
00060300
00000000
00000000
ENDCHAR
STARTCHAR 303f
ENCODING 12351
SWIDTH	-8531 0
DWIDTH	26 0
BBX 26	27 0 -1
BITMAP
00000000
00039800
00030c00
00030000
00030100
7fffff80
00030000
00030000
10130200
1ff98380
18398300
18318600
18318600
1830cc00
1830cc00
1ff0d800
1800f000
00007000
00006100
0038e100
03c1b100
7f031100
38061980
00180f80
00e00700
00000000
00000000
ENDCHAR
STARTCHAR 3040
ENCODING 12352
SWIDTH	-8531 0
DWIDTH	26 0
BBX 26	27 0 -1
BITMAP
00000000
00000300
7fffff80
00618000
10618200
1fffff00
18618700
18618600
18618600
18618600
1ffffe00
020c2000
010c7000
018c6000
01cc8000
008d0300
7fffff80
003e0000
006d0000
00cd8000
018ce000
030c3c00
0c0c0f80
700c0300
000c0000
00000000
00000000
ENDCHAR
STARTCHAR 3041
ENCODING 12353
SWIDTH	-8531 0
DWIDTH	26 0
BBX 26	27 0 -1
BITMAP
00000000
0e018000
0c01c000
0c034000
0c032000
0d063000
7f861000
038c1800
03080c00
06100700
06201380
0c8ff900
0d800000
1d000000
1e100200
2d1fff00
4d980700
0c980600
0c180600
0c180600
0c180600
0c180600
0c180600
0c1ffe00
0c180600
00000000
00000000
ENDCHAR
STARTCHAR 3042
ENCODING 12354
SWIDTH	-8531 0
DWIDTH	26 0
BBX 26	27 0 -1
BITMAP
00000000
000e0000
000c0000
100c0000
100c0200
3fffff00
30000700
70300600
60300c00
00600000
00600000
00c00300
7fffff80
00c06000
01806000
0180c000
0300c000
03018000
07e18000
061f0000
00078000
000ce000
00383800
01e00e00
7f000600
00000000
00000000
ENDCHAR
STARTCHAR 3043
ENCODING 12355
SWIDTH	-8531 0
DWIDTH	26 0
BBX 26	27 0 -1
BITMAP
00000000
00070000
20060300
3fffff80
300c0000
30180000
30180600
37ffff00
30308000
30606000
30c73000
31861c00
33060f80
35fffb00
39861800
31861800
31fff800
31861800
31861800
21861900
61fff900
41860100
40060180
4007ff80
4003ff00
00000000
00000000
ENDCHAR
STARTCHAR 3044
ENCODING 12356
SWIDTH	-8531 0
DWIDTH	26 0
BBX 26	27 0 -1
BITMAP
00000000
0e00e000
0c00c000
0c10c100
0c1fff80
0c300380
0d700300
7f638600
0c030000
0c030000
0c060300
0dbfff80
0e060c00
7c060c00
6c0c0c00
0c0c1800
0c0c1800
0c1e3000
0c19b000
0c00e000
0c00d800
0c018600
0c030300
7c0c0380
18700180
00000000
00000000
ENDCHAR
STARTCHAR 3045
ENCODING 12357
SWIDTH	-8531 0
DWIDTH	26 0
BBX 26	27 0 -1
BITMAP
00000000
0001c000
41018000
7f818000
63018600
633fff00
63181800
63081800
630c1000
630c3000
7f042300
637fff80
63000000
63000000
633ffe00
63300c00
63300c00
63300c00
7f3ffc00
63300c00
60300c00
60300c00
003ffc00
00300c00
00300c00
00000000
00000000
ENDCHAR
STARTCHAR 3046
ENCODING 12358
SWIDTH	-8531 0
DWIDTH	26 0
BBX 26	27 0 -1
BITMAP
00000000
000e0000
100c0200
3fffff00
60000700
60300c00
00600000
7fffff80
01806000
0300c000
07f98000
0c07c000
001c7800
00701c00
3f8e0400
000c0000
7fffff80
003e0000
007d0000
00ecc000
018c7000
030c3c00
0c0c0f80
700c0300
000c0000
00000000
00000000
ENDCHAR
STARTCHAR 3047
ENCODING 12359
SWIDTH	-8531 0
DWIDTH	26 0
BBX 26	27 0 -1
BITMAP
00000000
20220200
3ff3ff00
30730700
30630600
3fe3fe00
30630600
30630600
3fe3fe00
30000600
307f0600
30000600
31ffc600
30230600
30320600
33ffe600
30000600
30ff8600
30c18600
30c18600
30ff8600
30c18600
30c18600
30ffbe00
30000c00
00000000
00000000
ENDCHAR
STARTCHAR 3048
ENCODING 12360
SWIDTH	-8531 0
DWIDTH	26 0
BBX 26	27 0 -1
BITMAP
00000000
31c07000
31806000
31886100
7fefff80
31880380
3198c300
3f98c200
0600c000
0600c300
4627ff80
7ff18c00
66718c00
66618c00
66630c00
7fe31800
06031800
06079800
06267000
7ff03800
06006c00
0600c700
06018380
06060180
06380000
00000000
00000000
ENDCHAR
STARTCHAR 3049
ENCODING 12361
SWIDTH	-8531 0
DWIDTH	26 0
BBX 26	27 0 -1
BITMAP
00000000
000e0000
000c0000
000c0200
000c0700
7fffff80
003e0000
003d0000
006d0000
00ccc000
018c6000
030c3800
060c1e00
180c0f80
70000300
07fff800
06001800
06001800
06001800
06001800
06001800
06001800
06001800
07fff800
06001800
00000000
00000000
ENDCHAR
STARTCHAR 304a
ENCODING 12362
SWIDTH	-8531 0
DWIDTH	26 0
BBX 26	27 0 -1
BITMAP
00000000
00001c00
07201800
06101800
06181800
060c1800
060e1800
06041800
06001800
06001800
06001800
06001800
06001800
06041800
06043000
06083000
06303000
06606800
06c06c00
0700c600
0c018600
78030700
700c0300
20300380
01c00300
00000000
00000000
ENDCHAR
STARTCHAR 304b
ENCODING 12363
SWIDTH	-8531 0
DWIDTH	26 0
BBX 26	27 0 -1
BITMAP
00000000
07000000
06000400
067ffe00
06030e00
0c030c00
0c030c00
0c030c00
18030d00
19ffff80
3c030c00
2c030c00
4c030c00
4c030c00
0c030c00
0cfffc00
0c060c00
0c060000
0c0c0000
0c0c0000
0c180000
0c180000
0c300000
0c200000
0c400000
00000000
00000000
ENDCHAR
STARTCHAR 304c
ENCODING 12364
SWIDTH	-8531 0
DWIDTH	26 0
BBX 26	27 0 -1
BITMAP
00000000
0301c000
03018000
03018000
06018000
06018300
063fff80
0c000000
0c000c00
0c200e00
1e200c00
1e100c00
36101800
26181800
46081800
060c3000
060c3000
060c2000
060c6000
060c4000
06004000
06008300
067fff80
06000000
06000000
00000000
00000000
ENDCHAR
STARTCHAR 304d
ENCODING 12365
SWIDTH	-8531 0
DWIDTH	26 0
BBX 26	27 0 -1
BITMAP
00000000
0701c000
06018000
06018000
06018000
0c018300
0cffff80
0c060000
18060000
180d0600
180d0700
2c190c00
2c389800
4c30e000
0c70c000
0cf06000
0cb06000
0d302000
0c303000
0c301800
0c309800
0c330c00
0c3c0e00
0df00780
0cc00300
00000000
00000000
ENDCHAR
STARTCHAR 304e
ENCODING 12366
SWIDTH	-8531 0
DWIDTH	26 0
BBX 26	27 0 -1
BITMAP
00000000
03038000
03030000
03060800
063ffc00
06061c00
060c1800
0c0c1900
0cffff80
0c000000
1c000000
1e3ffc00
36300c00
26300c00
663ffc00
46018000
06018100
063fff00
06318000
06318000
06ffff80
06018000
06018000
06018000
06018000
00000000
00000000
ENDCHAR
STARTCHAR 304f
ENCODING 12367
SWIDTH	-8531 0
DWIDTH	26 0
BBX 26	27 0 -1
BITMAP
00000000
20000100
3fffff80
30000380
3071c300
30618300
30618300
30619300
37fffb00
30618300
30618300
30618300
30618300
30619300
37fffb00
30618300
30618300
30c18300
30c18300
31818300
32018300
30000300
3fffff00
30000300
30000300
00000000
00000000
ENDCHAR
STARTCHAR 3050
ENCODING 12368
SWIDTH	-8531 0
DWIDTH	26 0
BBX 26	27 0 -1
BITMAP
00000000
000e0000
000c0300
7fffff80
000c0000
000c0000
1ffffe00
000c0e00
000c0c00
080c0c00
0ffffc00
180c0c00
180c0000
300c0100
3fffff80
300c0380
301a0300
001a0300
00311f00
0060c600
00c06000
01803800
03001e00
0c000780
70000100
00000000
00000000
ENDCHAR
STARTCHAR 3051
ENCODING 12369
SWIDTH	-8531 0
DWIDTH	26 0
BBX 26	27 0 -1
BITMAP
00000000
00007c00
0007fe00
3ffc0000
000c0000
000c0300
7fffff80
003e0000
006d8000
00cce000
038c3c00
060c0f80
18180300
60300000
00600100
7fffff80
00c0e000
0180c000
03f1c000
060f8000
0003e000
000e3800
00381e00
01e00700
3e000300
00000000
00000000
ENDCHAR
STARTCHAR 3052
ENCODING 12370
SWIDTH	-8531 0
DWIDTH	26 0
BBX 26	27 0 -1
BITMAP
00000000
0001d800
00018800
20018300
3fffff80
30018000
30018000
30018000
30098000
3ffd8700
30c18600
30c18600
31898c00
3ffd8c00
318ccc00
330cd800
3318d800
3318f000
36b07000
20606100
20d0f100
61999900
43030d80
46060780
18380300
00000000
00000000
ENDCHAR
STARTCHAR 3053
ENCODING 12371
SWIDTH	-8531 0
DWIDTH	26 0
BBX 26	27 0 -1
BITMAP
00000000
10020700
1fff0600
18070600
18060600
18060600
1ffe0600
18000600
1800ff80
18080600
1bfc0600
18008600
1800c600
18044600
37fe6600
30606600
30604600
326c0600
23660600
26630600
64620600
48600600
40600600
03e07e00
00c00c00
00000000
00000000
ENDCHAR
STARTCHAR 3054
ENCODING 12372
SWIDTH	-8531 0
DWIDTH	26 0
BBX 26	27 0 -1
BITMAP
00000000
0e0c1800
0c0e1800
0c0c3000
0c0c3000
0c186000
2f184300
2d9fff80
2cb86000
6c386000
6c786000
4c586600
4c9fff00
0c186000
0c186000
0c186000
0c186600
0c1fff00
0c186000
0c186000
0c186000
0c186000
0c186300
0c1fff80
0c180000
00000000
00000000
ENDCHAR
STARTCHAR 3055
ENCODING 12373
SWIDTH	-8531 0
DWIDTH	26 0
BBX 26	27 0 -1
BITMAP
00000000
000e0000
000c0c00
1ffffe00
0080c000
00c0c000
00618300
7fffff80
00000000
00000000
07fffc00
06001800
06001800
07fff800
06001800
06001800
07fff800
00000000
00180000
09860400
11832200
31802300
61803180
61fff180
00ffe000
00000000
00000000
ENDCHAR
STARTCHAR 3056
ENCODING 12374
SWIDTH	-8531 0
DWIDTH	26 0
BBX 26	27 0 -1
BITMAP
00000000
20080e00
3ffc0c00
30180c00
30180c00
3ff80d00
3003ff80
30000c00
33f80c00
30010c00
2000cc00
2ffc6c00
60c04c00
4cc80c00
58c40c00
13c67c00
21801800
00100000
138c1000
13060c00
33044700
33004380
63004100
63ffe000
01ffc000
00000000
00000000
ENDCHAR
STARTCHAR 3057
ENCODING 12375
SWIDTH	-8531 0
DWIDTH	26 0
BBX 26	27 0 -1
BITMAP
00000000
04000800
07fffc00
06001c00
06001800
07fff800
06001800
06001800
06001800
07fff800
00c00000
00c00000
01800100
03ffff80
0618c380
0c31c300
18618300
60c30300
01830300
03060300
0c0c0600
30380600
00e00e00
0381fc00
3c003800
00000000
00000000
ENDCHAR
STARTCHAR 3058
ENCODING 12376
SWIDTH	-8531 0
DWIDTH	26 0
BBX 26	27 0 -1
BITMAP
00000000
0e01c000
0c018000
0c018300
0c3fff80
0c818000
7fc36000
0c061800
0c0c0c00
1c180600
1c600600
1e000000
3d3fff80
3d800600
2c800600
6c1fe600
4c18e600
4c18c600
0c18c600
0c18c600
0c1fc600
0c180600
0c000600
0c007e00
0c001c00
00000000
00000000
ENDCHAR
STARTCHAR 3059
ENCODING 12377
SWIDTH	-8531 0
DWIDTH	26 0
BBX 26	27 0 -1
BITMAP
00000000
0c030000
03038000
01870000
01860000
000c1000
3ffff800
00183000
00183000
00303400
007ffe00
00c00e00
01800c00
03000c00
06000d00
0fffff80
18000380
60004300
04842300
0cc63300
0c431300
18630300
38620700
1040fe00
00001c00
00000000
00000000
ENDCHAR
STARTCHAR 305a
ENCODING 12378
SWIDTH	-8531 0
DWIDTH	26 0
BBX 26	27 0 -1
BITMAP
00000000
08000400
0ffffe00
0c0c0e00
0c0c0c00
0c0c0c00
0ffffc00
0c0c0c00
0c0c0c00
0c0c0c00
0ffffc00
00000000
00000300
7fffff80
06080000
06080000
06040e00
06060c00
06031800
0601b000
0600c000
061c7000
07e03c00
7f000f80
7c000300
00000000
00000000
ENDCHAR
STARTCHAR 305b
ENCODING 12379
SWIDTH	-8531 0
DWIDTH	26 0
BBX 26	27 0 -1
BITMAP
00000000
08000400
0ffffe00
0c0c0e00
0c0c0c00
0c0c0c00
0ffffc00
0c0c0c00
0c0c0c00
0c0c0c00
0ffffc00
00c18000
00c18000
00c18600
3fffff00
00c18000
00c18000
00c18300
7fffff80
00000000
00e1c000
01c03800
07000e00
0c000700
70000300
00000000
00000000
ENDCHAR
STARTCHAR 305c
ENCODING 12380
SWIDTH	-8531 0
DWIDTH	26 0
BBX 26	27 0 -1
BITMAP
00000000
00c1c000
07e18000
7e038200
0603ff00
06060600
06060c00
064d9800
7fd0f000
06006000
0e00c000
0f01b000
0e863000
1ed86100
1e40ff80
16018380
36030300
26078600
460ccc00
4630d800
06003000
06006000
0600c000
06030000
061c0000
00000000
00000000
ENDCHAR
STARTCHAR 305d
ENCODING 12381
SWIDTH	-8531 0
DWIDTH	26 0
BBX 26	27 0 -1
BITMAP
00000000
06031800
06031800
04033000
0c063000
49862000
29846300
330fff80
1b0e3000
06163000
08963000
10463200
7fe7ff00
66663000
06063000
06063000
26863200
3647ff00
36463000
26663000
66263000
46063000
06063180
0607ff80
06060000
00000000
00000000
ENDCHAR
STARTCHAR 305e
ENCODING 12382
SWIDTH	-8531 0
DWIDTH	26 0
BBX 26	27 0 -1
BITMAP
00000000
06038000
06030000
0c030800
481ffc00
29861c00
318c1800
1b0c1900
167fff80
0c000000
08800000
104ffe00
7fcc0e00
766c0c00
064ffc00
06006000
26806000
368fff00
264c6000
664c6000
463fff80
46006000
46006000
06006000
06006000
00000000
00000000
ENDCHAR
STARTCHAR 305f
ENCODING 12383
SWIDTH	-8531 0
DWIDTH	26 0
BBX 26	27 0 -1
BITMAP
00000000
10000400
1ffffe00
18180e00
18180c00
1ffffc00
18180c00
18180c00
18180c00
1ffffc00
00000000
00000000
07fff800
06003800
06003000
07fff000
06003000
06003000
06003000
07fff000
06003000
06003000
06003000
0603f000
0600e000
00000000
00000000
ENDCHAR
STARTCHAR 3060
ENCODING 12384
SWIDTH	-8531 0
DWIDTH	26 0
BBX 26	27 0 -1
BITMAP
00000000
00e1c000
00c18300
7fffff80
00c18000
00c03800
0003fc00
0ffe0000
000c0000
000c0300
7fffff80
003d0000
00ecc000
038c7800
0e0c0f80
700c0300
00300000
00600080
7fffff80
00c0c000
01e18000
031f0000
000de000
00707800
1f801c00
00000000
00000000
ENDCHAR
STARTCHAR 3061
ENCODING 12385
SWIDTH	-8531 0
DWIDTH	26 0
BBX 26	27 0 -1
BITMAP
00000000
000e0000
000c0000
000c0000
000c0000
000c0300
7fffff80
00180000
00180000
00340000
00340c00
00620e00
00e21800
01c33000
03c14000
06c18000
0cc08000
18c0c000
60c06000
00c03000
00c3b800
00dc1c00
03f00e00
1f800780
0c000300
00000000
00000000
ENDCHAR
STARTCHAR 3062
ENCODING 12386
SWIDTH	-8531 0
DWIDTH	26 0
BBX 26	27 0 -1
BITMAP
00000000
01100100
3f9fff80
0018c380
0018c300
019fff00
7fd8c300
0018c300
0018c300
011fff00
3f800000
00000000
000fff00
3f8c0700
000c0600
000ffe00
208c0600
3fcc0600
31cc0600
318ffe00
318c0600
318c0600
318c0600
3f8c7e00
318c1c00
00000000
00000000
ENDCHAR
STARTCHAR 3063
ENCODING 12387
SWIDTH	-8531 0
DWIDTH	26 0
BBX 26	27 0 -1
BITMAP
00000000
00030000
00030800
307ffc00
18061c00
0c061800
0c0c1880
01ffff80
00000000
00000000
001ffe00
00180c00
02180c00
7f1ffc00
0700c000
0600c100
063fff00
0630c000
0630c000
06ffff80
0600c000
0e00c000
1b000000
71ffff80
207fff00
00000000
00000000
ENDCHAR
STARTCHAR 3064
ENCODING 12388
SWIDTH	-8531 0
DWIDTH	26 0
BBX 26	27 0 -1
BITMAP
00000000
00038000
30430400
187ffe00
0c630e00
0c630c00
007ffc00
00030000
00030300
01ffff80
00000000
047ffe00
7e600e00
0e600c00
0c7ffc00
0c600c00
0c600c00
0c7ffc00
0c600c00
0c600c00
0c7ffc00
1c183000
76301800
63ffff80
40ffff00
00000000
00000000
ENDCHAR
STARTCHAR 3065
ENCODING 12389
SWIDTH	-8531 0
DWIDTH	26 0
BBX 26	27 0 -1
BITMAP
00000000
20000600
3fffff00
30000000
30000000
30c00000
30c01800
31fffc00
31860000
31060000
32060000
30060600
33ffff00
300e0000
300d0000
30188000
3018c000
30306000
30603800
30c01e00
33000400
30000000
30000600
3fffff00
30000000
00000000
00000000
ENDCHAR
STARTCHAR 3066
ENCODING 12390
SWIDTH	-8531 0
DWIDTH	26 0
BBX 26	27 0 -1
BITMAP
00000000
00e0e000
00c0c000
00c0c000
00c0c000
00c0c600
3fffff00
00c0c000
00c0c000
00c0c000
00c0c000
00c0c000
00c0c000
00c0c300
7fffff80
00c0c000
0180c000
0180c000
0180c000
0300c000
0300c000
0600c000
0c00c000
1800c000
6000c000
00000000
00000000
ENDCHAR
STARTCHAR 3067
ENCODING 12391
SWIDTH	-8531 0
DWIDTH	26 0
BBX 26	27 0 -1
BITMAP
00000000
000e0000
000c0000
000c0300
7fffff80
001c0000
00180000
00300000
0c306000
03607000
01c0e000
00c1c000
00630000
00661800
000c1c00
00183800
00306000
00c0c000
07018000
38034000
00063000
00181800
00e00c00
07000e00
78000600
00000000
00000000
ENDCHAR
STARTCHAR 3068
ENCODING 12392
SWIDTH	-8531 0
DWIDTH	26 0
BBX 26	27 0 -1
BITMAP
00000000
0e007000
0c006600
0c006300
0c006000
0c006300
0c7fff80
0c006000
7f806000
0c006000
0c3e6300
0c226300
0c226300
0c226600
0c226600
0c222c00
0c3e2c00
0c003800
0f803000
7c073880
303c6c80
01e0cc80
01818680
00030380
000c0100
00000000
00000000
ENDCHAR
STARTCHAR 3069
ENCODING 12393
SWIDTH	-8531 0
DWIDTH	26 0
BBX 26	27 0 -1
BITMAP
00000000
000e0000
000c0300
7fffff80
00700000
00606000
00c01800
01000e00
3ffff700
1fe00300
00000000
02001000
03fff800
03003800
03003000
03fff000
03003000
03003000
03003000
03fff000
03003000
03003000
03003000
0303f000
03006000
00000000
00000000
ENDCHAR
STARTCHAR 306a
ENCODING 12394
SWIDTH	-8531 0
DWIDTH	26 0
BBX 26	27 0 -1
BITMAP
00000000
03800000
03008100
030cff80
7ffcc300
0600c300
0600c600
0c00c600
0c08cc00
1ffcc800
1c18d000
2c18cc00
2c18c600
4ff8c600
0c18c300
0c18c180
0c18c180
0ff8c180
0c18c180
0c18c380
0c18df00
0c18c600
0cf8c000
0c30c000
0c00c000
00000000
00000000
ENDCHAR
STARTCHAR 306b
ENCODING 12395
SWIDTH	-8531 0
DWIDTH	26 0
BBX 26	27 0 -1
BITMAP
00000000
000cc600
0118cc00
7f90c800
0c20d000
0c26d300
0c14ca00
0818cc00
0812c880
182ed380
1172dc80
1f00c000
3900c800
3900c480
597fff80
5918c000
19186000
19186600
19342c00
19323800
1f233880
18606c80
1840ce80
00818780
01060300
00000000
00000000
ENDCHAR
STARTCHAR 306c
ENCODING 12396
SWIDTH	-8531 0
DWIDTH	26 0
BBX 26	27 0 -1
BITMAP
00000000
00000000
00000000
00000000
00000000
00000000
00000000
00000000
00000000
00000000
00000000
00000600
00000f00
7fffff80
00000000
00000000
00000000
00000000
00000000
00000000
00000000
00000000
00000000
00000000
00000000
00000000
00000000
ENDCHAR
STARTCHAR 306d
ENCODING 12397
SWIDTH	-8531 0
DWIDTH	26 0
BBX 26	27 0 -1
BITMAP
00000000
000e0000
000c0000
000c0300
7fffff80
000c0000
000c0000
000c0c00
0ffffe00
00000000
10000100
1fffff80
30000380
30700600
70600000
60603000
0060f800
00678000
00780000
00600200
00600200
00600200
00600300
007fff00
003ffe00
00000000
00000000
ENDCHAR
STARTCHAR 306e
ENCODING 12398
SWIDTH	-8531 0
DWIDTH	26 0
BBX 26	27 0 -1
BITMAP
00000000
20081000
180cf000
0c0c1000
06181800
06100c00
00204780
604fe300
32000000
32000000
02300800
043ffc00
04300800
0c600c00
0c400700
0cc00380
197fff00
1a666600
78666600
30666600
30666600
30666600
10666600
19ffff80
18000000
00000000
00000000
ENDCHAR
STARTCHAR 306f
ENCODING 12399
SWIDTH	-8531 0
DWIDTH	26 0
BBX 26	27 0 -1
BITMAP
00000000
000e0000
180c0000
0c181000
061ff800
06303800
00306000
00608200
01bfff00
00318700
00318600
02318600
7f318600
073ffe00
06066600
06066000
06066000
06066100
060c6100
06186180
06307f80
0e603f00
3b000000
71ffff80
207fff00
00000000
00000000
ENDCHAR
ENDFONT
